<?xml version="1.0" encoding="UTF-8"?>
<!-- Generated by Pixelmator Pro 3.6.14 -->
<svg width="1395" height="143" viewBox="0 0 1395 143" xmlns="http://www.w3.org/2000/svg">
    <path id="path1" fill="#ffffff" stroke="none" d="M 509.333008 141.130997 L 562.257019 3.920334 L 586.562988 3.920334 L 639.291016 141.130997 L 612.632996 141.130997 L 574.409973 37.046997 L 536.187012 141.130997 L 509.333008 141.130997 Z M 538.539001 109.181 L 540.304016 87.226898 L 608.517029 87.226898 L 610.281006 109.181 L 538.539001 109.181 Z M 684.629028 142.699005 C 675.219971 142.699005 667.117981 140.542999 660.322998 136.231003 C 653.658997 131.917999 648.432007 125.973 644.642029 118.392998 C 640.982971 110.682999 639.153992 101.796997 639.153992 91.735298 C 639.153992 84.286697 640.198975 77.426201 642.289978 71.153702 C 644.380981 64.881203 647.385986 59.523399 651.307007 55.080399 C 655.22699 50.506699 659.997009 46.978401 665.616028 44.495605 C 671.36499 42.012695 677.833984 40.771301 685.020996 40.771301 C 691.163025 40.771301 696.846985 42.012695 702.075012 44.495605 C 707.432007 46.978401 711.679016 50.2453 714.815979 54.296295 L 714.815979 3.1e-05 L 738.729004 3.1e-05 L 738.729004 141.130997 L 714.815979 141.130997 L 714.815979 128.781998 C 711.809998 132.964005 707.627991 136.362 702.270996 138.975006 C 696.913025 141.457993 691.031982 142.699005 684.629028 142.699005 Z M 689.530029 121.921997 C 693.580994 121.921997 697.23999 121.203003 700.505981 119.765999 C 703.77301 118.328003 706.583008 116.303001 708.934998 113.689003 C 711.286987 110.945 713.051025 107.742996 714.228027 104.084 C 715.533997 100.425003 716.187988 96.308998 716.187988 91.735298 C 716.187988 82.587898 713.77002 75.269997 708.934998 69.781601 C 704.099976 64.293098 697.632019 61.548904 689.530029 61.548904 C 685.609009 61.548904 682.015991 62.267601 678.749023 63.705101 C 675.481995 65.142502 672.671997 67.167999 670.320007 69.781601 C 667.968018 72.395103 666.138 75.596703 664.83197 79.386299 C 663.656006 83.045303 663.067017 87.161598 663.067017 91.735298 C 663.067017 100.883003 665.484985 108.200996 670.320007 113.689003 C 675.155029 119.177002 681.557983 121.921997 689.530029 121.921997 Z M 785.090027 141.130997 L 749.02301 42.339401 L 773.328979 42.339401 L 796.458984 110.749001 L 819.197021 42.339401 L 843.698975 42.339401 L 807.632019 141.130997 L 785.090027 141.130997 Z M 891.377014 142.699005 C 881.968018 142.699005 873.866028 140.542999 867.070984 136.231003 C 860.275024 131.917999 854.982971 125.973 851.192993 118.392998 C 847.533997 110.682999 845.705017 101.796997 845.705017 91.735298 C 845.705017 84.286697 846.75 77.426201 848.841003 71.153702 C 850.932007 64.881203 853.937988 59.523399 857.857971 55.080399 C 861.778015 50.506699 866.547974 46.978401 872.166992 44.495605 C 877.916992 42.012695 884.38501 40.771301 891.572998 40.771301 C 897.453003 40.771301 903.072021 41.947403 908.429993 44.2995 C 913.788025 46.520996 918.099976 49.591995 921.367004 53.512299 L 921.367004 42.339401 L 945.281006 42.339401 L 945.281006 141.130997 L 921.367004 141.130997 L 921.367004 129.565994 C 919.406982 132.311005 916.859009 134.662994 913.721985 136.623001 C 910.71698 138.582993 907.31897 140.085999 903.530029 141.130997 C 899.73999 142.177002 895.689026 142.699005 891.377014 142.699005 Z M 896.080994 121.921997 C 900.132019 121.921997 903.791016 121.203003 907.057983 119.765999 C 910.325012 118.328003 913.133972 116.303001 915.486023 113.689003 C 917.838989 110.945 919.603027 107.742996 920.778992 104.084 C 922.085999 100.425003 922.739014 96.308998 922.739014 91.735298 C 922.739014 82.587898 920.322021 75.269997 915.486023 69.781601 C 910.651001 64.293098 904.182983 61.548904 896.080994 61.548904 C 892.161011 61.548904 888.567017 62.267601 885.299988 63.705101 C 882.03302 65.142502 879.223999 67.233398 876.870972 69.9776 C 874.518982 72.591103 872.690002 75.727402 871.382996 79.386299 C 870.20697 83.045303 869.619019 87.161598 869.619019 91.735298 C 869.619019 100.751999 872.036011 108.07 876.870972 113.689003 C 881.705994 119.177002 888.109985 121.921997 896.080994 121.921997 Z M 965.572021 141.130997 L 965.572021 42.339401 L 989.68103 42.339401 L 989.68103 57.628601 C 992.426025 52.270798 996.47699 48.154495 1001.830017 45.279602 C 1007.190002 42.274002 1013.400024 40.771301 1020.460022 40.771301 C 1027.900024 40.771301 1034.369995 42.4701 1039.859985 45.867699 C 1045.349976 49.134598 1049.599976 53.708298 1052.599976 59.588799 C 1055.609985 65.4692 1057.109985 72.264397 1057.109985 79.974403 L 1057.109985 141.130997 L 1033.199951 141.130997 L 1033.199951 85.070801 C 1033.199951 78.275597 1031.300049 72.787102 1027.51001 68.605499 C 1023.719971 64.293098 1018.690002 62.137001 1012.419983 62.137001 C 1007.97998 62.137001 1004.059998 63.247696 1000.659973 65.4692 C 997.260986 67.560097 994.58197 70.500298 992.622009 74.289902 C 990.661987 78.079597 989.68103 82.391899 989.68103 87.226898 L 989.68103 141.130997 L 965.572021 141.130997 Z M 1120.800049 142.699005 C 1110.609985 142.699005 1101.719971 140.412994 1094.150024 135.839005 C 1086.699951 131.264999 1080.949951 125.123001 1076.900024 117.413002 C 1072.849976 109.703003 1070.819946 101.143997 1070.819946 91.735298 C 1070.819946 84.678703 1071.930054 78.079597 1074.150024 71.937698 C 1076.5 65.795898 1079.900024 60.372803 1084.339966 55.668396 C 1088.790039 50.964096 1094.079956 47.305099 1100.219971 44.691605 C 1106.359985 42.078003 1113.219971 40.771301 1120.800049 40.771301 C 1129.170044 40.771301 1136.810059 42.339401 1143.73999 45.475601 C 1150.660034 48.6119 1156.280029 52.989601 1160.589966 58.608704 C 1165.040039 64.097099 1167.589966 70.696297 1168.23999 78.406197 L 1144.130005 78.406197 C 1143.609985 75.139297 1142.22998 72.264397 1140.01001 69.781601 C 1137.920044 67.167999 1135.23999 65.142502 1131.97998 63.705101 C 1128.839966 62.267601 1125.380005 61.548904 1121.589966 61.548904 C 1115.969971 61.548904 1111.199951 62.921005 1107.280029 65.665199 C 1103.48999 68.278801 1100.609985 71.807098 1098.650024 76.250099 C 1096.689941 80.6931 1095.709961 85.854797 1095.709961 91.735298 C 1095.709961 97.4851 1096.689941 102.647003 1098.650024 107.221001 C 1100.73999 111.664001 1103.680054 115.257004 1107.469971 118.000999 C 1111.390015 120.614998 1116.160034 121.921997 1121.780029 121.921997 C 1127.530029 121.921997 1132.430054 120.418999 1136.47998 117.413002 C 1140.540039 114.407997 1143.209961 110.553001 1144.52002 105.848 L 1168.630005 105.848 C 1167.719971 112.904999 1165.040039 119.242996 1160.589966 124.862 C 1156.280029 130.350006 1150.72998 134.727997 1143.930054 137.994995 C 1137.140015 141.130997 1129.430054 142.699005 1120.800049 142.699005 Z M 1226.569946 142.699005 C 1218.599976 142.699005 1211.469971 141.261993 1205.199951 138.386993 C 1198.930054 135.511993 1193.640015 131.656998 1189.319946 126.821999 C 1185.140015 121.856003 1181.939941 116.367996 1179.719971 110.357002 C 1177.5 104.214996 1176.390015 97.877098 1176.390015 91.3433 C 1176.390015 84.809402 1177.369995 78.536903 1179.329956 72.525803 C 1181.420044 66.514603 1184.48999 61.156898 1188.540039 56.452499 C 1192.589966 51.6175 1197.619995 47.827805 1203.630005 45.083603 C 1209.650024 42.208694 1216.699951 40.771301 1224.800049 40.771301 C 1233.040039 40.771301 1240.160034 42.143402 1246.170044 44.887604 C 1252.180054 47.501099 1257.150024 51.160095 1261.069946 55.864502 C 1264.98999 60.438202 1267.859985 65.534599 1269.689941 71.153702 C 1271.650024 76.772797 1272.630005 82.522598 1272.630005 88.403 C 1272.630005 90.101799 1272.569946 91.669998 1272.439941 93.107399 C 1272.439941 94.544899 1272.369995 95.786301 1272.23999 96.831703 L 1190.300049 96.831703 L 1190.300049 80.366402 L 1248.719971 80.366402 C 1248.189941 74.093903 1245.839966 68.997498 1241.660034 65.077202 C 1237.609985 61.026199 1231.98999 59.000702 1224.800049 59.000702 C 1220.75 59.000702 1217.089966 59.719398 1213.829956 61.156898 C 1210.689941 62.4636 1208.01001 64.489098 1205.790039 67.233398 C 1203.699951 69.846901 1202.069946 73.179199 1200.890015 77.230202 C 1199.839966 81.150497 1199.319946 85.724197 1199.319946 90.951202 C 1199.319946 97.354401 1200.430054 102.973999 1202.650024 107.808998 C 1204.880005 112.513 1208.01001 116.171997 1212.060059 118.785004 C 1216.109985 121.399002 1220.949951 122.706001 1226.569946 122.706001 C 1232.839966 122.706001 1237.939941 121.463997 1241.859985 118.981003 C 1245.780029 116.499001 1248.329956 112.904999 1249.5 108.200996 L 1273.02002 108.200996 C 1271.97998 115.125999 1269.300049 121.203003 1264.98999 126.43 C 1260.670044 131.526001 1255.25 135.511993 1248.719971 138.386993 C 1242.180054 141.261993 1234.800049 142.699005 1226.569946 142.699005 Z M 1327.829956 142.699005 C 1318.420044 142.699005 1310.319946 140.542999 1303.52002 136.231003 C 1296.859985 131.917999 1291.630005 125.973 1287.839966 118.392998 C 1284.180054 110.682999 1282.349976 101.796997 1282.349976 91.735298 C 1282.349976 84.286697 1283.400024 77.426201 1285.48999 71.153702 C 1287.579956 64.881203 1290.589966 59.523399 1294.51001 55.080399 C 1298.430054 50.506699 1303.199951 46.978401 1308.810059 44.495605 C 1314.560059 42.012695 1321.030029 40.771301 1328.219971 40.771301 C 1334.359985 40.771301 1340.050049 42.012695 1345.27002 44.495605 C 1350.630005 46.978401 1354.880005 50.2453 1358.01001 54.296295 L 1358.01001 3.1e-05 L 1381.930054 3.1e-05 L 1381.930054 141.130997 L 1358.01001 141.130997 L 1358.01001 128.781998 C 1355.01001 132.964005 1350.829956 136.362 1345.469971 138.975006 C 1340.109985 141.457993 1334.22998 142.699005 1327.829956 142.699005 Z M 1332.72998 121.921997 C 1336.780029 121.921997 1340.439941 121.203003 1343.709961 119.765999 C 1346.969971 118.328003 1349.780029 116.303001 1352.130005 113.689003 C 1354.48999 110.945 1356.25 107.742996 1357.430054 104.084 C 1358.72998 100.425003 1359.390015 96.308998 1359.390015 91.735298 C 1359.390015 82.587898 1356.969971 75.269997 1352.130005 69.781601 C 1347.300049 64.293098 1340.829956 61.548904 1332.72998 61.548904 C 1328.810059 61.548904 1325.209961 62.267601 1321.949951 63.705101 C 1318.680054 65.142502 1315.869995 67.167999 1313.52002 69.781601 C 1311.170044 72.395103 1309.339966 75.596703 1308.030029 79.386299 C 1306.849976 83.045303 1306.27002 87.161598 1306.27002 91.735298 C 1306.27002 100.883003 1308.680054 108.200996 1313.52002 113.689003 C 1318.349976 119.177002 1324.76001 121.921997 1332.72998 121.921997 Z"/>
    <linearGradient id="linearGradient1" x1="530.307" y1="6.98539" x2="565.011" y2="255.795" gradientUnits="userSpaceOnUse">
        <stop offset="1e-05" stop-color="#f6e4f0" stop-opacity="1"/>
        <stop offset="0.491919" stop-color="#e16766" stop-opacity="1"/>
        <stop offset="1" stop-color="#f756f2" stop-opacity="1"/>
    </linearGradient>
    <path id="path2" fill="url(#linearGradient1)" stroke="none" d="M 509.333008 141.130997 L 562.257019 3.920334 L 586.562988 3.920334 L 639.291016 141.130997 L 612.632996 141.130997 L 574.409973 37.046997 L 536.187012 141.130997 L 509.333008 141.130997 Z M 538.539001 109.181 L 540.304016 87.226898 L 608.517029 87.226898 L 610.281006 109.181 L 538.539001 109.181 Z M 684.629028 142.699005 C 675.219971 142.699005 667.117981 140.542999 660.322998 136.231003 C 653.658997 131.917999 648.432007 125.973 644.642029 118.392998 C 640.982971 110.682999 639.153992 101.796997 639.153992 91.735298 C 639.153992 84.286697 640.198975 77.426201 642.289978 71.153702 C 644.380981 64.881203 647.385986 59.523399 651.307007 55.080399 C 655.22699 50.506699 659.997009 46.978401 665.616028 44.495605 C 671.36499 42.012695 677.833984 40.771301 685.020996 40.771301 C 691.163025 40.771301 696.846985 42.012695 702.075012 44.495605 C 707.432007 46.978401 711.679016 50.2453 714.815979 54.296295 L 714.815979 3.1e-05 L 738.729004 3.1e-05 L 738.729004 141.130997 L 714.815979 141.130997 L 714.815979 128.781998 C 711.809998 132.964005 707.627991 136.362 702.270996 138.975006 C 696.913025 141.457993 691.031982 142.699005 684.629028 142.699005 Z M 689.530029 121.921997 C 693.580994 121.921997 697.23999 121.203003 700.505981 119.765999 C 703.77301 118.328003 706.583008 116.303001 708.934998 113.689003 C 711.286987 110.945 713.051025 107.742996 714.228027 104.084 C 715.533997 100.425003 716.187988 96.308998 716.187988 91.735298 C 716.187988 82.587898 713.77002 75.269997 708.934998 69.781601 C 704.099976 64.293098 697.632019 61.548904 689.530029 61.548904 C 685.609009 61.548904 682.015991 62.267601 678.749023 63.705101 C 675.481995 65.142502 672.671997 67.167999 670.320007 69.781601 C 667.968018 72.395103 666.138 75.596703 664.83197 79.386299 C 663.656006 83.045303 663.067017 87.161598 663.067017 91.735298 C 663.067017 100.883003 665.484985 108.200996 670.320007 113.689003 C 675.155029 119.177002 681.557983 121.921997 689.530029 121.921997 Z M 785.090027 141.130997 L 749.02301 42.339401 L 773.328979 42.339401 L 796.458984 110.749001 L 819.197021 42.339401 L 843.698975 42.339401 L 807.632019 141.130997 L 785.090027 141.130997 Z M 891.377014 142.699005 C 881.968018 142.699005 873.866028 140.542999 867.070984 136.231003 C 860.275024 131.917999 854.982971 125.973 851.192993 118.392998 C 847.533997 110.682999 845.705017 101.796997 845.705017 91.735298 C 845.705017 84.286697 846.75 77.426201 848.841003 71.153702 C 850.932007 64.881203 853.937988 59.523399 857.857971 55.080399 C 861.778015 50.506699 866.547974 46.978401 872.166992 44.495605 C 877.916992 42.012695 884.38501 40.771301 891.572998 40.771301 C 897.453003 40.771301 903.072021 41.947403 908.429993 44.2995 C 913.788025 46.520996 918.099976 49.591995 921.367004 53.512299 L 921.367004 42.339401 L 945.281006 42.339401 L 945.281006 141.130997 L 921.367004 141.130997 L 921.367004 129.565994 C 919.406982 132.311005 916.859009 134.662994 913.721985 136.623001 C 910.71698 138.582993 907.31897 140.085999 903.530029 141.130997 C 899.73999 142.177002 895.689026 142.699005 891.377014 142.699005 Z M 896.080994 121.921997 C 900.132019 121.921997 903.791016 121.203003 907.057983 119.765999 C 910.325012 118.328003 913.133972 116.303001 915.486023 113.689003 C 917.838989 110.945 919.603027 107.742996 920.778992 104.084 C 922.085999 100.425003 922.739014 96.308998 922.739014 91.735298 C 922.739014 82.587898 920.322021 75.269997 915.486023 69.781601 C 910.651001 64.293098 904.182983 61.548904 896.080994 61.548904 C 892.161011 61.548904 888.567017 62.267601 885.299988 63.705101 C 882.03302 65.142502 879.223999 67.233398 876.870972 69.9776 C 874.518982 72.591103 872.690002 75.727402 871.382996 79.386299 C 870.20697 83.045303 869.619019 87.161598 869.619019 91.735298 C 869.619019 100.751999 872.036011 108.07 876.870972 113.689003 C 881.705994 119.177002 888.109985 121.921997 896.080994 121.921997 Z M 965.572021 141.130997 L 965.572021 42.339401 L 989.68103 42.339401 L 989.68103 57.628601 C 992.426025 52.270798 996.47699 48.154495 1001.830017 45.279602 C 1007.190002 42.274002 1013.400024 40.771301 1020.460022 40.771301 C 1027.900024 40.771301 1034.369995 42.4701 1039.859985 45.867699 C 1045.349976 49.134598 1049.599976 53.708298 1052.599976 59.588799 C 1055.609985 65.4692 1057.109985 72.264397 1057.109985 79.974403 L 1057.109985 141.130997 L 1033.199951 141.130997 L 1033.199951 85.070801 C 1033.199951 78.275597 1031.300049 72.787102 1027.51001 68.605499 C 1023.719971 64.293098 1018.690002 62.137001 1012.419983 62.137001 C 1007.97998 62.137001 1004.059998 63.247696 1000.659973 65.4692 C 997.260986 67.560097 994.58197 70.500298 992.622009 74.289902 C 990.661987 78.079597 989.68103 82.391899 989.68103 87.226898 L 989.68103 141.130997 L 965.572021 141.130997 Z M 1120.800049 142.699005 C 1110.609985 142.699005 1101.719971 140.412994 1094.150024 135.839005 C 1086.699951 131.264999 1080.949951 125.123001 1076.900024 117.413002 C 1072.849976 109.703003 1070.819946 101.143997 1070.819946 91.735298 C 1070.819946 84.678703 1071.930054 78.079597 1074.150024 71.937698 C 1076.5 65.795898 1079.900024 60.372803 1084.339966 55.668396 C 1088.790039 50.964096 1094.079956 47.305099 1100.219971 44.691605 C 1106.359985 42.078003 1113.219971 40.771301 1120.800049 40.771301 C 1129.170044 40.771301 1136.810059 42.339401 1143.73999 45.475601 C 1150.660034 48.6119 1156.280029 52.989601 1160.589966 58.608704 C 1165.040039 64.097099 1167.589966 70.696297 1168.23999 78.406197 L 1144.130005 78.406197 C 1143.609985 75.139297 1142.22998 72.264397 1140.01001 69.781601 C 1137.920044 67.167999 1135.23999 65.142502 1131.97998 63.705101 C 1128.839966 62.267601 1125.380005 61.548904 1121.589966 61.548904 C 1115.969971 61.548904 1111.199951 62.921005 1107.280029 65.665199 C 1103.48999 68.278801 1100.609985 71.807098 1098.650024 76.250099 C 1096.689941 80.6931 1095.709961 85.854797 1095.709961 91.735298 C 1095.709961 97.4851 1096.689941 102.647003 1098.650024 107.221001 C 1100.73999 111.664001 1103.680054 115.257004 1107.469971 118.000999 C 1111.390015 120.614998 1116.160034 121.921997 1121.780029 121.921997 C 1127.530029 121.921997 1132.430054 120.418999 1136.47998 117.413002 C 1140.540039 114.407997 1143.209961 110.553001 1144.52002 105.848 L 1168.630005 105.848 C 1167.719971 112.904999 1165.040039 119.242996 1160.589966 124.862 C 1156.280029 130.350006 1150.72998 134.727997 1143.930054 137.994995 C 1137.140015 141.130997 1129.430054 142.699005 1120.800049 142.699005 Z M 1226.569946 142.699005 C 1218.599976 142.699005 1211.469971 141.261993 1205.199951 138.386993 C 1198.930054 135.511993 1193.640015 131.656998 1189.319946 126.821999 C 1185.140015 121.856003 1181.939941 116.367996 1179.719971 110.357002 C 1177.5 104.214996 1176.390015 97.877098 1176.390015 91.3433 C 1176.390015 84.809402 1177.369995 78.536903 1179.329956 72.525803 C 1181.420044 66.514603 1184.48999 61.156898 1188.540039 56.452499 C 1192.589966 51.6175 1197.619995 47.827805 1203.630005 45.083603 C 1209.650024 42.208694 1216.699951 40.771301 1224.800049 40.771301 C 1233.040039 40.771301 1240.160034 42.143402 1246.170044 44.887604 C 1252.180054 47.501099 1257.150024 51.160095 1261.069946 55.864502 C 1264.98999 60.438202 1267.859985 65.534599 1269.689941 71.153702 C 1271.650024 76.772797 1272.630005 82.522598 1272.630005 88.403 C 1272.630005 90.101799 1272.569946 91.669998 1272.439941 93.107399 C 1272.439941 94.544899 1272.369995 95.786301 1272.23999 96.831703 L 1190.300049 96.831703 L 1190.300049 80.366402 L 1248.719971 80.366402 C 1248.189941 74.093903 1245.839966 68.997498 1241.660034 65.077202 C 1237.609985 61.026199 1231.98999 59.000702 1224.800049 59.000702 C 1220.75 59.000702 1217.089966 59.719398 1213.829956 61.156898 C 1210.689941 62.4636 1208.01001 64.489098 1205.790039 67.233398 C 1203.699951 69.846901 1202.069946 73.179199 1200.890015 77.230202 C 1199.839966 81.150497 1199.319946 85.724197 1199.319946 90.951202 C 1199.319946 97.354401 1200.430054 102.973999 1202.650024 107.808998 C 1204.880005 112.513 1208.01001 116.171997 1212.060059 118.785004 C 1216.109985 121.399002 1220.949951 122.706001 1226.569946 122.706001 C 1232.839966 122.706001 1237.939941 121.463997 1241.859985 118.981003 C 1245.780029 116.499001 1248.329956 112.904999 1249.5 108.200996 L 1273.02002 108.200996 C 1271.97998 115.125999 1269.300049 121.203003 1264.98999 126.43 C 1260.670044 131.526001 1255.25 135.511993 1248.719971 138.386993 C 1242.180054 141.261993 1234.800049 142.699005 1226.569946 142.699005 Z M 1327.829956 142.699005 C 1318.420044 142.699005 1310.319946 140.542999 1303.52002 136.231003 C 1296.859985 131.917999 1291.630005 125.973 1287.839966 118.392998 C 1284.180054 110.682999 1282.349976 101.796997 1282.349976 91.735298 C 1282.349976 84.286697 1283.400024 77.426201 1285.48999 71.153702 C 1287.579956 64.881203 1290.589966 59.523399 1294.51001 55.080399 C 1298.430054 50.506699 1303.199951 46.978401 1308.810059 44.495605 C 1314.560059 42.012695 1321.030029 40.771301 1328.219971 40.771301 C 1334.359985 40.771301 1340.050049 42.012695 1345.27002 44.495605 C 1350.630005 46.978401 1354.880005 50.2453 1358.01001 54.296295 L 1358.01001 3.1e-05 L 1381.930054 3.1e-05 L 1381.930054 141.130997 L 1358.01001 141.130997 L 1358.01001 128.781998 C 1355.01001 132.964005 1350.829956 136.362 1345.469971 138.975006 C 1340.109985 141.457993 1334.22998 142.699005 1327.829956 142.699005 Z M 1332.72998 121.921997 C 1336.780029 121.921997 1340.439941 121.203003 1343.709961 119.765999 C 1346.969971 118.328003 1349.780029 116.303001 1352.130005 113.689003 C 1354.48999 110.945 1356.25 107.742996 1357.430054 104.084 C 1358.72998 100.425003 1359.390015 96.308998 1359.390015 91.735298 C 1359.390015 82.587898 1356.969971 75.269997 1352.130005 69.781601 C 1347.300049 64.293098 1340.829956 61.548904 1332.72998 61.548904 C 1328.810059 61.548904 1325.209961 62.267601 1321.949951 63.705101 C 1318.680054 65.142502 1315.869995 67.167999 1313.52002 69.781601 C 1311.170044 72.395103 1309.339966 75.596703 1308.030029 79.386299 C 1306.849976 83.045303 1306.27002 87.161598 1306.27002 91.735298 C 1306.27002 100.883003 1308.680054 108.200996 1313.52002 113.689003 C 1318.349976 119.177002 1324.76001 121.921997 1332.72998 121.921997 Z"/>
    <radialGradient id="radialGradient1" cx="1253.87" cy="-5.57294" r="566.351522" fx="1253.87" fy="-5.57294" gradientUnits="userSpaceOnUse">
        <stop offset="1e-05" stop-color="#ffffff" stop-opacity="0.6"/>
        <stop offset="1" stop-color="#ffffff" stop-opacity="0"/>
    </radialGradient>
    <path id="path3" fill="url(#radialGradient1)" stroke="none" d="M 509.333008 141.130997 L 562.257019 3.920334 L 586.562988 3.920334 L 639.291016 141.130997 L 612.632996 141.130997 L 574.409973 37.046997 L 536.187012 141.130997 L 509.333008 141.130997 Z M 538.539001 109.181 L 540.304016 87.226898 L 608.517029 87.226898 L 610.281006 109.181 L 538.539001 109.181 Z M 684.629028 142.699005 C 675.219971 142.699005 667.117981 140.542999 660.322998 136.231003 C 653.658997 131.917999 648.432007 125.973 644.642029 118.392998 C 640.982971 110.682999 639.153992 101.796997 639.153992 91.735298 C 639.153992 84.286697 640.198975 77.426201 642.289978 71.153702 C 644.380981 64.881203 647.385986 59.523399 651.307007 55.080399 C 655.22699 50.506699 659.997009 46.978401 665.616028 44.495605 C 671.36499 42.012695 677.833984 40.771301 685.020996 40.771301 C 691.163025 40.771301 696.846985 42.012695 702.075012 44.495605 C 707.432007 46.978401 711.679016 50.2453 714.815979 54.296295 L 714.815979 3.1e-05 L 738.729004 3.1e-05 L 738.729004 141.130997 L 714.815979 141.130997 L 714.815979 128.781998 C 711.809998 132.964005 707.627991 136.362 702.270996 138.975006 C 696.913025 141.457993 691.031982 142.699005 684.629028 142.699005 Z M 689.530029 121.921997 C 693.580994 121.921997 697.23999 121.203003 700.505981 119.765999 C 703.77301 118.328003 706.583008 116.303001 708.934998 113.689003 C 711.286987 110.945 713.051025 107.742996 714.228027 104.084 C 715.533997 100.425003 716.187988 96.308998 716.187988 91.735298 C 716.187988 82.587898 713.77002 75.269997 708.934998 69.781601 C 704.099976 64.293098 697.632019 61.548904 689.530029 61.548904 C 685.609009 61.548904 682.015991 62.267601 678.749023 63.705101 C 675.481995 65.142502 672.671997 67.167999 670.320007 69.781601 C 667.968018 72.395103 666.138 75.596703 664.83197 79.386299 C 663.656006 83.045303 663.067017 87.161598 663.067017 91.735298 C 663.067017 100.883003 665.484985 108.200996 670.320007 113.689003 C 675.155029 119.177002 681.557983 121.921997 689.530029 121.921997 Z M 785.090027 141.130997 L 749.02301 42.339401 L 773.328979 42.339401 L 796.458984 110.749001 L 819.197021 42.339401 L 843.698975 42.339401 L 807.632019 141.130997 L 785.090027 141.130997 Z M 891.377014 142.699005 C 881.968018 142.699005 873.866028 140.542999 867.070984 136.231003 C 860.275024 131.917999 854.982971 125.973 851.192993 118.392998 C 847.533997 110.682999 845.705017 101.796997 845.705017 91.735298 C 845.705017 84.286697 846.75 77.426201 848.841003 71.153702 C 850.932007 64.881203 853.937988 59.523399 857.857971 55.080399 C 861.778015 50.506699 866.547974 46.978401 872.166992 44.495605 C 877.916992 42.012695 884.38501 40.771301 891.572998 40.771301 C 897.453003 40.771301 903.072021 41.947403 908.429993 44.2995 C 913.788025 46.520996 918.099976 49.591995 921.367004 53.512299 L 921.367004 42.339401 L 945.281006 42.339401 L 945.281006 141.130997 L 921.367004 141.130997 L 921.367004 129.565994 C 919.406982 132.311005 916.859009 134.662994 913.721985 136.623001 C 910.71698 138.582993 907.31897 140.085999 903.530029 141.130997 C 899.73999 142.177002 895.689026 142.699005 891.377014 142.699005 Z M 896.080994 121.921997 C 900.132019 121.921997 903.791016 121.203003 907.057983 119.765999 C 910.325012 118.328003 913.133972 116.303001 915.486023 113.689003 C 917.838989 110.945 919.603027 107.742996 920.778992 104.084 C 922.085999 100.425003 922.739014 96.308998 922.739014 91.735298 C 922.739014 82.587898 920.322021 75.269997 915.486023 69.781601 C 910.651001 64.293098 904.182983 61.548904 896.080994 61.548904 C 892.161011 61.548904 888.567017 62.267601 885.299988 63.705101 C 882.03302 65.142502 879.223999 67.233398 876.870972 69.9776 C 874.518982 72.591103 872.690002 75.727402 871.382996 79.386299 C 870.20697 83.045303 869.619019 87.161598 869.619019 91.735298 C 869.619019 100.751999 872.036011 108.07 876.870972 113.689003 C 881.705994 119.177002 888.109985 121.921997 896.080994 121.921997 Z M 965.572021 141.130997 L 965.572021 42.339401 L 989.68103 42.339401 L 989.68103 57.628601 C 992.426025 52.270798 996.47699 48.154495 1001.830017 45.279602 C 1007.190002 42.274002 1013.400024 40.771301 1020.460022 40.771301 C 1027.900024 40.771301 1034.369995 42.4701 1039.859985 45.867699 C 1045.349976 49.134598 1049.599976 53.708298 1052.599976 59.588799 C 1055.609985 65.4692 1057.109985 72.264397 1057.109985 79.974403 L 1057.109985 141.130997 L 1033.199951 141.130997 L 1033.199951 85.070801 C 1033.199951 78.275597 1031.300049 72.787102 1027.51001 68.605499 C 1023.719971 64.293098 1018.690002 62.137001 1012.419983 62.137001 C 1007.97998 62.137001 1004.059998 63.247696 1000.659973 65.4692 C 997.260986 67.560097 994.58197 70.500298 992.622009 74.289902 C 990.661987 78.079597 989.68103 82.391899 989.68103 87.226898 L 989.68103 141.130997 L 965.572021 141.130997 Z M 1120.800049 142.699005 C 1110.609985 142.699005 1101.719971 140.412994 1094.150024 135.839005 C 1086.699951 131.264999 1080.949951 125.123001 1076.900024 117.413002 C 1072.849976 109.703003 1070.819946 101.143997 1070.819946 91.735298 C 1070.819946 84.678703 1071.930054 78.079597 1074.150024 71.937698 C 1076.5 65.795898 1079.900024 60.372803 1084.339966 55.668396 C 1088.790039 50.964096 1094.079956 47.305099 1100.219971 44.691605 C 1106.359985 42.078003 1113.219971 40.771301 1120.800049 40.771301 C 1129.170044 40.771301 1136.810059 42.339401 1143.73999 45.475601 C 1150.660034 48.6119 1156.280029 52.989601 1160.589966 58.608704 C 1165.040039 64.097099 1167.589966 70.696297 1168.23999 78.406197 L 1144.130005 78.406197 C 1143.609985 75.139297 1142.22998 72.264397 1140.01001 69.781601 C 1137.920044 67.167999 1135.23999 65.142502 1131.97998 63.705101 C 1128.839966 62.267601 1125.380005 61.548904 1121.589966 61.548904 C 1115.969971 61.548904 1111.199951 62.921005 1107.280029 65.665199 C 1103.48999 68.278801 1100.609985 71.807098 1098.650024 76.250099 C 1096.689941 80.6931 1095.709961 85.854797 1095.709961 91.735298 C 1095.709961 97.4851 1096.689941 102.647003 1098.650024 107.221001 C 1100.73999 111.664001 1103.680054 115.257004 1107.469971 118.000999 C 1111.390015 120.614998 1116.160034 121.921997 1121.780029 121.921997 C 1127.530029 121.921997 1132.430054 120.418999 1136.47998 117.413002 C 1140.540039 114.407997 1143.209961 110.553001 1144.52002 105.848 L 1168.630005 105.848 C 1167.719971 112.904999 1165.040039 119.242996 1160.589966 124.862 C 1156.280029 130.350006 1150.72998 134.727997 1143.930054 137.994995 C 1137.140015 141.130997 1129.430054 142.699005 1120.800049 142.699005 Z M 1226.569946 142.699005 C 1218.599976 142.699005 1211.469971 141.261993 1205.199951 138.386993 C 1198.930054 135.511993 1193.640015 131.656998 1189.319946 126.821999 C 1185.140015 121.856003 1181.939941 116.367996 1179.719971 110.357002 C 1177.5 104.214996 1176.390015 97.877098 1176.390015 91.3433 C 1176.390015 84.809402 1177.369995 78.536903 1179.329956 72.525803 C 1181.420044 66.514603 1184.48999 61.156898 1188.540039 56.452499 C 1192.589966 51.6175 1197.619995 47.827805 1203.630005 45.083603 C 1209.650024 42.208694 1216.699951 40.771301 1224.800049 40.771301 C 1233.040039 40.771301 1240.160034 42.143402 1246.170044 44.887604 C 1252.180054 47.501099 1257.150024 51.160095 1261.069946 55.864502 C 1264.98999 60.438202 1267.859985 65.534599 1269.689941 71.153702 C 1271.650024 76.772797 1272.630005 82.522598 1272.630005 88.403 C 1272.630005 90.101799 1272.569946 91.669998 1272.439941 93.107399 C 1272.439941 94.544899 1272.369995 95.786301 1272.23999 96.831703 L 1190.300049 96.831703 L 1190.300049 80.366402 L 1248.719971 80.366402 C 1248.189941 74.093903 1245.839966 68.997498 1241.660034 65.077202 C 1237.609985 61.026199 1231.98999 59.000702 1224.800049 59.000702 C 1220.75 59.000702 1217.089966 59.719398 1213.829956 61.156898 C 1210.689941 62.4636 1208.01001 64.489098 1205.790039 67.233398 C 1203.699951 69.846901 1202.069946 73.179199 1200.890015 77.230202 C 1199.839966 81.150497 1199.319946 85.724197 1199.319946 90.951202 C 1199.319946 97.354401 1200.430054 102.973999 1202.650024 107.808998 C 1204.880005 112.513 1208.01001 116.171997 1212.060059 118.785004 C 1216.109985 121.399002 1220.949951 122.706001 1226.569946 122.706001 C 1232.839966 122.706001 1237.939941 121.463997 1241.859985 118.981003 C 1245.780029 116.499001 1248.329956 112.904999 1249.5 108.200996 L 1273.02002 108.200996 C 1271.97998 115.125999 1269.300049 121.203003 1264.98999 126.43 C 1260.670044 131.526001 1255.25 135.511993 1248.719971 138.386993 C 1242.180054 141.261993 1234.800049 142.699005 1226.569946 142.699005 Z M 1327.829956 142.699005 C 1318.420044 142.699005 1310.319946 140.542999 1303.52002 136.231003 C 1296.859985 131.917999 1291.630005 125.973 1287.839966 118.392998 C 1284.180054 110.682999 1282.349976 101.796997 1282.349976 91.735298 C 1282.349976 84.286697 1283.400024 77.426201 1285.48999 71.153702 C 1287.579956 64.881203 1290.589966 59.523399 1294.51001 55.080399 C 1298.430054 50.506699 1303.199951 46.978401 1308.810059 44.495605 C 1314.560059 42.012695 1321.030029 40.771301 1328.219971 40.771301 C 1334.359985 40.771301 1340.050049 42.012695 1345.27002 44.495605 C 1350.630005 46.978401 1354.880005 50.2453 1358.01001 54.296295 L 1358.01001 3.1e-05 L 1381.930054 3.1e-05 L 1381.930054 141.130997 L 1358.01001 141.130997 L 1358.01001 128.781998 C 1355.01001 132.964005 1350.829956 136.362 1345.469971 138.975006 C 1340.109985 141.457993 1334.22998 142.699005 1327.829956 142.699005 Z M 1332.72998 121.921997 C 1336.780029 121.921997 1340.439941 121.203003 1343.709961 119.765999 C 1346.969971 118.328003 1349.780029 116.303001 1352.130005 113.689003 C 1354.48999 110.945 1356.25 107.742996 1357.430054 104.084 C 1358.72998 100.425003 1359.390015 96.308998 1359.390015 91.735298 C 1359.390015 82.587898 1356.969971 75.269997 1352.130005 69.781601 C 1347.300049 64.293098 1340.829956 61.548904 1332.72998 61.548904 C 1328.810059 61.548904 1325.209961 62.267601 1321.949951 63.705101 C 1318.680054 65.142502 1315.869995 67.167999 1313.52002 69.781601 C 1311.170044 72.395103 1309.339966 75.596703 1308.030029 79.386299 C 1306.849976 83.045303 1306.27002 87.161598 1306.27002 91.735298 C 1306.27002 100.883003 1308.680054 108.200996 1313.52002 113.689003 C 1318.349976 119.177002 1324.76001 121.921997 1332.72998 121.921997 Z"/>
    <linearGradient id="linearGradient2" x1="457.378" y1="-75.2553" x2="470.81" y2="249.97" gradientUnits="userSpaceOnUse">
        <stop offset="1e-05" stop-color="#f6e4f0" stop-opacity="1"/>
        <stop offset="0.491919" stop-color="#e19766" stop-opacity="1"/>
        <stop offset="1" stop-color="#ff6200" stop-opacity="1"/>
    </linearGradient>
    <path id="path4" fill="url(#linearGradient2)" stroke="none" d="M 509.333008 141.130997 L 562.257019 3.920334 L 586.562988 3.920334 L 639.291016 141.130997 L 612.632996 141.130997 L 574.409973 37.046997 L 536.187012 141.130997 L 509.333008 141.130997 Z M 538.539001 109.181 L 540.304016 87.226898 L 608.517029 87.226898 L 610.281006 109.181 L 538.539001 109.181 Z M 684.629028 142.699005 C 675.219971 142.699005 667.117981 140.542999 660.322998 136.231003 C 653.658997 131.917999 648.432007 125.973 644.642029 118.392998 C 640.982971 110.682999 639.153992 101.796997 639.153992 91.735298 C 639.153992 84.286697 640.198975 77.426201 642.289978 71.153702 C 644.380981 64.881203 647.385986 59.523399 651.307007 55.080399 C 655.22699 50.506699 659.997009 46.978401 665.616028 44.495605 C 671.36499 42.012695 677.833984 40.771301 685.020996 40.771301 C 691.163025 40.771301 696.846985 42.012695 702.075012 44.495605 C 707.432007 46.978401 711.679016 50.2453 714.815979 54.296295 L 714.815979 3.1e-05 L 738.729004 3.1e-05 L 738.729004 141.130997 L 714.815979 141.130997 L 714.815979 128.781998 C 711.809998 132.964005 707.627991 136.362 702.270996 138.975006 C 696.913025 141.457993 691.031982 142.699005 684.629028 142.699005 Z M 689.530029 121.921997 C 693.580994 121.921997 697.23999 121.203003 700.505981 119.765999 C 703.77301 118.328003 706.583008 116.303001 708.934998 113.689003 C 711.286987 110.945 713.051025 107.742996 714.228027 104.084 C 715.533997 100.425003 716.187988 96.308998 716.187988 91.735298 C 716.187988 82.587898 713.77002 75.269997 708.934998 69.781601 C 704.099976 64.293098 697.632019 61.548904 689.530029 61.548904 C 685.609009 61.548904 682.015991 62.267601 678.749023 63.705101 C 675.481995 65.142502 672.671997 67.167999 670.320007 69.781601 C 667.968018 72.395103 666.138 75.596703 664.83197 79.386299 C 663.656006 83.045303 663.067017 87.161598 663.067017 91.735298 C 663.067017 100.883003 665.484985 108.200996 670.320007 113.689003 C 675.155029 119.177002 681.557983 121.921997 689.530029 121.921997 Z M 785.090027 141.130997 L 749.02301 42.339401 L 773.328979 42.339401 L 796.458984 110.749001 L 819.197021 42.339401 L 843.698975 42.339401 L 807.632019 141.130997 L 785.090027 141.130997 Z M 891.377014 142.699005 C 881.968018 142.699005 873.866028 140.542999 867.070984 136.231003 C 860.275024 131.917999 854.982971 125.973 851.192993 118.392998 C 847.533997 110.682999 845.705017 101.796997 845.705017 91.735298 C 845.705017 84.286697 846.75 77.426201 848.841003 71.153702 C 850.932007 64.881203 853.937988 59.523399 857.857971 55.080399 C 861.778015 50.506699 866.547974 46.978401 872.166992 44.495605 C 877.916992 42.012695 884.38501 40.771301 891.572998 40.771301 C 897.453003 40.771301 903.072021 41.947403 908.429993 44.2995 C 913.788025 46.520996 918.099976 49.591995 921.367004 53.512299 L 921.367004 42.339401 L 945.281006 42.339401 L 945.281006 141.130997 L 921.367004 141.130997 L 921.367004 129.565994 C 919.406982 132.311005 916.859009 134.662994 913.721985 136.623001 C 910.71698 138.582993 907.31897 140.085999 903.530029 141.130997 C 899.73999 142.177002 895.689026 142.699005 891.377014 142.699005 Z M 896.080994 121.921997 C 900.132019 121.921997 903.791016 121.203003 907.057983 119.765999 C 910.325012 118.328003 913.133972 116.303001 915.486023 113.689003 C 917.838989 110.945 919.603027 107.742996 920.778992 104.084 C 922.085999 100.425003 922.739014 96.308998 922.739014 91.735298 C 922.739014 82.587898 920.322021 75.269997 915.486023 69.781601 C 910.651001 64.293098 904.182983 61.548904 896.080994 61.548904 C 892.161011 61.548904 888.567017 62.267601 885.299988 63.705101 C 882.03302 65.142502 879.223999 67.233398 876.870972 69.9776 C 874.518982 72.591103 872.690002 75.727402 871.382996 79.386299 C 870.20697 83.045303 869.619019 87.161598 869.619019 91.735298 C 869.619019 100.751999 872.036011 108.07 876.870972 113.689003 C 881.705994 119.177002 888.109985 121.921997 896.080994 121.921997 Z M 965.572021 141.130997 L 965.572021 42.339401 L 989.68103 42.339401 L 989.68103 57.628601 C 992.426025 52.270798 996.47699 48.154495 1001.830017 45.279602 C 1007.190002 42.274002 1013.400024 40.771301 1020.460022 40.771301 C 1027.900024 40.771301 1034.369995 42.4701 1039.859985 45.867699 C 1045.349976 49.134598 1049.599976 53.708298 1052.599976 59.588799 C 1055.609985 65.4692 1057.109985 72.264397 1057.109985 79.974403 L 1057.109985 141.130997 L 1033.199951 141.130997 L 1033.199951 85.070801 C 1033.199951 78.275597 1031.300049 72.787102 1027.51001 68.605499 C 1023.719971 64.293098 1018.690002 62.137001 1012.419983 62.137001 C 1007.97998 62.137001 1004.059998 63.247696 1000.659973 65.4692 C 997.260986 67.560097 994.58197 70.500298 992.622009 74.289902 C 990.661987 78.079597 989.68103 82.391899 989.68103 87.226898 L 989.68103 141.130997 L 965.572021 141.130997 Z M 1120.800049 142.699005 C 1110.609985 142.699005 1101.719971 140.412994 1094.150024 135.839005 C 1086.699951 131.264999 1080.949951 125.123001 1076.900024 117.413002 C 1072.849976 109.703003 1070.819946 101.143997 1070.819946 91.735298 C 1070.819946 84.678703 1071.930054 78.079597 1074.150024 71.937698 C 1076.5 65.795898 1079.900024 60.372803 1084.339966 55.668396 C 1088.790039 50.964096 1094.079956 47.305099 1100.219971 44.691605 C 1106.359985 42.078003 1113.219971 40.771301 1120.800049 40.771301 C 1129.170044 40.771301 1136.810059 42.339401 1143.73999 45.475601 C 1150.660034 48.6119 1156.280029 52.989601 1160.589966 58.608704 C 1165.040039 64.097099 1167.589966 70.696297 1168.23999 78.406197 L 1144.130005 78.406197 C 1143.609985 75.139297 1142.22998 72.264397 1140.01001 69.781601 C 1137.920044 67.167999 1135.23999 65.142502 1131.97998 63.705101 C 1128.839966 62.267601 1125.380005 61.548904 1121.589966 61.548904 C 1115.969971 61.548904 1111.199951 62.921005 1107.280029 65.665199 C 1103.48999 68.278801 1100.609985 71.807098 1098.650024 76.250099 C 1096.689941 80.6931 1095.709961 85.854797 1095.709961 91.735298 C 1095.709961 97.4851 1096.689941 102.647003 1098.650024 107.221001 C 1100.73999 111.664001 1103.680054 115.257004 1107.469971 118.000999 C 1111.390015 120.614998 1116.160034 121.921997 1121.780029 121.921997 C 1127.530029 121.921997 1132.430054 120.418999 1136.47998 117.413002 C 1140.540039 114.407997 1143.209961 110.553001 1144.52002 105.848 L 1168.630005 105.848 C 1167.719971 112.904999 1165.040039 119.242996 1160.589966 124.862 C 1156.280029 130.350006 1150.72998 134.727997 1143.930054 137.994995 C 1137.140015 141.130997 1129.430054 142.699005 1120.800049 142.699005 Z M 1226.569946 142.699005 C 1218.599976 142.699005 1211.469971 141.261993 1205.199951 138.386993 C 1198.930054 135.511993 1193.640015 131.656998 1189.319946 126.821999 C 1185.140015 121.856003 1181.939941 116.367996 1179.719971 110.357002 C 1177.5 104.214996 1176.390015 97.877098 1176.390015 91.3433 C 1176.390015 84.809402 1177.369995 78.536903 1179.329956 72.525803 C 1181.420044 66.514603 1184.48999 61.156898 1188.540039 56.452499 C 1192.589966 51.6175 1197.619995 47.827805 1203.630005 45.083603 C 1209.650024 42.208694 1216.699951 40.771301 1224.800049 40.771301 C 1233.040039 40.771301 1240.160034 42.143402 1246.170044 44.887604 C 1252.180054 47.501099 1257.150024 51.160095 1261.069946 55.864502 C 1264.98999 60.438202 1267.859985 65.534599 1269.689941 71.153702 C 1271.650024 76.772797 1272.630005 82.522598 1272.630005 88.403 C 1272.630005 90.101799 1272.569946 91.669998 1272.439941 93.107399 C 1272.439941 94.544899 1272.369995 95.786301 1272.23999 96.831703 L 1190.300049 96.831703 L 1190.300049 80.366402 L 1248.719971 80.366402 C 1248.189941 74.093903 1245.839966 68.997498 1241.660034 65.077202 C 1237.609985 61.026199 1231.98999 59.000702 1224.800049 59.000702 C 1220.75 59.000702 1217.089966 59.719398 1213.829956 61.156898 C 1210.689941 62.4636 1208.01001 64.489098 1205.790039 67.233398 C 1203.699951 69.846901 1202.069946 73.179199 1200.890015 77.230202 C 1199.839966 81.150497 1199.319946 85.724197 1199.319946 90.951202 C 1199.319946 97.354401 1200.430054 102.973999 1202.650024 107.808998 C 1204.880005 112.513 1208.01001 116.171997 1212.060059 118.785004 C 1216.109985 121.399002 1220.949951 122.706001 1226.569946 122.706001 C 1232.839966 122.706001 1237.939941 121.463997 1241.859985 118.981003 C 1245.780029 116.499001 1248.329956 112.904999 1249.5 108.200996 L 1273.02002 108.200996 C 1271.97998 115.125999 1269.300049 121.203003 1264.98999 126.43 C 1260.670044 131.526001 1255.25 135.511993 1248.719971 138.386993 C 1242.180054 141.261993 1234.800049 142.699005 1226.569946 142.699005 Z M 1327.829956 142.699005 C 1318.420044 142.699005 1310.319946 140.542999 1303.52002 136.231003 C 1296.859985 131.917999 1291.630005 125.973 1287.839966 118.392998 C 1284.180054 110.682999 1282.349976 101.796997 1282.349976 91.735298 C 1282.349976 84.286697 1283.400024 77.426201 1285.48999 71.153702 C 1287.579956 64.881203 1290.589966 59.523399 1294.51001 55.080399 C 1298.430054 50.506699 1303.199951 46.978401 1308.810059 44.495605 C 1314.560059 42.012695 1321.030029 40.771301 1328.219971 40.771301 C 1334.359985 40.771301 1340.050049 42.012695 1345.27002 44.495605 C 1350.630005 46.978401 1354.880005 50.2453 1358.01001 54.296295 L 1358.01001 3.1e-05 L 1381.930054 3.1e-05 L 1381.930054 141.130997 L 1358.01001 141.130997 L 1358.01001 128.781998 C 1355.01001 132.964005 1350.829956 136.362 1345.469971 138.975006 C 1340.109985 141.457993 1334.22998 142.699005 1327.829956 142.699005 Z M 1332.72998 121.921997 C 1336.780029 121.921997 1340.439941 121.203003 1343.709961 119.765999 C 1346.969971 118.328003 1349.780029 116.303001 1352.130005 113.689003 C 1354.48999 110.945 1356.25 107.742996 1357.430054 104.084 C 1358.72998 100.425003 1359.390015 96.308998 1359.390015 91.735298 C 1359.390015 82.587898 1356.969971 75.269997 1352.130005 69.781601 C 1347.300049 64.293098 1340.829956 61.548904 1332.72998 61.548904 C 1328.810059 61.548904 1325.209961 62.267601 1321.949951 63.705101 C 1318.680054 65.142502 1315.869995 67.167999 1313.52002 69.781601 C 1311.170044 72.395103 1309.339966 75.596703 1308.030029 79.386299 C 1306.849976 83.045303 1306.27002 87.161598 1306.27002 91.735298 C 1306.27002 100.883003 1308.680054 108.200996 1313.52002 113.689003 C 1318.349976 119.177002 1324.76001 121.921997 1332.72998 121.921997 Z"/>
    <radialGradient id="radialGradient2" cx="1253.87" cy="-5.57294" r="566.351522" fx="1253.87" fy="-5.57294" gradientUnits="userSpaceOnUse">
        <stop offset="1e-05" stop-color="#ffffff" stop-opacity="0.6"/>
        <stop offset="1" stop-color="#ffffff" stop-opacity="0"/>
    </radialGradient>
    <path id="path5" fill="url(#radialGradient2)" stroke="none" d="M 509.333008 141.130997 L 562.257019 3.920334 L 586.562988 3.920334 L 639.291016 141.130997 L 612.632996 141.130997 L 574.409973 37.046997 L 536.187012 141.130997 L 509.333008 141.130997 Z M 538.539001 109.181 L 540.304016 87.226898 L 608.517029 87.226898 L 610.281006 109.181 L 538.539001 109.181 Z M 684.629028 142.699005 C 675.219971 142.699005 667.117981 140.542999 660.322998 136.231003 C 653.658997 131.917999 648.432007 125.973 644.642029 118.392998 C 640.982971 110.682999 639.153992 101.796997 639.153992 91.735298 C 639.153992 84.286697 640.198975 77.426201 642.289978 71.153702 C 644.380981 64.881203 647.385986 59.523399 651.307007 55.080399 C 655.22699 50.506699 659.997009 46.978401 665.616028 44.495605 C 671.36499 42.012695 677.833984 40.771301 685.020996 40.771301 C 691.163025 40.771301 696.846985 42.012695 702.075012 44.495605 C 707.432007 46.978401 711.679016 50.2453 714.815979 54.296295 L 714.815979 3.1e-05 L 738.729004 3.1e-05 L 738.729004 141.130997 L 714.815979 141.130997 L 714.815979 128.781998 C 711.809998 132.964005 707.627991 136.362 702.270996 138.975006 C 696.913025 141.457993 691.031982 142.699005 684.629028 142.699005 Z M 689.530029 121.921997 C 693.580994 121.921997 697.23999 121.203003 700.505981 119.765999 C 703.77301 118.328003 706.583008 116.303001 708.934998 113.689003 C 711.286987 110.945 713.051025 107.742996 714.228027 104.084 C 715.533997 100.425003 716.187988 96.308998 716.187988 91.735298 C 716.187988 82.587898 713.77002 75.269997 708.934998 69.781601 C 704.099976 64.293098 697.632019 61.548904 689.530029 61.548904 C 685.609009 61.548904 682.015991 62.267601 678.749023 63.705101 C 675.481995 65.142502 672.671997 67.167999 670.320007 69.781601 C 667.968018 72.395103 666.138 75.596703 664.83197 79.386299 C 663.656006 83.045303 663.067017 87.161598 663.067017 91.735298 C 663.067017 100.883003 665.484985 108.200996 670.320007 113.689003 C 675.155029 119.177002 681.557983 121.921997 689.530029 121.921997 Z M 785.090027 141.130997 L 749.02301 42.339401 L 773.328979 42.339401 L 796.458984 110.749001 L 819.197021 42.339401 L 843.698975 42.339401 L 807.632019 141.130997 L 785.090027 141.130997 Z M 891.377014 142.699005 C 881.968018 142.699005 873.866028 140.542999 867.070984 136.231003 C 860.275024 131.917999 854.982971 125.973 851.192993 118.392998 C 847.533997 110.682999 845.705017 101.796997 845.705017 91.735298 C 845.705017 84.286697 846.75 77.426201 848.841003 71.153702 C 850.932007 64.881203 853.937988 59.523399 857.857971 55.080399 C 861.778015 50.506699 866.547974 46.978401 872.166992 44.495605 C 877.916992 42.012695 884.38501 40.771301 891.572998 40.771301 C 897.453003 40.771301 903.072021 41.947403 908.429993 44.2995 C 913.788025 46.520996 918.099976 49.591995 921.367004 53.512299 L 921.367004 42.339401 L 945.281006 42.339401 L 945.281006 141.130997 L 921.367004 141.130997 L 921.367004 129.565994 C 919.406982 132.311005 916.859009 134.662994 913.721985 136.623001 C 910.71698 138.582993 907.31897 140.085999 903.530029 141.130997 C 899.73999 142.177002 895.689026 142.699005 891.377014 142.699005 Z M 896.080994 121.921997 C 900.132019 121.921997 903.791016 121.203003 907.057983 119.765999 C 910.325012 118.328003 913.133972 116.303001 915.486023 113.689003 C 917.838989 110.945 919.603027 107.742996 920.778992 104.084 C 922.085999 100.425003 922.739014 96.308998 922.739014 91.735298 C 922.739014 82.587898 920.322021 75.269997 915.486023 69.781601 C 910.651001 64.293098 904.182983 61.548904 896.080994 61.548904 C 892.161011 61.548904 888.567017 62.267601 885.299988 63.705101 C 882.03302 65.142502 879.223999 67.233398 876.870972 69.9776 C 874.518982 72.591103 872.690002 75.727402 871.382996 79.386299 C 870.20697 83.045303 869.619019 87.161598 869.619019 91.735298 C 869.619019 100.751999 872.036011 108.07 876.870972 113.689003 C 881.705994 119.177002 888.109985 121.921997 896.080994 121.921997 Z M 965.572021 141.130997 L 965.572021 42.339401 L 989.68103 42.339401 L 989.68103 57.628601 C 992.426025 52.270798 996.47699 48.154495 1001.830017 45.279602 C 1007.190002 42.274002 1013.400024 40.771301 1020.460022 40.771301 C 1027.900024 40.771301 1034.369995 42.4701 1039.859985 45.867699 C 1045.349976 49.134598 1049.599976 53.708298 1052.599976 59.588799 C 1055.609985 65.4692 1057.109985 72.264397 1057.109985 79.974403 L 1057.109985 141.130997 L 1033.199951 141.130997 L 1033.199951 85.070801 C 1033.199951 78.275597 1031.300049 72.787102 1027.51001 68.605499 C 1023.719971 64.293098 1018.690002 62.137001 1012.419983 62.137001 C 1007.97998 62.137001 1004.059998 63.247696 1000.659973 65.4692 C 997.260986 67.560097 994.58197 70.500298 992.622009 74.289902 C 990.661987 78.079597 989.68103 82.391899 989.68103 87.226898 L 989.68103 141.130997 L 965.572021 141.130997 Z M 1120.800049 142.699005 C 1110.609985 142.699005 1101.719971 140.412994 1094.150024 135.839005 C 1086.699951 131.264999 1080.949951 125.123001 1076.900024 117.413002 C 1072.849976 109.703003 1070.819946 101.143997 1070.819946 91.735298 C 1070.819946 84.678703 1071.930054 78.079597 1074.150024 71.937698 C 1076.5 65.795898 1079.900024 60.372803 1084.339966 55.668396 C 1088.790039 50.964096 1094.079956 47.305099 1100.219971 44.691605 C 1106.359985 42.078003 1113.219971 40.771301 1120.800049 40.771301 C 1129.170044 40.771301 1136.810059 42.339401 1143.73999 45.475601 C 1150.660034 48.6119 1156.280029 52.989601 1160.589966 58.608704 C 1165.040039 64.097099 1167.589966 70.696297 1168.23999 78.406197 L 1144.130005 78.406197 C 1143.609985 75.139297 1142.22998 72.264397 1140.01001 69.781601 C 1137.920044 67.167999 1135.23999 65.142502 1131.97998 63.705101 C 1128.839966 62.267601 1125.380005 61.548904 1121.589966 61.548904 C 1115.969971 61.548904 1111.199951 62.921005 1107.280029 65.665199 C 1103.48999 68.278801 1100.609985 71.807098 1098.650024 76.250099 C 1096.689941 80.6931 1095.709961 85.854797 1095.709961 91.735298 C 1095.709961 97.4851 1096.689941 102.647003 1098.650024 107.221001 C 1100.73999 111.664001 1103.680054 115.257004 1107.469971 118.000999 C 1111.390015 120.614998 1116.160034 121.921997 1121.780029 121.921997 C 1127.530029 121.921997 1132.430054 120.418999 1136.47998 117.413002 C 1140.540039 114.407997 1143.209961 110.553001 1144.52002 105.848 L 1168.630005 105.848 C 1167.719971 112.904999 1165.040039 119.242996 1160.589966 124.862 C 1156.280029 130.350006 1150.72998 134.727997 1143.930054 137.994995 C 1137.140015 141.130997 1129.430054 142.699005 1120.800049 142.699005 Z M 1226.569946 142.699005 C 1218.599976 142.699005 1211.469971 141.261993 1205.199951 138.386993 C 1198.930054 135.511993 1193.640015 131.656998 1189.319946 126.821999 C 1185.140015 121.856003 1181.939941 116.367996 1179.719971 110.357002 C 1177.5 104.214996 1176.390015 97.877098 1176.390015 91.3433 C 1176.390015 84.809402 1177.369995 78.536903 1179.329956 72.525803 C 1181.420044 66.514603 1184.48999 61.156898 1188.540039 56.452499 C 1192.589966 51.6175 1197.619995 47.827805 1203.630005 45.083603 C 1209.650024 42.208694 1216.699951 40.771301 1224.800049 40.771301 C 1233.040039 40.771301 1240.160034 42.143402 1246.170044 44.887604 C 1252.180054 47.501099 1257.150024 51.160095 1261.069946 55.864502 C 1264.98999 60.438202 1267.859985 65.534599 1269.689941 71.153702 C 1271.650024 76.772797 1272.630005 82.522598 1272.630005 88.403 C 1272.630005 90.101799 1272.569946 91.669998 1272.439941 93.107399 C 1272.439941 94.544899 1272.369995 95.786301 1272.23999 96.831703 L 1190.300049 96.831703 L 1190.300049 80.366402 L 1248.719971 80.366402 C 1248.189941 74.093903 1245.839966 68.997498 1241.660034 65.077202 C 1237.609985 61.026199 1231.98999 59.000702 1224.800049 59.000702 C 1220.75 59.000702 1217.089966 59.719398 1213.829956 61.156898 C 1210.689941 62.4636 1208.01001 64.489098 1205.790039 67.233398 C 1203.699951 69.846901 1202.069946 73.179199 1200.890015 77.230202 C 1199.839966 81.150497 1199.319946 85.724197 1199.319946 90.951202 C 1199.319946 97.354401 1200.430054 102.973999 1202.650024 107.808998 C 1204.880005 112.513 1208.01001 116.171997 1212.060059 118.785004 C 1216.109985 121.399002 1220.949951 122.706001 1226.569946 122.706001 C 1232.839966 122.706001 1237.939941 121.463997 1241.859985 118.981003 C 1245.780029 116.499001 1248.329956 112.904999 1249.5 108.200996 L 1273.02002 108.200996 C 1271.97998 115.125999 1269.300049 121.203003 1264.98999 126.43 C 1260.670044 131.526001 1255.25 135.511993 1248.719971 138.386993 C 1242.180054 141.261993 1234.800049 142.699005 1226.569946 142.699005 Z M 1327.829956 142.699005 C 1318.420044 142.699005 1310.319946 140.542999 1303.52002 136.231003 C 1296.859985 131.917999 1291.630005 125.973 1287.839966 118.392998 C 1284.180054 110.682999 1282.349976 101.796997 1282.349976 91.735298 C 1282.349976 84.286697 1283.400024 77.426201 1285.48999 71.153702 C 1287.579956 64.881203 1290.589966 59.523399 1294.51001 55.080399 C 1298.430054 50.506699 1303.199951 46.978401 1308.810059 44.495605 C 1314.560059 42.012695 1321.030029 40.771301 1328.219971 40.771301 C 1334.359985 40.771301 1340.050049 42.012695 1345.27002 44.495605 C 1350.630005 46.978401 1354.880005 50.2453 1358.01001 54.296295 L 1358.01001 3.1e-05 L 1381.930054 3.1e-05 L 1381.930054 141.130997 L 1358.01001 141.130997 L 1358.01001 128.781998 C 1355.01001 132.964005 1350.829956 136.362 1345.469971 138.975006 C 1340.109985 141.457993 1334.22998 142.699005 1327.829956 142.699005 Z M 1332.72998 121.921997 C 1336.780029 121.921997 1340.439941 121.203003 1343.709961 119.765999 C 1346.969971 118.328003 1349.780029 116.303001 1352.130005 113.689003 C 1354.48999 110.945 1356.25 107.742996 1357.430054 104.084 C 1358.72998 100.425003 1359.390015 96.308998 1359.390015 91.735298 C 1359.390015 82.587898 1356.969971 75.269997 1352.130005 69.781601 C 1347.300049 64.293098 1340.829956 61.548904 1332.72998 61.548904 C 1328.810059 61.548904 1325.209961 62.267601 1321.949951 63.705101 C 1318.680054 65.142502 1315.869995 67.167999 1313.52002 69.781601 C 1311.170044 72.395103 1309.339966 75.596703 1308.030029 79.386299 C 1306.849976 83.045303 1306.27002 87.161598 1306.27002 91.735298 C 1306.27002 100.883003 1308.680054 108.200996 1313.52002 113.689003 C 1318.349976 119.177002 1324.76001 121.921997 1332.72998 121.921997 Z"/>
    <path id="-" fill="#ffffff" fill-rule="evenodd" stroke="none" d="M 2.291794 43.696205 C 95.908859 43.469627 99.569092 43.511314 101.766846 44.158699 C 103.34745 44.624275 104.761742 45.417542 106.020279 46.544449 C 107.057274 47.472969 108.348274 49.115257 108.889244 50.193962 C 109.872765 52.155235 109.872765 52.155235 109.779884 73.912521 C 109.686951 95.6698 109.686951 95.6698 108.732018 97.747116 C 108.086678 99.150986 107.099113 100.358139 105.68576 101.470749 C 104.535553 102.376221 102.662933 103.392593 101.524406 103.729324 C 99.971077 104.188736 97.414513 104.34156 91.282722 104.34156 C 84.90934 104.34156 83.011208 104.461456 82.657043 104.886475 C 82.310822 105.301956 82.419174 105.739471 83.113258 106.728363 C 83.613953 107.441696 91.092812 114.985176 99.732994 123.491638 C 112.524727 136.085449 115.4179 139.129883 115.310616 139.883636 C 115.178795 140.809357 115.178795 140.809357 100.053062 140.915039 C 84.927299 141.020752 84.927299 141.020752 82.796555 140.04924 C 81.042908 139.24968 77.70472 136.128693 63.934811 122.414833 C 54.732765 113.250214 46.748638 105.435547 46.192307 105.048859 C 45.305965 104.432838 44.094246 104.345535 36.403358 104.343689 C 27.790564 104.341583 27.614178 104.35836 26.996119 105.237137 C 26.458784 106.001129 26.36657 107.969467 26.368254 118.635513 C 26.370016 129.538712 26.279406 131.391739 25.660172 133.118881 C 25.269642 134.208176 24.151258 135.985184 23.174896 137.067795 C 22.198534 138.150406 20.650877 139.435135 19.735693 139.92276 C 18.219578 140.73056 17.388124 140.820938 10.380053 140.939682 C 6.149638 141.011368 2.553634 140.935806 2.388952 140.77179 C 2.224243 140.607758 2.088594 129.034561 2.087485 115.053551 C 2.085654 91.84761 2.147327 89.458069 2.795553 87.618752 C 3.228569 86.390083 4.216033 84.891434 5.326387 83.777786 C 6.3278 82.773392 8.003987 81.552216 9.05124 81.064072 C 10.955358 80.176559 10.955358 80.176559 47.772804 80.06955 C 77.417336 79.983383 84.692688 79.860016 85.116165 79.436333 C 85.496483 79.055756 85.630005 77.515701 85.598557 73.872452 C 85.569969 70.563927 85.389488 68.669891 85.072739 68.354279 C 84.709282 67.992195 75.445854 67.824104 47.487236 67.672279 C 10.384048 67.470802 10.384048 67.470802 8.360981 66.30056 C 7.248302 65.656921 5.690409 64.462212 4.899011 63.64566 C 3.940298 62.656525 3.196103 61.298813 2.669016 59.577461 C 1.975711 57.313087 1.903524 56.172379 2.084866 50.345039 L 2.291794 43.696205 Z M 192.902893 140.998215 C 143.906311 140.985641 143.906311 140.985641 141.93364 140.023239 C 140.848618 139.493927 139.270203 138.38916 138.426041 137.568161 C 137.581787 136.747177 136.384918 134.96463 135.766266 133.606918 C 134.665176 131.19046 134.643509 130.998367 134.740341 124.508728 C 134.799988 120.513077 135.012436 117.671371 135.275055 117.356201 C 135.627777 116.932945 144.940079 116.833282 184.136246 116.833282 C 232.013718 116.833282 232.589722 116.842712 235.037796 117.666061 C 236.926178 118.301178 237.959961 118.973808 239.393387 120.499992 C 240.427155 121.600601 241.646805 123.342834 242.10376 124.37162 C 242.805222 125.950958 242.958176 127.276855 243.086456 132.889786 C 243.218033 138.648285 243.148819 139.636002 242.568924 140.274155 C 241.927383 140.980164 239.859726 141.010315 192.902893 140.998215 Z M 268.122467 43.696205 C 280.643738 43.49855 282.568512 43.613213 284.382568 44.138405 C 285.961975 44.595665 287.246002 45.337494 288.523956 46.530998 C 289.763123 47.688271 290.678528 49.039207 291.289642 50.612556 C 292.203186 52.964272 292.203186 52.964272 292.301178 84.32695 C 292.396576 114.848328 292.420319 115.704971 293.184631 116.261475 C 293.846588 116.743393 298.811157 116.833282 324.764648 116.833282 C 348.176636 116.833282 355.67569 116.949211 356.04483 117.316849 C 356.383392 117.653992 356.530243 119.819275 356.53009 124.469376 C 356.529694 131.046661 356.51297 131.173569 355.312439 133.700821 C 354.643036 135.110168 353.477997 136.878052 352.723541 137.629425 C 351.969055 138.380798 350.377594 139.44722 349.18692 139.999252 C 347.021973 141.00296 347.021973 141.00296 312.427582 140.978851 C 282.988586 140.958298 277.540894 140.865295 275.87204 140.354736 C 274.482239 139.929565 273.230743 139.086639 271.57605 137.461365 C 270.119171 136.030319 268.989624 134.486069 268.572113 133.354614 C 267.962341 131.702148 267.91275 127.645279 268.012756 87.618752 L 268.122467 43.696205 Z M 429.167084 140.884781 C 396.816132 140.946915 389.647552 140.863251 388.413452 140.408981 C 387.589813 140.105835 386.259216 139.413391 385.456665 138.870239 C 384.654022 138.327072 383.482239 137.181198 382.8526 136.323822 C 382.223053 135.466461 381.414185 133.897293 381.055237 132.836823 C 380.470764 131.110382 380.402527 126.387657 380.402527 87.685257 C 380.402527 54.604317 380.516479 44.348366 380.888062 43.978302 C 381.226227 43.64151 383.387329 43.494728 388.00766 43.494728 C 392.924683 43.494728 395.225189 43.663651 396.895905 44.147354 C 398.55191 44.626808 399.64621 45.295067 401.020203 46.665855 C 402.267914 47.910713 403.188568 49.336418 403.786255 50.949471 C 404.678864 53.358376 404.682526 53.4813 404.781952 84.4758 C 404.861664 109.35334 404.986938 115.689278 405.40744 116.108093 C 405.824066 116.523132 410.813599 116.654709 429.452026 116.742142 C 445.802979 116.818855 453.103271 116.720657 453.405273 116.419952 C 453.705536 116.121124 453.874786 106.272415 453.95285 84.560043 C 454.063629 53.767975 454.083038 53.086143 454.91626 50.832191 C 455.486633 49.289146 456.394531 47.921036 457.673553 46.676971 C 458.829926 45.5522 460.350189 44.560959 461.536407 44.158485 C 463.057037 43.642487 465.055084 43.494728 470.513672 43.494728 C 476.827393 43.494728 477.562469 43.565811 477.806824 44.199913 C 477.95639 44.587769 478.036133 64.398232 477.9841 88.22319 C 477.899597 126.895309 477.819489 131.731598 477.237671 133.315765 C 476.879272 134.291718 475.954895 135.78595 475.183502 136.636276 C 474.41217 137.486603 472.575531 138.773376 471.102173 139.495819 C 468.423279 140.809357 468.423279 140.809357 429.167084 140.884781 Z M 135.004822 103.737122 C 134.812576 83.631599 134.902908 81.10022 135.317886 80.686935 C 135.747894 80.258682 144.661407 80.179741 183.169907 80.263077 L 230.493484 80.365486 L 230.601334 91.849823 C 230.699371 102.289047 230.646332 103.380005 230.018219 103.83786 C 229.567032 104.166763 228.160645 104.307533 225.965408 104.2435 C 224.116409 104.189575 202.89386 104.053589 178.804214 103.941284 L 135.004822 103.737122 Z M 242.631851 43.696205 C 242.631851 59.224281 242.631851 59.224281 241.459045 61.453522 C 240.813995 62.679604 239.630493 64.221405 238.829071 64.879784 C 238.027603 65.538155 236.409149 66.435799 235.232498 66.874557 C 233.143951 67.65332 231.936584 67.672279 184.433334 67.672279 C 147.126343 67.672279 135.660324 67.559471 135.288071 67.188728 C 134.949356 66.851433 134.802521 64.679482 134.802521 60.007256 C 134.802521 54.799698 134.953384 52.867455 135.480591 51.323494 C 135.942017 49.972267 136.87944 48.619759 138.414032 47.09124 C 139.752838 45.757736 141.409363 44.567047 142.490158 44.161331 C 144.171707 43.530098 148.069321 43.486168 193.47139 43.587013 L 242.631851 43.696205 Z"/>
</svg>
