<?xml version="1.0" encoding="UTF-8"?>
<!-- Generated by Pixelmator Pro 3.6.14 -->
<svg width="672" height="142" viewBox="0 0 672 142" xmlns="http://www.w3.org/2000/svg">
    <path id="path1" fill="#ffffff" fill-rule="evenodd" stroke="none" d="M 191.562225 20.898369 C 286.100281 20.668709 289.796509 20.710953 292.0159 21.367134 C 293.612061 21.839043 295.040283 22.643105 296.311188 23.785332 C 297.358368 24.726471 298.662079 26.391083 299.208374 27.484451 C 300.201569 29.472397 300.201569 29.472397 300.107758 51.525459 C 300.013916 73.578529 300.013916 73.578529 299.049591 75.684082 C 298.397888 77.107033 297.400635 78.330597 295.973358 79.458336 C 294.811829 80.376122 292.920807 81.406311 291.771057 81.74762 C 290.202454 82.213272 287.620758 82.368164 281.42865 82.368164 C 274.992554 82.368164 273.075745 82.489708 272.718109 82.920502 C 272.368469 83.341629 272.477875 83.78508 273.178802 84.78743 C 273.684418 85.510452 281.236847 93.156487 289.962036 101.778595 C 302.879639 114.543602 305.80127 117.629433 305.692902 118.39344 C 305.559784 119.331734 305.559784 119.331734 290.285248 119.438866 C 275.010681 119.546005 275.010681 119.546005 272.858978 118.561295 C 271.088074 117.75087 267.717041 114.58744 253.811676 100.687149 C 244.519089 91.397949 236.456421 83.477028 235.894608 83.085098 C 234.999557 82.460693 233.775925 82.372208 226.009384 82.370331 C 217.311859 82.368202 217.133728 82.385208 216.509583 83.275917 C 215.966965 84.050308 215.873825 86.045395 215.875549 96.856453 C 215.877319 107.907875 215.785812 109.786095 215.160507 111.536713 C 214.766129 112.640816 213.636734 114.441986 212.650772 115.539314 C 211.664795 116.636642 210.101913 117.938835 209.177719 118.43309 C 207.646698 119.251877 206.807068 119.343483 199.730057 119.463844 C 195.458023 119.536499 191.82663 119.459923 191.660324 119.293663 C 191.494003 119.127403 191.357025 107.396866 191.355896 93.225792 C 191.35405 69.704369 191.416336 67.282349 192.070938 65.418022 C 192.508209 64.172653 193.505386 62.653625 194.626678 61.524841 C 195.637924 60.50679 197.330612 59.269012 198.388168 58.774239 C 200.31102 57.874649 200.31102 57.874649 237.490677 57.76619 C 267.426819 57.678856 274.773773 57.55381 275.201416 57.124367 C 275.585449 56.738617 275.720306 55.177628 275.688538 51.48484 C 275.659668 48.13134 275.477417 46.211555 275.157562 45.891663 C 274.790527 45.524643 265.435974 45.354279 237.202286 45.200386 C 199.734085 44.996162 199.734085 44.996162 197.691116 43.810028 C 196.56749 43.157631 194.994263 41.946678 194.195084 41.119034 C 193.226944 40.11644 192.475418 38.740273 191.943146 36.995529 C 191.243027 34.700363 191.170135 33.544151 191.353256 27.637581 L 191.562225 20.898369 Z M 384.048523 119.523178 C 334.569916 119.510406 334.569916 119.510406 332.57782 118.534935 C 331.482178 117.998428 329.888214 116.878632 329.035736 116.046486 C 328.183197 115.21434 326.974548 113.407547 326.349792 112.031387 C 325.237885 109.582077 325.216003 109.38736 325.313782 102.809509 C 325.374023 98.759537 325.588562 95.879204 325.85376 95.559746 C 326.209961 95.130737 335.613861 95.029724 375.195648 95.029724 C 423.544128 95.029724 424.125793 95.039276 426.597931 95.873817 C 428.504913 96.51757 429.548889 97.199341 430.996399 98.746277 C 432.040344 99.861847 433.271973 101.627769 433.733429 102.670532 C 434.441803 104.271347 434.596252 105.615265 434.7258 111.304504 C 434.858673 117.141289 434.788757 118.142441 434.203186 118.789261 C 433.555298 119.504875 431.467316 119.535423 384.048523 119.523178 Z M 460.008118 20.898369 C 472.652557 20.698021 474.596313 20.81424 476.428192 21.346581 C 478.023132 21.810059 479.319763 22.561966 480.610291 23.77169 C 481.861664 24.944702 482.786102 26.314003 483.403198 27.908745 C 484.325745 30.292427 484.325745 30.292427 484.424683 62.081474 C 484.521057 93.017784 484.544983 93.886078 485.316864 94.450134 C 485.985321 94.938614 490.998688 95.029724 517.20752 95.029724 C 540.849792 95.029724 548.422668 95.147217 548.795471 95.519859 C 549.137329 95.861588 549.285645 98.056305 549.285461 102.769623 C 549.285095 109.436325 549.268188 109.564957 548.055847 112.126564 C 547.379883 113.555084 546.203369 115.347 545.441528 116.108582 C 544.679565 116.870163 543.072449 117.95108 541.870056 118.51062 C 539.683838 119.527977 539.683838 119.527977 504.749084 119.503532 C 475.020447 119.482704 469.519196 119.388443 467.833923 118.870949 C 466.43042 118.439987 465.166595 117.585602 463.495636 115.938232 C 462.024445 114.487724 460.883789 112.922485 460.462189 111.77565 C 459.846405 110.100716 459.796326 105.988708 459.897278 65.418022 L 460.008118 20.898369 Z M 622.637085 119.408188 C 589.967834 119.471176 582.728699 119.386368 581.482544 118.925926 C 580.650757 118.618652 579.307068 117.916794 578.496582 117.366264 C 577.686096 116.81572 576.502808 115.654251 575.866943 114.785233 C 575.231201 113.916199 574.414429 112.325714 574.05188 111.250824 C 573.46167 109.500908 573.392761 104.713989 573.392761 65.485435 C 573.392761 31.954773 573.507813 21.559387 573.883057 21.184288 C 574.224609 20.842926 576.406982 20.694153 581.072754 20.694153 C 586.038086 20.694153 588.361267 20.865364 590.048401 21.355652 C 591.720703 21.841621 592.825806 22.518959 594.213318 23.908386 C 595.473267 25.170158 596.402954 26.615242 597.006531 28.250237 C 597.907898 30.691887 597.911621 30.816483 598.012024 62.232346 C 598.092529 87.44809 598.219055 93.870155 598.643616 94.294662 C 599.064392 94.715347 604.103027 94.848724 622.924805 94.937332 C 639.436646 95.015099 646.808716 94.915565 647.113708 94.610764 C 647.41687 94.307877 647.58783 84.325279 647.666687 62.317734 C 647.778564 31.107056 647.798157 30.415955 648.639526 28.131363 C 649.215515 26.567329 650.132324 25.180626 651.42395 23.919655 C 652.591736 22.779594 654.126953 21.774872 655.324829 21.36692 C 656.860413 20.84391 658.878113 20.694153 664.390442 20.694153 C 670.766235 20.694153 671.508545 20.766197 671.75531 21.40892 C 671.906372 21.802048 671.986877 41.881828 671.934265 66.030678 C 671.848999 105.228531 671.768127 110.130585 671.180542 111.736275 C 670.818665 112.725494 669.885132 114.240051 669.106201 115.101929 C 668.327271 115.963806 666.472534 117.268097 664.98468 118.000359 C 662.27948 119.331734 662.27948 119.331734 622.637085 119.408188 Z M 325.580872 81.755508 C 325.386719 61.376663 325.477966 58.810867 325.897034 58.391975 C 326.331238 57.957893 335.332458 57.877876 374.219788 57.962349 L 422.008911 58.066154 L 422.117859 69.706619 C 422.216827 80.287758 422.163269 81.393539 421.528992 81.85762 C 421.073364 82.19101 419.653168 82.333679 417.43631 82.268784 C 415.569122 82.214127 394.137787 82.076279 369.811127 81.962456 L 325.580872 81.755508 Z M 434.266724 20.898369 C 434.266724 36.637543 434.266724 36.637543 433.082367 38.897079 C 432.430969 40.139824 431.235809 41.702591 430.426514 42.369926 C 429.617188 43.037239 427.982788 43.947083 426.794556 44.391815 C 424.685455 45.181175 423.466217 45.200386 375.495636 45.200386 C 337.821655 45.200386 326.242798 45.086044 325.866882 44.710258 C 325.524841 44.368385 325.376556 42.166901 325.376556 37.431152 C 325.376556 32.152809 325.528931 30.19429 326.06131 28.629341 C 326.527283 27.259743 327.473938 25.888847 329.023621 24.339554 C 330.37558 22.987923 332.048401 21.781044 333.139832 21.369812 C 334.837921 20.729996 338.773895 20.685478 384.62262 20.787682 L 434.266724 20.898369 Z"/>
    <path id="path2" fill="#ffffff" fill-rule="evenodd" stroke="none" d="M 71.027161 0 C 110.254372 0 142.054321 31.787788 142.054321 71 C 142.054321 110.212219 110.254372 142 71.027161 142 C 31.799936 142 0 110.212219 0 71 C 0 31.787788 31.799936 0 71.027161 0 Z M 72.875702 100.063965 C 74.148796 100.05748 76.533325 100.045334 79.150543 100.051331 C 83.126205 100.060417 86.645653 100.006355 87.458611 99.923706 C 88.234367 99.844818 89.39003 99.653709 90.026756 99.498993 C 90.663475 99.344284 91.644104 99.050392 92.205917 98.845886 C 92.767731 98.641403 93.74836 98.211609 94.385086 97.890793 C 95.021805 97.569977 95.910492 97.06041 96.359955 96.758415 C 96.80941 96.456429 97.650108 95.817795 98.22818 95.339226 C 98.806274 94.860672 99.611443 94.089813 100.017471 93.626221 C 100.423508 93.162621 100.996895 92.47699 101.291687 92.102585 C 101.586479 91.728188 102.153526 90.880386 102.551796 90.218597 C 102.950066 89.556808 103.540031 88.362122 103.862801 87.563759 C 104.18557 86.765381 104.575516 85.63739 104.729332 85.057114 C 104.883141 84.476837 105.168587 83.404686 105.36364 82.674561 C 105.558693 81.944443 105.868927 80.765045 106.05307 80.053696 C 106.237183 79.342331 106.537163 78.193604 106.719666 77.500961 C 106.902161 76.808311 107.21125 75.644279 107.406555 74.914192 C 107.60186 74.184105 107.90258 73.03537 108.07486 72.361458 C 108.247154 71.687546 108.583885 70.400955 108.823181 69.502396 C 109.062462 68.603836 109.443008 67.164085 109.6688 66.302971 C 109.894608 65.441856 110.278664 63.971474 110.522278 63.035477 C 110.765892 62.099472 111.163353 60.598465 111.405502 59.699905 C 111.647659 58.801346 112.05748 57.239075 112.316223 56.228188 C 112.574974 55.2173 112.992447 53.624397 113.243958 52.6884 C 113.495453 51.752396 113.928337 50.128853 114.205887 49.080536 C 114.483452 48.032219 114.950752 46.255516 115.244293 45.132309 C 115.537872 44.009109 115.997261 42.263046 116.265167 41.252159 C 116.533058 40.241272 117.028069 38.372673 117.365135 37.099709 C 117.702225 35.826752 118.02681 34.541031 118.086464 34.242561 C 118.104233 34.153618 118.128464 34.057892 118.152557 33.962708 C 118.215965 33.712189 118.278435 33.465393 118.219704 33.355705 C 118.119354 33.168266 117.893417 33.175583 116.361275 33.225166 C 115.923447 33.239334 115.37896 33.25695 114.700256 33.274467 C 112.927971 33.320221 109.344528 33.39624 106.737091 33.443405 C 105.466995 33.466377 104.524689 33.474625 103.822556 33.480766 C 102.26709 33.49437 101.89035 33.497665 101.739761 33.627998 C 101.567642 33.776985 101.153877 35.194237 100.447281 37.780441 C 99.874443 39.87709 99.107964 42.695297 98.743996 44.043144 C 98.380028 45.390991 97.682259 47.949608 97.193398 49.728958 C 96.704536 51.508324 96.053078 53.897675 95.745728 55.038643 C 95.43837 56.179611 94.908958 58.124023 94.56926 59.359543 C 94.229568 60.595055 93.687881 62.555557 93.365547 63.716202 C 93.04319 64.876846 92.465363 66.990517 92.081467 68.413231 C 91.697571 69.835945 91.137314 71.888351 90.836449 72.974113 C 90.535583 74.059875 90.084862 75.714043 89.834839 76.650047 C 89.584816 77.586052 89.094383 79.393387 88.744995 80.666351 C 88.395599 81.939308 87.920502 83.593475 87.689217 84.342285 C 87.457939 85.09108 87.091301 86.224487 86.874474 86.860977 C 86.657654 87.497467 86.233856 88.50518 85.932709 89.100372 C 85.631561 89.695541 85.056664 90.675797 84.655136 91.278702 C 84.253616 91.881599 83.421074 92.913147 82.805054 93.57103 C 82.189026 94.228897 81.036537 95.253868 80.243973 95.84874 C 79.432472 96.457809 78.145721 97.253281 77.298508 97.669601 C 76.471077 98.076233 75.242485 98.573616 74.568298 98.77491 C 73.894119 98.976219 73.136948 99.258049 72.72963 99.386383 C 72.322319 99.51474 71.122803 99.848335 71.095261 99.930969 C 71.089035 99.949631 71.063751 99.964554 71.042694 99.97699 C 70.970505 100.0196 70.947922 100.032928 71.912445 100.067116 C 71.955742 100.068649 72.303429 100.066879 72.875702 100.063965 Z M 26.422375 99.794823 C 26.548023 99.92041 31.348415 99.930389 46.640942 99.928459 C 63.686325 99.926315 66.698288 99.896797 67.690315 99.722229 C 68.327034 99.610184 69.303513 99.394012 69.86026 99.241829 C 70.417 99.089661 71.334717 98.772812 71.899643 98.537735 C 72.464554 98.302658 73.401756 97.843292 73.982323 97.516922 C 74.562881 97.190567 75.514473 96.568146 76.09697 96.133743 C 76.679466 95.699348 77.711731 94.766853 78.390892 94.061523 C 79.070045 93.356201 79.996918 92.22728 80.450607 91.552826 C 80.904289 90.878342 81.497917 89.885002 81.76976 89.345406 C 82.041611 88.805786 82.444801 87.909393 82.665756 87.353394 C 82.886696 86.797409 83.173904 85.943237 83.303978 85.455261 C 83.349075 85.286087 83.391052 85.141716 83.427162 85.017517 C 83.548195 84.601242 83.603333 84.411591 83.489258 84.274208 C 83.364098 84.123459 81.645088 84.124565 69.002975 84.132721 C 65.325142 84.135094 60.722843 84.138062 54.966381 84.138062 C 33.201317 84.138062 26.548439 84.148201 26.422375 84.274208 C 26.353188 84.343369 26.361712 84.982758 26.382483 86.540787 C 26.398697 87.757011 26.422375 89.533012 26.422375 92.034515 C 26.422375 94.536018 26.398697 96.312012 26.382483 97.528236 C 26.361712 99.086258 26.353188 99.725655 26.422375 99.794823 Z"/>
</svg>
