<?xml version="1.0" encoding="UTF-8"?>
<!-- Generated by Pixelmator Pro 3.6.14 -->
<svg width="708" height="142" viewBox="0 0 708 142" xmlns="http://www.w3.org/2000/svg">
    <path id="path1" fill="#ffffff" fill-rule="evenodd" stroke="none" d="M 108.101387 138.947296 C 100.331772 138.929504 93.563416 138.989777 93.277481 138.979645 C 90.725822 138.889191 91.547401 138.870026 91.603851 138.70076 C 91.660271 138.531494 94.11692 137.84816 94.951111 137.585236 C 95.785301 137.322357 97.336029 136.745071 98.716774 136.332703 C 100.097527 135.92038 102.613739 134.90155 104.308342 134.068619 C 106.043465 133.215805 108.678772 131.58638 110.340752 130.338776 C 111.963959 129.120255 114.324303 127.020721 115.585945 125.673141 C 116.847588 124.325546 118.552658 122.21254 119.374985 120.97757 C 120.197327 119.742599 121.374748 117.73465 121.991493 116.515503 C 122.608261 115.296326 123.476219 113.23214 123.92028 111.92836 C 124.364342 110.624588 125.115234 108.302933 125.588905 106.769096 C 126.062576 105.23526 127.035591 101.846878 127.751167 99.239365 C 128.466736 96.631851 129.471161 92.929726 129.983215 91.012428 C 130.49527 89.095139 131.418365 85.706749 132.034546 83.482697 C 132.650742 81.258636 133.798157 77.054512 134.584381 74.140244 C 135.370621 71.225967 136.554031 66.896362 137.214233 64.518913 C 137.87439 62.141457 138.98378 58.125595 139.679489 55.59478 C 140.375198 53.063965 141.459457 49.081055 142.088943 46.743912 C 142.718384 44.406769 144.052612 39.512451 145.053818 35.867615 C 146.055023 32.222824 147.48407 26.981781 148.229507 24.220871 C 148.97493 21.459961 150.544708 15.68718 151.717896 11.392441 C 153.165024 6.094894 154.012421 3.191818 154.364944 2.886627 C 154.812576 2.499146 156.23587 2.659821 164.599655 2.508499 C 169.939789 2.411896 177.278809 2.25618 180.908508 2.16246 C 187.162766 2.001022 187.852234 1.835205 188.11647 2.328857 C 188.282455 2.638931 187.975769 3.483765 187.843582 4.145493 C 187.72142 4.756866 187.056656 7.390518 186.366287 9.998032 C 185.675964 12.605545 184.662155 16.433167 184.11351 18.503845 C 183.564819 20.574539 182.623993 24.151154 182.022736 26.451904 C 181.421539 28.752655 180.464493 32.392044 179.896027 34.539398 C 179.327606 36.686752 178.44104 40.012405 177.925964 41.929703 C 177.410858 43.847 176.555862 47.109863 176.02594 49.180557 C 175.496017 51.251251 174.656677 54.451378 174.160736 56.291977 C 173.664795 58.132568 172.8508 61.207222 172.351868 63.124512 C 171.852921 65.041809 171.066376 68.053719 170.603897 69.817612 C 170.141464 71.581512 169.362091 74.530678 168.872055 76.371277 C 168.381973 78.211868 167.692322 80.847298 167.339462 82.227737 C 166.986633 83.608177 166.370728 85.96122 165.970749 87.456718 C 165.570755 88.952225 164.937729 91.336617 164.563965 92.755424 C 164.190201 94.174232 163.575836 96.527275 163.198761 97.984406 C 162.821625 99.441544 162.186249 101.857399 161.786774 103.352966 C 161.387299 104.848534 160.802689 107.044708 160.487701 108.233353 C 160.172668 109.421989 159.374054 111.732552 158.713013 113.367935 C 158.051956 115.003288 156.843689 117.450455 156.028015 118.806076 C 155.212357 120.161667 154.05101 121.898293 153.447266 122.665207 C 152.843521 123.432129 151.669205 124.836563 150.837631 125.786194 C 150.006058 126.735817 148.357056 128.314819 147.173096 129.29509 C 145.989182 130.275391 144.267395 131.583557 143.346893 132.202148 C 142.426376 132.82074 140.606308 133.864532 139.302277 134.521698 C 137.998245 135.178864 135.989883 136.059235 134.839264 136.478104 C 133.688644 136.897003 131.680298 137.499023 130.376251 137.815918 C 129.07222 138.132828 126.705391 138.524292 125.116615 138.685883 C 123.45163 138.855179 116.243675 138.965927 108.101387 138.947296 Z M 41.520512 138.695618 C 10.20085 138.69957 0.369472 138.679138 0.112138 138.421875 C -0.140173 138.169586 0.112138 134.213913 0.112138 122.525772 C 0.112138 110.837631 -0.140173 106.88192 0.112138 106.629662 C 0.370323 106.371544 13.995663 106.350777 58.571323 106.350777 C 110.885628 106.350777 116.656311 106.231018 116.987228 106.629662 C 117.290558 106.995041 117.009697 107.540886 116.607773 109.048912 C 116.341362 110.048485 115.753151 111.798149 115.300659 112.937019 C 114.848129 114.07592 114.022385 115.912094 113.46563 117.017433 C 112.908882 118.122734 111.693123 120.157478 110.763962 121.539078 C 109.834785 122.920639 107.936516 125.233093 106.545586 126.677879 C 105.15464 128.12265 103.04052 130.032776 101.847542 130.922577 C 100.654564 131.812393 98.705673 133.087372 97.516663 133.755859 C 96.327652 134.424408 94.408218 135.365341 93.251266 135.846878 C 92.094276 136.328415 90.21476 136.977448 89.074532 137.289139 C 87.934296 137.600876 85.934433 138.043671 84.630402 138.273178 C 82.598701 138.630768 76.430084 138.691223 41.520512 138.695618 Z M 231.291794 44.193428 C 324.908875 43.96685 328.569092 44.00853 330.766846 44.655914 C 332.347443 45.12149 333.761749 45.914757 335.020294 47.041672 C 336.057281 47.970184 337.348267 49.61248 337.889252 50.691177 C 338.872772 52.652458 338.872772 52.652458 338.779877 74.409737 C 338.686951 96.167023 338.686951 96.167023 337.732025 98.244339 C 337.08667 99.648209 336.099121 100.855354 334.68576 101.967972 C 333.535553 102.873444 331.662933 103.889816 330.524414 104.226547 C 328.971069 104.685959 326.41452 104.838776 320.282715 104.838776 C 313.909332 104.838776 312.0112 104.958679 311.657043 105.38369 C 311.310822 105.799179 311.419189 106.236687 312.113251 107.225586 C 312.613953 107.938919 320.092804 115.482399 328.733002 123.988853 C 341.524719 136.582657 344.417908 139.627106 344.310608 140.380859 C 344.178802 141.30658 344.178802 141.30658 329.05307 141.412262 C 313.927307 141.51796 313.927307 141.51796 311.79657 140.546463 C 310.042908 139.746902 306.704712 136.625916 292.934814 122.912056 C 283.732758 113.747437 275.748627 105.932762 275.192291 105.546082 C 274.305969 104.930061 273.094238 104.842758 265.403351 104.840904 C 256.790558 104.838806 256.614166 104.855583 255.996124 105.734352 C 255.458786 106.498352 255.366577 108.466682 255.368256 119.132736 C 255.37001 130.035934 255.279404 131.888962 254.660172 133.616104 C 254.269638 134.705399 253.15126 136.482407 252.174896 137.565018 C 251.198532 138.647629 249.650879 139.932343 248.735687 140.419983 C 247.219574 141.227783 246.388123 141.318161 239.380051 141.436905 C 235.149643 141.508591 231.553635 141.433029 231.388947 141.269012 C 231.224243 141.10498 231.088593 129.531769 231.087479 115.550766 C 231.085648 92.344833 231.147324 89.955292 231.795547 88.115967 C 232.228561 86.887299 233.216034 85.388649 234.326385 84.275009 C 235.327805 83.270615 237.003983 82.049438 238.051239 81.561295 C 239.955353 80.673775 239.955353 80.673775 276.772797 80.566772 C 306.417328 80.480606 313.692688 80.357239 314.11615 79.933556 C 314.49649 79.552979 314.630005 78.012924 314.598572 74.369667 C 314.569977 71.061142 314.389496 69.167107 314.072754 68.851501 C 313.70929 68.489418 304.445862 68.321327 276.487244 68.169495 C 239.384048 67.968018 239.384048 67.968018 237.360977 66.797783 C 236.248306 66.154144 234.690414 64.959435 233.899017 64.142883 C 232.940292 63.153748 232.196106 61.796036 231.669022 60.074684 C 230.975708 57.810303 230.903519 56.669594 231.084869 50.842262 L 231.291794 44.193428 Z M 421.902893 141.495438 C 372.906311 141.482849 372.906311 141.482849 370.933624 140.520447 C 369.848633 139.99115 368.270203 138.886383 367.426025 138.065384 C 366.581787 137.2444 365.384918 135.461853 364.766266 134.104126 C 363.665161 131.687683 363.643494 131.495575 363.740356 125.005943 C 363.799988 121.010292 364.012451 118.168594 364.275055 117.853424 C 364.627777 117.430161 373.940063 117.330505 413.13623 117.330505 C 461.013733 117.330505 461.589722 117.339935 464.037811 118.163284 C 465.926178 118.798401 466.959961 119.471024 468.393402 120.997215 C 469.427155 122.097824 470.64682 123.840057 471.10376 124.868835 C 471.805206 126.448174 471.95816 127.774078 472.086456 133.387009 C 472.218048 139.145508 472.148834 140.133224 471.568939 140.771378 C 470.927368 141.477386 468.859741 141.507538 421.902893 141.495438 Z M 497.122467 44.193428 C 509.643738 43.995773 511.568512 44.110435 513.382568 44.63562 C 514.961975 45.092888 516.245972 45.834717 517.523926 47.028214 C 518.763123 48.185493 519.678528 49.53643 520.289612 51.109779 C 521.203186 53.461487 521.203186 53.461487 521.301208 84.824173 C 521.396606 115.345551 521.420288 116.202194 522.184631 116.758698 C 522.846558 117.240616 527.811157 117.330505 553.764648 117.330505 C 577.176636 117.330505 584.67572 117.446426 585.0448 117.814064 C 585.383362 118.151215 585.530212 120.316498 585.53009 124.966591 C 585.529724 131.543884 585.513 131.670792 584.312439 134.198044 C 583.643005 135.607391 582.477966 137.375275 581.723572 138.126648 C 580.969055 138.878021 579.377625 139.944443 578.18689 140.496475 C 576.021973 141.500183 576.021973 141.500183 541.427551 141.476074 C 511.988586 141.455521 506.540894 141.362518 504.87204 140.851959 C 503.482239 140.426788 502.230743 139.583862 500.57605 137.958588 C 499.119171 136.527542 497.989624 134.983276 497.572113 133.851822 C 496.962341 132.199356 496.91275 128.142502 497.012756 88.115967 L 497.122467 44.193428 Z M 658.167053 141.381989 C 625.816101 141.444138 618.647522 141.360474 617.413452 140.906204 C 616.589783 140.603043 615.259216 139.910614 614.456665 139.367462 C 613.653992 138.824295 612.482239 137.678406 611.8526 136.821045 C 611.223022 135.963684 610.414185 134.394516 610.055237 133.334045 C 609.470764 131.60759 609.402527 126.88488 609.402527 88.182472 C 609.402527 55.10154 609.516479 44.845581 609.888062 44.475525 C 610.226257 44.138733 612.387329 43.991951 617.00769 43.991951 C 621.924683 43.991951 624.22522 44.160866 625.895935 44.644577 C 627.551941 45.124031 628.646179 45.792282 630.020203 47.163078 C 631.267944 48.407928 632.188538 49.833633 632.786255 51.446693 C 633.678833 53.855598 633.682556 53.978523 633.781921 84.973022 C 633.861694 109.850555 633.986938 116.186493 634.40741 116.605309 C 634.824036 117.020355 639.813599 117.151932 658.452026 117.239365 C 674.802979 117.316078 682.103271 117.21788 682.405273 116.917175 C 682.705505 116.618347 682.874756 106.769638 682.952881 85.057266 C 683.06366 54.26519 683.083069 53.583366 683.91626 51.329414 C 684.486633 49.786362 685.394531 48.418259 686.673523 47.174194 C 687.829956 46.049423 689.35022 45.058174 690.536377 44.655701 C 692.057068 44.139702 694.055115 43.991951 699.513672 43.991951 C 705.827393 43.991951 706.5625 44.063026 706.806824 44.697136 C 706.956421 45.084991 707.036133 64.895454 706.98407 88.720413 C 706.899597 127.392532 706.819458 132.228821 706.237671 133.812988 C 705.879272 134.78894 704.954895 136.283173 704.183533 137.133484 C 703.41217 137.983826 701.5755 139.270599 700.102173 139.993042 C 697.423279 141.30658 697.423279 141.30658 658.167053 141.381989 Z M 364.004822 104.234337 C 363.812561 84.128815 363.902924 81.597435 364.317902 81.184158 C 364.747894 80.755905 373.661407 80.676956 412.169891 80.7603 L 459.493469 80.862701 L 459.601318 92.347046 C 459.699371 102.78627 459.646332 103.877228 459.018219 104.335083 C 458.567047 104.663986 457.160645 104.804749 454.965393 104.740715 C 453.116425 104.686798 431.89386 104.550812 407.804199 104.438507 L 364.004822 104.234337 Z M 471.631866 44.193428 C 471.631866 59.721504 471.631866 59.721504 470.459045 61.950737 C 469.813995 63.176819 468.630493 64.71862 467.829071 65.376999 C 467.027588 66.035378 465.409149 66.933022 464.232483 67.37178 C 462.143951 68.150536 460.936584 68.169495 413.433319 68.169495 C 376.126343 68.169495 364.660309 68.056694 364.288086 67.685951 C 363.949341 67.348648 363.802521 65.176704 363.802521 60.504471 C 363.802521 55.296921 363.9534 53.36467 364.480591 51.820717 C 364.942017 50.46949 365.879456 49.116974 367.414032 47.588463 C 368.752838 46.254959 370.409363 45.06427 371.490143 44.658546 C 373.171722 44.027313 377.069336 43.983391 422.471405 44.084236 L 471.631866 44.193428 Z"/>
</svg>
