<?xml version="1.0" encoding="UTF-8"?>
<!-- Generated by Pixelmator Pro 2.4.4 -->
<svg width="30" height="25" viewBox="0 0 30 25" xmlns="http://www.w3.org/2000/svg" xmlns:xlink="http://www.w3.org/1999/xlink">
    <path id="path3" fill="#000000" fill-rule="evenodd" stroke="none" d="M 17.355133 22.994619 C 16.210257 22.991758 15.212918 23.001444 15.170784 22.999813 C 14.794788 22.985285 14.915851 22.982206 14.92417 22.955025 C 14.932486 22.927841 15.294477 22.81809 15.417397 22.775866 C 15.540319 22.733644 15.768826 22.640928 15.972281 22.574697 C 16.175737 22.508476 16.546511 22.344845 16.796215 22.211071 C 17.051891 22.074104 17.440212 21.812408 17.685108 21.612036 C 17.924294 21.416332 18.272097 21.079136 18.458004 20.862703 C 18.643911 20.646273 18.895159 20.30691 19.016331 20.108566 C 19.137506 19.910221 19.311003 19.58773 19.401882 19.391928 C 19.492764 19.196121 19.620659 18.864599 19.686094 18.655203 C 19.751528 18.44581 19.862175 18.072935 19.931971 17.826591 C 20.001768 17.580248 20.145144 17.036053 20.250587 16.617268 C 20.356028 16.198484 20.504032 15.603899 20.579487 15.295969 C 20.654936 14.988039 20.790958 14.443844 20.881756 14.086644 C 20.972553 13.729447 21.14163 13.054239 21.257483 12.586186 C 21.373337 12.118136 21.547716 11.422774 21.644999 11.04094 C 21.742275 10.659106 21.905746 10.014131 22.008261 9.607666 C 22.110777 9.201201 22.270546 8.561518 22.3633 8.186163 C 22.456053 7.810799 22.652653 7.024742 22.800184 6.439358 C 22.947716 5.853979 23.158289 5.012234 23.268131 4.568811 C 23.377974 4.125395 23.609285 3.198248 23.782156 2.508484 C 23.995398 1.657665 24.120262 1.191412 24.172209 1.142397 C 24.238167 1.080164 24.447893 1.10597 25.680325 1.081669 C 26.467207 1.066151 27.548635 1.041143 28.083481 1.026091 C 29.005064 1.000166 29.106663 0.973532 29.145597 1.052816 C 29.170055 1.102613 29.124865 1.2383 29.105389 1.344578 C 29.087385 1.44277 28.989431 1.865749 28.887705 2.284534 C 28.785982 2.70332 28.636593 3.318062 28.55575 3.650625 C 28.474899 3.983191 28.336262 4.557615 28.247667 4.927135 C 28.159081 5.29665 28.018057 5.881155 27.934292 6.226038 C 27.850529 6.570917 27.719893 7.105038 27.643993 7.412964 C 27.568092 7.720896 27.442108 8.244934 27.364021 8.577501 C 27.285934 8.910069 27.162258 9.424028 27.089178 9.71964 C 27.0161 10.015253 26.896152 10.509061 26.822636 10.816991 C 26.749113 11.12492 26.633213 11.608653 26.565065 11.891945 C 26.496925 12.175238 26.382084 12.648895 26.309874 12.944506 C 26.237658 13.240115 26.136038 13.663384 26.084042 13.885091 C 26.032051 14.1068 25.941298 14.484714 25.882357 14.724899 C 25.823418 14.965086 25.730141 15.348037 25.675064 15.575907 C 25.619989 15.803775 25.529461 16.181688 25.473898 16.415714 C 25.418324 16.649742 25.324699 17.037741 25.265835 17.277939 C 25.206972 17.518139 25.120827 17.870857 25.074415 18.061762 C 25.027992 18.252666 24.910315 18.623755 24.812906 18.886408 C 24.7155 19.149057 24.537458 19.542088 24.417267 19.759809 C 24.297075 19.977526 24.125946 20.256439 24.036985 20.379612 C 23.948019 20.502783 23.774981 20.728346 23.652449 20.880861 C 23.529911 21.033377 23.286926 21.286976 23.112467 21.444412 C 22.938013 21.601856 22.684303 21.811954 22.548662 21.911304 C 22.413023 22.010654 22.144833 22.178295 21.952679 22.283838 C 21.760527 22.389383 21.464586 22.530779 21.29504 22.598051 C 21.125494 22.665329 20.829554 22.762014 20.637402 22.81291 C 20.44525 22.863811 20.096489 22.92668 19.862377 22.952633 C 19.617037 22.979824 18.554924 22.99761 17.355133 22.994619 Z M 7.544237 22.954197 C 2.929187 22.954832 1.480504 22.951553 1.442585 22.910234 C 1.405406 22.869715 1.442585 22.234406 1.442585 20.357216 C 1.442585 18.480026 1.405406 17.844711 1.442585 17.804197 C 1.480631 17.762743 3.488366 17.759407 10.056725 17.759407 C 17.765398 17.759407 18.615726 17.740173 18.664488 17.804197 C 18.709185 17.862881 18.667799 17.950546 18.608574 18.192745 C 18.569317 18.353283 18.482643 18.634291 18.415964 18.817202 C 18.349285 19.000116 18.227608 19.295017 18.145571 19.472542 C 18.06353 19.650061 17.884384 19.976852 17.747471 20.198746 C 17.610554 20.420631 17.330837 20.79203 17.125879 21.024071 C 16.920919 21.256113 16.609398 21.562889 16.433609 21.705799 C 16.257818 21.848707 15.970646 22.053474 15.79544 22.160839 C 15.620235 22.268213 15.337401 22.419333 15.166921 22.496672 C 14.996435 22.574009 14.719482 22.678249 14.551467 22.728308 C 14.38345 22.778374 14.088764 22.849489 13.89661 22.886353 C 13.597232 22.943781 12.688268 22.953493 7.544237 22.954197 Z"/>
</svg>
