<?xml version="1.0" encoding="UTF-8"?>
<!-- Generated by Pixelmator Pro 3.6.14 -->
<svg width="1601" height="180" viewBox="0 0 1601 180" xmlns="http://www.w3.org/2000/svg">
    <g id="g1" opacity="0.5">
        <path id="path1" fill="#ffffff" stroke="none" d="M 815.450989 141.042999 C 806.172974 141.042999 797.41803 139.604996 789.184998 136.729996 C 780.952026 133.725006 773.633972 129.347 767.231018 123.597 C 760.958984 117.717003 755.992981 110.399002 752.333984 101.643997 C 748.80603 92.7575 747.041992 82.564697 747.041992 71.065102 C 747.041992 61.656403 748.218018 53.227699 750.570007 45.779099 C 752.921997 38.199905 756.189026 31.600708 760.370972 25.981598 C 764.682983 20.362396 769.713989 15.723404 775.463989 12.064499 C 781.343994 8.274826 787.617004 5.465271 794.281006 3.635788 C 801.075989 1.675629 808.132996 0.695557 815.450989 0.695557 C 826.296997 0.695557 836.163025 2.721054 845.049011 6.772034 C 853.934998 10.822998 861.187988 16.442108 866.807007 23.629395 C 872.426025 30.816605 875.823975 39.114594 877 48.5233 L 849.950012 48.5233 C 849.296021 43.426895 847.335999 38.983902 844.06897 35.194305 C 840.802002 31.404694 836.685974 28.464401 831.719971 26.373596 C 826.754028 24.1521 821.200989 23.041306 815.059021 23.041306 C 810.223999 23.041306 805.650024 23.759995 801.338013 25.197495 C 797.156006 26.504303 793.301025 28.464401 789.77301 31.078003 C 786.375 33.560791 783.434998 36.762405 780.952026 40.682709 C 778.468994 44.472397 776.508972 48.915405 775.072021 54.011795 C 773.765015 58.977501 773.112 64.596603 773.112 70.869102 C 773.112 81.323303 774.940979 90.078598 778.599976 97.135201 C 782.258972 104.192001 787.224976 109.550003 793.497009 113.208 C 799.900024 116.866997 807.153015 118.696999 815.255005 118.696999 C 821.396973 118.696999 827.015991 117.652 832.112 115.560997 C 837.208984 113.338997 841.390015 110.334 844.656982 106.543999 C 847.924011 102.624001 849.883972 98.180603 850.538025 93.214897 L 876.607971 93.214897 C 875.692993 102.624001 872.491028 110.921997 867.002991 118.109001 C 861.515015 125.295998 854.327026 130.914993 845.440979 134.966003 C 836.554993 139.016998 826.557983 141.042999 815.450989 141.042999 Z"/>
        <path id="path2" fill="#ffffff" stroke="none" d="M 934.719971 141.042999 C 924.65802 141.042999 915.70697 138.820999 907.866028 134.378006 C 900.156006 129.934998 894.080017 123.924004 889.637024 116.345001 C 885.19397 108.635002 882.971985 99.879402 882.971985 90.078598 C 882.971985 80.277901 885.19397 71.587799 889.637024 64.008598 C 894.080017 56.298599 900.156006 50.222107 907.866028 45.779099 C 915.70697 41.336105 924.65802 39.114594 934.719971 39.114594 C 944.781982 39.114594 953.66803 41.336105 961.377991 45.779099 C 969.088013 50.222107 975.164978 56.298599 979.607971 64.008598 C 984.051025 71.587799 986.271973 80.277901 986.271973 90.078598 C 986.271973 99.879402 984.051025 108.635002 979.607971 116.345001 C 975.164978 123.924004 969.088013 129.934998 961.377991 134.378006 C 953.66803 138.820999 944.781982 141.042999 934.719971 141.042999 Z M 934.719971 120.264999 C 940.208984 120.264999 944.978027 119.024002 949.028992 116.541 C 953.210999 113.927002 956.413025 110.399002 958.633972 105.956001 C 960.856018 101.382004 961.966003 96.089798 961.966003 90.078598 C 961.966003 84.067497 960.856018 78.840401 958.633972 74.3974 C 956.413025 69.8237 953.210999 66.295403 949.028992 63.812599 C 944.848022 61.199005 940.078003 59.892303 934.719971 59.892303 C 929.231995 59.892303 924.396973 61.199005 920.215027 63.812599 C 916.164001 66.295403 912.963013 69.8237 910.609985 74.3974 C 908.388977 78.840401 907.278015 84.067497 907.278015 90.078598 C 907.278015 96.089798 908.388977 101.382004 910.609985 105.956001 C 912.963013 110.399002 916.164001 113.927002 920.215027 116.541 C 924.396973 119.024002 929.231995 120.264999 934.719971 120.264999 Z"/>
        <path id="path3" fill="#ffffff" stroke="none" d="M 1110.51001 40.682709 C 1116.130005 40.682709 1121.160034 41.989502 1125.599976 44.602997 C 1130.180054 47.085907 1133.77002 50.614197 1136.390015 55.187897 C 1139 59.630905 1140.310059 64.727303 1140.310059 70.477097 L 1140.310059 139.475006 L 1116.199951 139.475006 L 1116.199951 72.241203 C 1116.199951 68.974297 1115.079956 66.295403 1112.859985 64.204597 C 1110.77002 61.983101 1108.160034 60.872299 1105.02002 60.872299 L 1080.910034 60.872299 L 1080.910034 139.475006 L 1057.189941 139.475006 L 1057.189941 60.872299 L 1033.079956 60.872299 C 1029.949951 60.872299 1027.27002 61.983101 1025.050049 64.204597 C 1022.960022 66.295403 1021.909973 68.974297 1021.909973 72.241203 L 1021.909973 139.475006 L 997.997986 139.475006 L 997.997986 70.477097 C 997.997986 64.727303 999.23999 59.630905 1001.719971 55.187897 C 1004.340027 50.614197 1007.859985 47.085907 1012.309998 44.602997 C 1016.75 41.989502 1021.849976 40.682709 1027.599976 40.682709 L 1110.51001 40.682709 Z"/>
        <path id="path4" fill="#ffffff" stroke="none" d="M 1157.719971 179.462006 L 1157.719971 40.682709 L 1181.829956 40.682709 L 1181.829956 52.639702 C 1184.829956 48.588699 1188.949951 45.321808 1194.170044 42.838898 C 1199.530029 40.356003 1205.280029 39.114594 1211.420044 39.114594 C 1220.959961 39.114594 1229.130005 41.336105 1235.930054 45.779099 C 1242.849976 50.091492 1248.140015 56.0373 1251.800049 63.616501 C 1255.459961 71.195801 1257.290039 80.016502 1257.290039 90.078598 C 1257.290039 97.527199 1256.25 104.388 1254.160034 110.660004 C 1252.060059 116.932999 1249.060059 122.356003 1245.140015 126.93 C 1241.219971 131.373001 1236.449951 134.835999 1230.829956 137.317993 C 1225.209961 139.800995 1218.869995 141.042999 1211.819946 141.042999 C 1207.630005 141.042999 1203.579956 140.520004 1199.660034 139.475006 C 1195.869995 138.298004 1192.410034 136.664993 1189.27002 134.574005 C 1186.27002 132.483002 1183.790039 130 1181.829956 127.125999 L 1181.829956 179.462006 L 1157.719971 179.462006 Z M 1206.920044 120.264999 C 1210.839966 120.264999 1214.430054 119.545998 1217.699951 118.109001 C 1220.959961 116.670998 1223.77002 114.646004 1226.119995 112.031998 C 1228.47998 109.288002 1230.23999 106.086998 1231.420044 102.428001 C 1232.719971 98.7687 1233.380005 94.652298 1233.380005 90.078598 C 1233.380005 80.931198 1230.959961 73.613297 1226.119995 68.124901 C 1221.290039 62.636505 1214.890015 59.892303 1206.920044 59.892303 C 1202.859985 59.892303 1199.209961 60.611 1195.939941 62.048401 C 1192.800049 63.485901 1189.98999 65.576698 1187.51001 68.3209 C 1185.160034 70.934502 1183.329956 74.070702 1182.02002 77.729698 C 1180.849976 81.388603 1180.26001 85.504898 1180.26001 90.078598 C 1180.26001 99.095398 1182.670044 106.413002 1187.51001 112.031998 C 1192.47998 117.521004 1198.939941 120.264999 1206.920044 120.264999 Z"/>
        <path id="path5" fill="#ffffff" stroke="none" d="M 1305.810059 141.042999 C 1298.359985 141.042999 1291.890015 139.408997 1286.400024 136.141998 C 1280.910034 132.744995 1276.599976 128.106003 1273.469971 122.224998 C 1270.459961 116.345001 1268.959961 109.550003 1268.959961 101.839996 L 1268.959961 40.682709 L 1293.069946 40.682709 L 1293.069946 96.743202 C 1293.069946 103.407997 1294.959961 108.896004 1298.75 113.208 C 1302.540039 117.521004 1307.51001 119.677002 1313.650024 119.677002 C 1318.089966 119.677002 1322.01001 118.632004 1325.410034 116.541 C 1328.939941 114.319 1331.680054 111.314003 1333.640015 107.524002 C 1335.599976 103.734001 1336.579956 99.422096 1336.579956 94.586998 L 1336.579956 40.682709 L 1360.5 40.682709 L 1360.5 139.475006 L 1336.579956 139.475006 L 1336.579956 124.184998 C 1333.839966 129.542999 1329.790039 133.725006 1324.430054 136.729996 C 1319.069946 139.604996 1312.859985 141.042999 1305.810059 141.042999 Z"/>
        <path id="path6" fill="#ffffff" stroke="none" d="M 1479.900024 141.042999 C 1471.930054 141.042999 1464.810059 139.604996 1458.540039 136.729996 C 1452.26001 133.854996 1446.969971 130 1442.660034 125.165001 C 1438.47998 120.199997 1435.280029 114.710999 1433.050049 108.699997 C 1430.829956 102.557999 1429.719971 96.220497 1429.719971 89.6866 C 1429.719971 83.152802 1430.699951 76.880302 1432.660034 70.869102 C 1434.75 64.858002 1437.819946 59.500198 1441.880005 54.795799 C 1445.930054 49.9608 1450.959961 46.171204 1456.969971 43.426895 C 1462.97998 40.552002 1470.040039 39.114594 1478.140015 39.114594 C 1486.369995 39.114594 1493.48999 40.486694 1499.5 43.230896 C 1505.51001 45.844498 1510.47998 49.503403 1514.400024 54.207802 C 1518.319946 58.781502 1521.199951 63.877899 1523.030029 69.497002 C 1524.98999 75.116096 1525.969971 80.865898 1525.969971 86.746399 C 1525.969971 88.445198 1525.900024 90.013298 1525.77002 91.450798 C 1525.77002 92.888199 1525.699951 94.129601 1525.569946 95.175003 L 1443.640015 95.175003 L 1443.640015 78.709702 L 1502.050049 78.709702 C 1501.530029 72.437202 1499.180054 67.340797 1495 63.420502 C 1490.939941 59.369499 1485.329956 57.344002 1478.140015 57.344002 C 1474.089966 57.344002 1470.430054 58.062805 1467.160034 59.500198 C 1464.02002 60.806999 1461.349976 62.832504 1459.119995 65.576698 C 1457.030029 68.190201 1455.400024 71.522499 1454.219971 75.573502 C 1453.180054 79.493797 1452.660034 84.067497 1452.660034 89.294601 C 1452.660034 95.6978 1453.77002 101.317001 1455.98999 106.152 C 1458.209961 110.856003 1461.349976 114.514999 1465.400024 117.128998 C 1469.449951 119.741997 1474.280029 121.049004 1479.900024 121.049004 C 1486.170044 121.049004 1491.27002 119.807999 1495.189941 117.324997 C 1499.109985 114.842003 1501.660034 111.248001 1502.839966 106.543999 L 1526.359985 106.543999 C 1525.310059 113.470001 1522.630005 119.545998 1518.319946 124.773003 C 1514.01001 129.869995 1508.589966 133.854996 1502.050049 136.729996 C 1495.52002 139.604996 1488.130005 141.042999 1479.900024 141.042999 Z"/>
        <path id="path7" fill="#ffffff" stroke="none" d="M 1539.219971 139.475006 L 1539.219971 40.682709 L 1563.329956 40.682709 L 1563.329956 58.128098 C 1565.810059 51.855591 1569.01001 47.412598 1572.930054 44.799103 C 1576.97998 42.054794 1582.209961 40.682709 1588.609985 40.682709 L 1600.180054 40.682709 L 1600.180054 60.872299 L 1584.689941 60.872299 C 1579.589966 60.872299 1575.47998 62.2444 1572.339966 64.988701 C 1569.209961 67.732903 1566.920044 71.522499 1565.47998 76.357597 C 1564.040039 81.061897 1563.329956 86.5504 1563.329956 92.822899 L 1563.329956 139.475006 L 1539.219971 139.475006 Z"/>
        <path id="path8" fill="#ffffff" stroke="none" d="M 1410.189941 139.475006 C 1399.339966 139.475006 1390.650024 136.468994 1384.119995 130.457993 C 1377.719971 124.446999 1374.51001 115.953003 1374.51001 104.975998 L 1374.51001 60.872299 L 1374.51001 10.888397 L 1398.619995 10.888397 L 1398.619995 40.682709 L 1426.069946 40.682709 L 1426.069946 60.872299 L 1398.619995 60.872299 L 1398.619995 103.996002 C 1398.619995 108.960999 1399.869995 112.750999 1402.349976 115.364998 C 1404.959961 117.977997 1408.48999 119.285004 1412.930054 119.285004 L 1426.069946 119.285004 L 1426.069946 139.475006 L 1410.189941 139.475006 Z"/>
    </g>
    <path id="path9" fill="#ffffff" fill-rule="evenodd" stroke="none" d="M 108.101387 136.947296 C 100.331772 136.929504 93.563416 136.989777 93.277481 136.979645 C 90.725822 136.889191 91.547401 136.870026 91.603851 136.70076 C 91.660271 136.531494 94.11692 135.84816 94.951111 135.585236 C 95.785301 135.322357 97.336029 134.745071 98.716774 134.332703 C 100.097527 133.92038 102.613739 132.90155 104.308342 132.068619 C 106.043465 131.215805 108.678772 129.58638 110.340752 128.338776 C 111.963959 127.120255 114.324303 125.020721 115.585945 123.673141 C 116.847588 122.325546 118.552658 120.21254 119.374985 118.97757 C 120.197327 117.742599 121.374748 115.73465 121.991493 114.515503 C 122.608261 113.296326 123.476219 111.23214 123.92028 109.92836 C 124.364342 108.624588 125.115234 106.302933 125.588905 104.769096 C 126.062576 103.23526 127.035591 99.846878 127.751167 97.239365 C 128.466736 94.631851 129.471161 90.929726 129.983215 89.012428 C 130.49527 87.095139 131.418365 83.706749 132.034546 81.482697 C 132.650742 79.258636 133.798157 75.054512 134.584381 72.140244 C 135.370621 69.225967 136.554031 64.896362 137.214233 62.518913 C 137.87439 60.141457 138.98378 56.125595 139.679489 53.59478 C 140.375198 51.063965 141.459457 47.081055 142.088943 44.743912 C 142.718384 42.406769 144.052612 37.512451 145.053818 33.867615 C 146.055023 30.222824 147.48407 24.981781 148.229507 22.220871 C 148.97493 19.459961 150.544708 13.68718 151.717896 9.392441 C 153.165024 4.094894 154.012421 1.191818 154.364944 0.886627 C 154.812576 0.499146 156.23587 0.659821 164.599655 0.508499 C 169.939789 0.411896 177.278809 0.25618 180.908508 0.16246 C 187.162766 0.001022 187.852234 -0.164795 188.11647 0.328857 C 188.282455 0.638931 187.975769 1.483765 187.843582 2.145493 C 187.72142 2.756866 187.056656 5.390518 186.366287 7.998032 C 185.675964 10.605545 184.662155 14.433167 184.11351 16.503845 C 183.564819 18.574539 182.623993 22.151154 182.022736 24.451904 C 181.421539 26.752655 180.464493 30.392044 179.896027 32.539398 C 179.327606 34.686752 178.44104 38.012405 177.925964 39.929703 C 177.410858 41.847 176.555862 45.109863 176.02594 47.180557 C 175.496017 49.251251 174.656677 52.451378 174.160736 54.291977 C 173.664795 56.132568 172.8508 59.207222 172.351868 61.124512 C 171.852921 63.041809 171.066376 66.053719 170.603897 67.817612 C 170.141464 69.581512 169.362091 72.530678 168.872055 74.371277 C 168.381973 76.211868 167.692322 78.847298 167.339462 80.227737 C 166.986633 81.608177 166.370728 83.96122 165.970749 85.456718 C 165.570755 86.952225 164.937729 89.336617 164.563965 90.755424 C 164.190201 92.174232 163.575836 94.527275 163.198761 95.984406 C 162.821625 97.441544 162.186249 99.857399 161.786774 101.352966 C 161.387299 102.848534 160.802689 105.044708 160.487701 106.233353 C 160.172668 107.421989 159.374054 109.732552 158.713013 111.367935 C 158.051956 113.003288 156.843689 115.450455 156.028015 116.806076 C 155.212357 118.161667 154.05101 119.898293 153.447266 120.665207 C 152.843521 121.432129 151.669205 122.836563 150.837631 123.786194 C 150.006058 124.735817 148.357056 126.314827 147.173096 127.29509 C 145.989182 128.275391 144.267395 129.583557 143.346893 130.202148 C 142.426376 130.82074 140.606308 131.864532 139.302277 132.521698 C 137.998245 133.178864 135.989883 134.059235 134.839264 134.478104 C 133.688644 134.897003 131.680298 135.499023 130.376251 135.815918 C 129.07222 136.132828 126.705391 136.524292 125.116615 136.685883 C 123.45163 136.855179 116.243675 136.965927 108.101387 136.947296 Z M 41.520512 136.695618 C 10.20085 136.69957 0.369472 136.679138 0.112138 136.421875 C -0.140173 136.169586 0.112138 132.213913 0.112138 120.525772 C 0.112138 108.837631 -0.140173 104.88192 0.112138 104.629662 C 0.370323 104.371544 13.995663 104.350777 58.571323 104.350777 C 110.885628 104.350777 116.656311 104.231018 116.987228 104.629662 C 117.290558 104.995041 117.009697 105.540886 116.607773 107.048912 C 116.341362 108.048485 115.753151 109.798149 115.300659 110.937019 C 114.848129 112.07592 114.022385 113.912094 113.46563 115.017433 C 112.908882 116.122734 111.693123 118.157478 110.763962 119.539078 C 109.834785 120.920639 107.936516 123.233093 106.545586 124.677879 C 105.15464 126.122658 103.04052 128.032776 101.847542 128.922577 C 100.654564 129.812393 98.705673 131.087372 97.516663 131.755859 C 96.327652 132.424408 94.408218 133.365341 93.251266 133.846878 C 92.094276 134.328415 90.21476 134.977448 89.074532 135.289139 C 87.934296 135.600876 85.934433 136.043671 84.630402 136.273178 C 82.598701 136.630768 76.430084 136.691223 41.520512 136.695618 Z"/>
    <path id="path10" fill="#ffffff" fill-rule="evenodd" stroke="none" d="M 231.291794 44.193436 C 324.908875 43.966843 328.569092 44.00853 330.766846 44.655914 C 332.347443 45.12149 333.761749 45.914764 335.020294 47.041672 C 336.057281 47.970184 337.348267 49.612473 337.889252 50.691177 C 338.872772 52.652458 338.872772 52.652458 338.779877 74.409737 C 338.686951 96.167023 338.686951 96.167023 337.732025 98.244339 C 337.08667 99.648201 336.099121 100.855354 334.68576 101.967964 C 333.535553 102.873436 331.662933 103.889816 330.524414 104.226547 C 328.971069 104.685959 326.41452 104.838783 320.282715 104.838783 C 313.909332 104.838783 312.0112 104.958679 311.657043 105.38369 C 311.310822 105.799179 311.419189 106.236687 312.113251 107.225586 C 312.613953 107.938911 320.092804 115.482399 328.733002 123.988853 C 341.524719 136.582657 344.417908 139.627106 344.310608 140.380859 C 344.178802 141.30658 344.178802 141.30658 329.05307 141.412262 C 313.927307 141.517975 313.927307 141.517975 311.79657 140.546463 C 310.042908 139.746902 306.704712 136.625916 292.934814 122.912056 C 283.732758 113.747437 275.748627 105.932762 275.192291 105.546082 C 274.305969 104.930061 273.094238 104.842758 265.403351 104.840904 C 256.790558 104.838806 256.614166 104.855583 255.996124 105.734352 C 255.458786 106.498352 255.366577 108.466682 255.368256 119.132736 C 255.37001 130.035934 255.279404 131.888947 254.660172 133.616104 C 254.269638 134.705399 253.15126 136.482407 252.174896 137.565018 C 251.198532 138.647629 249.650879 139.932343 248.735687 140.419983 C 247.219574 141.227783 246.388123 141.318161 239.380051 141.436905 C 235.149643 141.508591 231.553635 141.433029 231.388947 141.269012 C 231.224243 141.10498 231.088593 129.531769 231.087479 115.550766 C 231.085648 92.344833 231.147324 89.955292 231.795547 88.115974 C 232.228561 86.887299 233.216034 85.388649 234.326385 84.275009 C 235.327805 83.270607 237.003983 82.049438 238.051239 81.561295 C 239.955353 80.673775 239.955353 80.673775 276.772797 80.566772 C 306.417328 80.480606 313.692688 80.357239 314.11615 79.933556 C 314.49649 79.552979 314.630005 78.012924 314.598572 74.369667 C 314.569977 71.061142 314.389496 69.167107 314.072754 68.851501 C 313.70929 68.489418 304.445862 68.321327 276.487244 68.169495 C 239.384048 67.968018 239.384048 67.968018 237.360977 66.797783 C 236.248306 66.154144 234.690414 64.959435 233.899017 64.142883 C 232.940292 63.153748 232.196106 61.796036 231.669022 60.074684 C 230.975708 57.810303 230.903519 56.669594 231.084869 50.842255 L 231.291794 44.193436 Z M 421.902893 141.495438 C 372.906311 141.482849 372.906311 141.482849 370.933624 140.520447 C 369.848633 139.99115 368.270203 138.886383 367.426025 138.065384 C 366.581787 137.2444 365.384918 135.461853 364.766266 134.104126 C 363.665161 131.687683 363.643494 131.495575 363.740356 125.005943 C 363.799988 121.0103 364.012451 118.168594 364.275055 117.853424 C 364.627777 117.430161 373.940063 117.330505 413.13623 117.330505 C 461.013733 117.330505 461.589722 117.339935 464.037811 118.163284 C 465.926178 118.798401 466.959961 119.471024 468.393402 120.997215 C 469.427155 122.097824 470.64682 123.840057 471.10376 124.868835 C 471.805206 126.448181 471.95816 127.774078 472.086456 133.387009 C 472.218048 139.145508 472.148834 140.133224 471.568939 140.771378 C 470.927368 141.477386 468.859741 141.507538 421.902893 141.495438 Z M 497.122467 44.193436 C 509.643738 43.995773 511.568512 44.110428 513.382568 44.63562 C 514.961975 45.09288 516.245972 45.834717 517.523926 47.028214 C 518.763123 48.185486 519.678528 49.536423 520.289612 51.109787 C 521.203186 53.461487 521.203186 53.461487 521.301208 84.824173 C 521.396606 115.345551 521.420288 116.202194 522.184631 116.758698 C 522.846558 117.240616 527.811157 117.330505 553.764648 117.330505 C 577.176636 117.330505 584.67572 117.446426 585.0448 117.814064 C 585.383362 118.151215 585.530212 120.316498 585.53009 124.966591 C 585.529724 131.543884 585.513 131.670776 584.312439 134.198044 C 583.643005 135.607391 582.477966 137.375275 581.723572 138.126648 C 580.969055 138.878021 579.377625 139.944443 578.18689 140.496475 C 576.021973 141.500183 576.021973 141.500183 541.427551 141.476074 C 511.988586 141.455521 506.540894 141.362518 504.87204 140.851959 C 503.482239 140.426788 502.230743 139.583862 500.57605 137.958588 C 499.119171 136.527527 497.989624 134.983276 497.572113 133.851822 C 496.962341 132.199356 496.91275 128.142502 497.012756 88.115974 L 497.122467 44.193436 Z M 658.167053 141.381989 C 625.816101 141.444138 618.647522 141.360474 617.413452 140.906204 C 616.589783 140.603058 615.259216 139.910614 614.456665 139.367462 C 613.653992 138.824295 612.482239 137.678406 611.8526 136.821045 C 611.223022 135.963684 610.414185 134.394516 610.055237 133.334045 C 609.470764 131.607605 609.402527 126.88488 609.402527 88.182472 C 609.402527 55.10154 609.516479 44.845581 609.888062 44.475525 C 610.226257 44.138733 612.387329 43.991959 617.00769 43.991959 C 621.924683 43.991959 624.22522 44.160873 625.895935 44.644577 C 627.551941 45.124023 628.646179 45.792282 630.020203 47.163071 C 631.267944 48.407928 632.188538 49.833633 632.786255 51.446686 C 633.678833 53.855598 633.682556 53.978523 633.781921 84.973015 C 633.861694 109.850563 633.986938 116.186493 634.40741 116.605309 C 634.824036 117.020355 639.813599 117.151932 658.452026 117.239365 C 674.802979 117.316078 682.103271 117.21788 682.405273 116.917175 C 682.705505 116.618347 682.874756 106.76963 682.952881 85.057259 C 683.06366 54.26519 683.083069 53.583366 683.91626 51.329407 C 684.486633 49.786362 685.394531 48.418259 686.673523 47.174194 C 687.829956 46.049423 689.35022 45.058182 690.536377 44.655701 C 692.057068 44.139709 694.055115 43.991959 699.513672 43.991959 C 705.827393 43.991959 706.5625 44.063034 706.806824 44.697128 C 706.956421 45.084991 707.036133 64.895454 706.98407 88.720406 C 706.899597 127.392532 706.819458 132.228821 706.237671 133.812988 C 705.879272 134.78894 704.954895 136.283173 704.183533 137.133484 C 703.41217 137.983826 701.5755 139.270599 700.102173 139.993042 C 697.423279 141.30658 697.423279 141.30658 658.167053 141.381989 Z M 364.004822 104.234337 C 363.812561 84.128815 363.902924 81.597435 364.317902 81.184158 C 364.747894 80.755905 373.661407 80.676964 412.169891 80.7603 L 459.493469 80.862709 L 459.601318 92.347038 C 459.699371 102.78627 459.646332 103.87722 459.018219 104.335083 C 458.567047 104.663986 457.160645 104.804749 454.965393 104.740715 C 453.116425 104.686798 431.89386 104.550804 407.804199 104.438507 L 364.004822 104.234337 Z M 471.631866 44.193436 C 471.631866 59.721504 471.631866 59.721504 470.459045 61.950737 C 469.813995 63.176819 468.630493 64.71862 467.829071 65.376999 C 467.027588 66.035378 465.409149 66.933022 464.232483 67.37178 C 462.143951 68.150536 460.936584 68.169495 413.433319 68.169495 C 376.126343 68.169495 364.660309 68.056694 364.288086 67.685951 C 363.949341 67.348648 363.802521 65.176704 363.802521 60.504471 C 363.802521 55.296921 363.9534 53.36467 364.480591 51.820709 C 364.942017 50.469482 365.879456 49.116974 367.414032 47.588455 C 368.752838 46.254959 370.409363 45.06427 371.490143 44.658554 C 373.171722 44.027313 377.069336 43.983383 422.471405 44.084229 L 471.631866 44.193436 Z"/>
</svg>
