<?xml version="1.0" encoding="UTF-8"?>
<!-- Generated by Pixelmator Pro 3.6.14 -->
<svg width="55" height="24" viewBox="0 0 55 24" xmlns="http://www.w3.org/2000/svg">
    <linearGradient id="linearGradient1" x1="1.36621" y1="0.500001" x2="8.13985" y2="54.6387" gradientUnits="userSpaceOnUse">
        <stop offset="1e-05" stop-color="#ffe7ce" stop-opacity="1"/>
        <stop offset="1" stop-color="#e88002" stop-opacity="1"/>
    </linearGradient>
    <path id="path1" fill="url(#linearGradient1)" stroke="none" d="M 12 0 L 42.648399 0 C 49.275818 0 54.648399 5.372583 54.648399 12 L 54.648399 12 C 54.648399 18.627417 49.275818 24 42.648399 24 L 12 24 C 5.372583 24 0 18.627417 0 12 L 0 12 C -0 5.372583 5.372583 0 12 0 Z"/>
    <radialGradient id="radialGradient1" cx="45.9958" cy="-1.7" r="35.419851" fx="45.9958" fy="-1.7" gradientUnits="userSpaceOnUse">
        <stop offset="1e-05" stop-color="#ffffff" stop-opacity="0.6"/>
        <stop offset="1" stop-color="#ffffff" stop-opacity="0"/>
    </radialGradient>
    <path id="path2" fill="url(#radialGradient1)" stroke="none" d="M 12 0 L 42.648399 0 C 49.275818 0 54.648399 5.372583 54.648399 12 L 54.648399 12 C 54.648399 18.627417 49.275818 24 42.648399 24 L 12 24 C 5.372583 24 0 18.627417 0 12 L 0 12 C -0 5.372583 5.372583 0 12 0 Z"/>
    <path id="path3" fill="#121215" fill-rule="evenodd" stroke="none" d="M 16.043064 17.277349 C 15.464982 17.276024 14.961396 17.28051 14.940122 17.279755 C 14.750271 17.273026 14.811399 17.271599 14.815598 17.259007 C 14.819797 17.246412 15.002579 17.19557 15.064645 17.176008 C 15.126711 17.156448 15.242089 17.113497 15.344821 17.082815 C 15.447553 17.052137 15.634767 16.976334 15.76085 16.91436 C 15.889949 16.85091 16.086023 16.729675 16.209679 16.63685 C 16.33045 16.546188 16.506067 16.389977 16.599937 16.289711 C 16.693808 16.189447 16.820669 16.032234 16.881853 15.940348 C 16.943037 15.848462 17.030642 15.699065 17.076529 15.608356 C 17.122419 15.517647 17.186996 15.364065 17.220037 15.26706 C 17.253077 15.170055 17.308945 14.997317 17.344187 14.883195 C 17.379431 14.769073 17.451824 14.516968 17.505066 14.322961 C 17.558306 14.128954 17.633039 13.853505 17.671137 13.710853 C 17.709236 13.5682 17.777916 13.316094 17.823763 13.150619 C 17.86961 12.985142 17.954981 12.672342 18.013477 12.455512 C 18.071976 12.238681 18.160025 11.916546 18.209146 11.739656 C 18.258265 11.562766 18.340805 11.263974 18.392569 11.075674 C 18.444332 10.887374 18.525003 10.591034 18.571838 10.417144 C 18.618671 10.243253 18.717941 9.879102 18.792435 9.607915 C 18.866928 9.336731 18.973253 8.946782 19.028715 8.741363 C 19.084177 8.535942 19.200974 8.10643 19.288261 7.786888 C 19.395933 7.392736 19.458981 7.176739 19.48521 7.154032 C 19.518515 7.125202 19.624413 7.137156 20.246702 7.125898 C 20.644024 7.11871 21.190069 7.107124 21.460131 7.100151 C 21.925465 7.08814 21.976765 7.075802 21.996424 7.112532 C 22.008774 7.135601 21.985954 7.19846 21.97612 7.247694 C 21.967031 7.293182 21.91757 7.489134 21.866205 7.683142 C 21.814842 7.877148 21.739412 8.161934 21.698591 8.315999 C 21.657768 8.470064 21.587767 8.736176 21.543032 8.907358 C 21.498301 9.078541 21.427094 9.349322 21.384798 9.509091 C 21.342506 9.668861 21.276543 9.9163 21.23822 10.058952 C 21.199894 10.201605 21.13628 10.444371 21.096853 10.598437 C 21.057425 10.752502 20.994976 10.990602 20.958076 11.127548 C 20.921177 11.264493 20.860613 11.493257 20.82349 11.635909 C 20.786367 11.778562 20.727846 12.002656 20.693436 12.133895 C 20.659031 12.265135 20.601042 12.484561 20.564583 12.621508 C 20.528118 12.758452 20.476807 12.954536 20.450552 13.057245 C 20.424301 13.159954 20.378475 13.335028 20.348717 13.446297 C 20.318956 13.557568 20.271856 13.734973 20.244047 13.840536 C 20.216238 13.9461 20.170528 14.121174 20.142471 14.229589 C 20.114412 14.338004 20.067139 14.517751 20.037416 14.629025 C 20.007694 14.7403 19.964197 14.903702 19.940762 14.992141 C 19.917322 15.080579 19.857903 15.252491 19.80872 15.374168 C 19.759535 15.495844 19.669636 15.67792 19.608948 15.778783 C 19.54826 15.879642 19.461853 16.008852 19.416931 16.065914 C 19.372011 16.122974 19.284639 16.227468 19.222767 16.298124 C 19.160896 16.368778 19.038206 16.486261 18.950115 16.559196 C 18.862028 16.632133 18.733923 16.729465 18.665434 16.77549 C 18.596945 16.821514 18.461527 16.899176 18.364502 16.948071 C 18.267479 16.996965 18.118052 17.062469 18.032442 17.093634 C 17.946833 17.124802 17.797405 17.169592 17.70038 17.193171 C 17.603355 17.216749 17.427258 17.245876 17.309048 17.2579 C 17.185167 17.270494 16.648874 17.278734 16.043064 17.277349 Z M 11.08925 17.258623 C 8.758973 17.258917 8.02749 17.257397 8.008344 17.238256 C 7.989571 17.219486 8.008344 16.925171 8.008344 16.055538 C 8.008344 15.185906 7.989571 14.89159 8.008344 14.872821 C 8.027554 14.853617 9.041319 14.852071 12.357881 14.852071 C 16.250219 14.852071 16.679575 14.843161 16.704197 14.872821 C 16.726767 14.900006 16.70587 14.940619 16.675964 15.05282 C 16.656143 15.127192 16.612377 15.257372 16.578711 15.342107 C 16.545042 15.426845 16.483604 15.563461 16.442179 15.645702 C 16.400757 15.72794 16.310301 15.879331 16.241167 15.982125 C 16.172033 16.084919 16.030798 16.256971 15.927308 16.364468 C 15.823817 16.471964 15.66652 16.614082 15.57776 16.680286 C 15.488998 16.74649 15.343995 16.841352 15.255529 16.89109 C 15.167064 16.940832 15.024252 17.010841 14.938171 17.046669 C 14.852088 17.082497 14.712246 17.130787 14.62741 17.153976 C 14.542573 17.17717 14.393777 17.210117 14.296753 17.227192 C 14.145589 17.253799 13.686625 17.258297 11.08925 17.258623 Z"/>
    <path id="path4" fill="#121215" stroke="none" d="M 26.0996 16.4512 L 26.0996 7.32317 L 29.633499 7.32317 C 30.259399 7.32317 30.794001 7.440529 31.2374 7.675251 C 31.689501 7.909969 32.032799 8.23597 32.267601 8.65325 C 32.5023 9.06184 32.619598 9.53562 32.619598 10.0746 C 32.619598 10.6136 32.5023 11.0917 32.267601 11.509 C 32.032799 11.9176 31.689501 12.2393 31.2374 12.474 C 30.794001 12.7087 30.259399 12.8261 29.633499 12.8261 L 27.455799 12.8261 L 27.455799 16.4512 L 26.0996 16.4512 Z M 27.455799 11.6525 L 29.5944 11.6525 C 30.185499 11.6525 30.6028 11.496 30.846201 11.183 C 31.098301 10.8614 31.2244 10.4919 31.2244 10.0746 C 31.2244 9.65733 31.098301 9.29221 30.846201 8.97925 C 30.6028 8.6576 30.185499 8.49677 29.5944 8.49677 L 27.455799 8.49677 L 27.455799 11.6525 Z M 33.7757 16.4512 L 33.7757 9.87901 L 35.0406 9.87901 L 35.0406 11.1439 C 35.1884 10.7092 35.401402 10.3919 35.6796 10.192 C 35.957699 9.98333 36.327202 9.87901 36.787998 9.87901 L 37.583401 9.87901 L 37.583401 10.9744 L 36.6315 10.9744 C 36.231602 10.9744 35.914299 11.083 35.6796 11.3004 C 35.453499 11.5177 35.288399 11.8176 35.183998 12.2001 C 35.088402 12.5739 35.0406 12.9999 35.0406 13.4781 L 35.0406 16.4512 L 33.7757 16.4512 Z M 41.383499 16.5555 C 40.731499 16.5555 40.149101 16.4121 39.6362 16.1252 C 39.123299 15.8296 38.719002 15.4254 38.4235 14.9125 C 38.1366 14.3995 37.993099 13.8171 37.993099 13.1651 C 37.993099 12.5044 38.1366 11.9219 38.4235 11.4177 C 38.719002 10.9048 39.123299 10.5049 39.6362 10.2181 C 40.149101 9.92248 40.731499 9.77469 41.383499 9.77469 C 42.044201 9.77469 42.626701 9.92248 43.130901 10.2181 C 43.635101 10.5049 44.030701 10.9048 44.317501 11.4177 C 44.613098 11.9219 44.760899 12.5044 44.760899 13.1651 C 44.760899 13.8171 44.613098 14.3995 44.317501 14.9125 C 44.030701 15.4254 43.635101 15.8296 43.130901 16.1252 C 42.626701 16.4121 42.044201 16.5555 41.383499 16.5555 Z M 41.383499 15.4471 C 42.000801 15.4471 42.500599 15.2341 42.883099 14.8081 C 43.2743 14.3822 43.469898 13.8345 43.469898 13.1651 C 43.469898 12.4957 43.2743 11.948 42.883099 11.5221 C 42.500599 11.0961 42.000801 10.8831 41.383499 10.8831 C 40.757599 10.8831 40.2491 11.0961 39.857899 11.5221 C 39.475399 11.948 39.2841 12.4957 39.2841 13.1651 C 39.2841 13.8345 39.475399 14.3822 39.857899 14.8081 C 40.2491 15.2341 40.757599 15.4471 41.383499 15.4471 Z"/>
</svg>
