<?xml version="1.0" encoding="UTF-8"?>
<!-- Generated by Pixelmator Pro 3.6.14 -->
<svg width="59" height="24" viewBox="0 0 59 24" xmlns="http://www.w3.org/2000/svg">
    <path id="path1" fill="#e0e0e0" stroke="none" d="M 12 0 L 46.647999 0 C 53.275417 0 58.647999 5.372583 58.647999 12 L 58.647999 12 C 58.647999 18.627417 53.275417 24 46.647999 24 L 12 24 C 5.372583 24 0 18.627417 0 12 L 0 12 C 0 5.372583 5.372583 0 12 0 Z"/>
    <path id="path2" fill="#7a7a7c" fill-rule="evenodd" stroke="none" d="M 16.043064 17.277349 C 15.464982 17.276024 14.961396 17.28051 14.940122 17.279755 C 14.750271 17.273026 14.811399 17.271599 14.815598 17.259007 C 14.819797 17.246412 15.002579 17.19557 15.064645 17.176008 C 15.126711 17.156448 15.242089 17.113497 15.344821 17.082815 C 15.447553 17.052137 15.634767 16.976334 15.76085 16.91436 C 15.889949 16.85091 16.086023 16.729675 16.209679 16.63685 C 16.33045 16.546188 16.506067 16.389977 16.599937 16.289711 C 16.693808 16.189447 16.820669 16.032234 16.881853 15.940348 C 16.943037 15.848462 17.030642 15.699065 17.076529 15.608356 C 17.122419 15.517647 17.186996 15.364065 17.220037 15.26706 C 17.253077 15.170055 17.308945 14.997317 17.344187 14.883195 C 17.379431 14.769073 17.451824 14.516968 17.505066 14.322961 C 17.558306 14.128954 17.633039 13.853505 17.671137 13.710853 C 17.709236 13.5682 17.777916 13.316094 17.823763 13.150619 C 17.86961 12.985142 17.954981 12.672342 18.013477 12.455512 C 18.071976 12.238681 18.160025 11.916546 18.209146 11.739656 C 18.258265 11.562766 18.340805 11.263974 18.392569 11.075674 C 18.444332 10.887374 18.525003 10.591034 18.571838 10.417144 C 18.618671 10.243253 18.717941 9.879102 18.792435 9.607915 C 18.866928 9.336731 18.973253 8.946782 19.028715 8.741363 C 19.084177 8.535942 19.200974 8.10643 19.288261 7.786888 C 19.395933 7.392736 19.458981 7.176739 19.48521 7.154032 C 19.518515 7.125202 19.624413 7.137156 20.246702 7.125898 C 20.644024 7.11871 21.190069 7.107124 21.460131 7.100151 C 21.925465 7.08814 21.976765 7.075802 21.996424 7.112532 C 22.008774 7.135601 21.985954 7.19846 21.97612 7.247694 C 21.967031 7.293182 21.91757 7.489134 21.866205 7.683142 C 21.814842 7.877148 21.739412 8.161934 21.698591 8.315999 C 21.657768 8.470064 21.587767 8.736176 21.543032 8.907358 C 21.498301 9.078541 21.427094 9.349322 21.384798 9.509091 C 21.342506 9.668861 21.276543 9.9163 21.23822 10.058952 C 21.199894 10.201605 21.13628 10.444371 21.096853 10.598437 C 21.057425 10.752502 20.994976 10.990602 20.958076 11.127548 C 20.921177 11.264493 20.860613 11.493257 20.82349 11.635909 C 20.786367 11.778562 20.727846 12.002656 20.693436 12.133895 C 20.659031 12.265135 20.601042 12.484561 20.564583 12.621508 C 20.528118 12.758452 20.476807 12.954536 20.450552 13.057245 C 20.424301 13.159954 20.378475 13.335028 20.348717 13.446297 C 20.318956 13.557568 20.271856 13.734973 20.244047 13.840536 C 20.216238 13.9461 20.170528 14.121174 20.142471 14.229589 C 20.114412 14.338004 20.067139 14.517751 20.037416 14.629025 C 20.007694 14.7403 19.964197 14.903702 19.940762 14.992141 C 19.917322 15.080579 19.857903 15.252491 19.80872 15.374168 C 19.759535 15.495844 19.669636 15.67792 19.608948 15.778783 C 19.54826 15.879642 19.461853 16.008852 19.416931 16.065914 C 19.372011 16.122974 19.284639 16.227468 19.222767 16.298124 C 19.160896 16.368778 19.038206 16.486261 18.950115 16.559196 C 18.862028 16.632133 18.733923 16.729465 18.665434 16.77549 C 18.596945 16.821514 18.461527 16.899176 18.364502 16.948071 C 18.267479 16.996965 18.118052 17.062469 18.032442 17.093634 C 17.946833 17.124802 17.797405 17.169592 17.70038 17.193171 C 17.603355 17.216749 17.427258 17.245876 17.309048 17.2579 C 17.185167 17.270494 16.648874 17.278734 16.043064 17.277349 Z M 11.08925 17.258623 C 8.758973 17.258917 8.02749 17.257397 8.008344 17.238256 C 7.989571 17.219486 8.008344 16.925171 8.008344 16.055538 C 8.008344 15.185906 7.989571 14.89159 8.008344 14.872821 C 8.027554 14.853617 9.041319 14.852071 12.357881 14.852071 C 16.250219 14.852071 16.679575 14.843161 16.704197 14.872821 C 16.726767 14.900006 16.70587 14.940619 16.675964 15.05282 C 16.656143 15.127192 16.612377 15.257372 16.578711 15.342107 C 16.545042 15.426845 16.483604 15.563461 16.442179 15.645702 C 16.400757 15.72794 16.310301 15.879331 16.241167 15.982125 C 16.172033 16.084919 16.030798 16.256971 15.927308 16.364468 C 15.823817 16.471964 15.66652 16.614082 15.57776 16.680286 C 15.488998 16.74649 15.343995 16.841352 15.255529 16.89109 C 15.167064 16.940832 15.024252 17.010841 14.938171 17.046669 C 14.852088 17.082497 14.712246 17.130787 14.62741 17.153976 C 14.542573 17.17717 14.393777 17.210117 14.296753 17.227192 C 14.145589 17.253799 13.686625 17.258297 11.08925 17.258623 Z"/>
    <path id="path3" fill="#121215" stroke="none" d="M 25.944799 16.5 L 25.944799 7.372 L 29.4786 7.372 C 31.317301 7.372 32.425701 8.50648 32.425701 10.1234 C 32.425701 11.7404 31.317301 12.8749 29.4786 12.8749 L 27.3009 12.8749 L 27.3009 16.5 L 25.944799 16.5 Z M 27.3009 11.7013 L 29.439501 11.7013 C 30.6131 11.7013 31.0695 10.958 31.0695 10.1234 C 31.0695 9.28888 30.6131 8.5456 29.439501 8.5456 L 27.3009 8.5456 L 27.3009 11.7013 Z M 33.609699 16.5 L 33.609699 7.176399 L 34.8745 7.176399 L 34.8745 16.5 L 33.609699 16.5 Z M 42.3787 9.92784 L 42.3787 16.5 L 41.1138 16.5 L 41.1138 15.3394 C 40.7617 16.160999 39.979301 16.6043 39.001301 16.6043 C 37.514702 16.6043 36.549801 15.535 36.549801 13.9702 L 36.549801 9.92784 L 37.814602 9.92784 L 37.814602 13.7225 C 37.814602 14.7657 38.427502 15.4698 39.353401 15.4698 C 40.383499 15.4698 41.1138 14.6353 41.1138 13.4878 L 41.1138 9.92784 L 42.3787 9.92784 Z M 46.307499 16.6043 C 44.7687 16.6043 43.738602 15.7437 43.647301 14.3614 L 44.8339 14.3614 C 44.912201 15.1178 45.4599 15.5481 46.307499 15.5481 C 47.063801 15.5481 47.546299 15.1438 47.546299 14.6614 C 47.546299 12.914 43.816799 14.5179 43.816799 11.7143 C 43.816799 10.5798 44.781799 9.82352 46.151001 9.82352 C 47.637501 9.82352 48.654701 10.645 48.719898 11.8838 L 47.533199 11.8838 C 47.441898 11.1275 46.7117 10.8276 46.151001 10.8276 C 45.4729 10.8276 45.016499 11.1666 45.016499 11.6752 C 45.016499 13.3052 48.771999 11.6361 48.771999 14.6353 C 48.771999 15.835 47.793999 16.6043 46.307499 16.6043 Z"/>
</svg>
