<?xml version="1.0" encoding="UTF-8"?>
<!-- Generated by Pixelmator Pro 3.6.14 -->
<svg width="554" height="462" viewBox="0 0 554 462" xmlns="http://www.w3.org/2000/svg">
    <g id="g1" opacity="0.3">
        <path id="path1" fill="#fe7d00" fill-rule="evenodd" stroke="none" d="M 505.903687 229.5 C 505.903687 102.750671 403.187042 0 276.479675 0 C 149.772263 0 47.055641 102.750671 47.055641 229.5 C 47.055641 356.249329 149.772263 459 276.479675 459 C 403.187042 459 505.903687 356.249329 505.903687 229.5 Z"/>
        <path id="path2" fill="#ffffff" fill-rule="evenodd" stroke="none" d="M 303.375641 339.680969 C 290.898499 339.652344 280.029266 339.749207 279.570068 339.73291 C 275.472382 339.587585 276.791748 339.556793 276.882416 339.284821 C 276.973022 339.012878 280.918121 337.914886 282.257751 337.492462 C 283.597351 337.070068 286.087646 336.142487 288.304993 335.479919 C 290.522308 334.817413 294.56308 333.180389 297.284424 331.842072 C 300.070831 330.471802 304.302856 327.853699 306.971802 325.849121 C 309.578491 323.891235 313.368958 320.517792 315.39502 318.352539 C 317.421082 316.187286 320.159241 312.792175 321.479797 310.807861 C 322.800385 308.823547 324.691193 305.59729 325.68161 303.638397 C 326.672089 301.679474 328.065918 298.362793 328.779022 296.267944 C 329.492157 294.173096 330.697998 290.442749 331.458649 287.978271 C 332.21933 285.513733 333.781891 280.069397 334.93103 275.879761 C 336.080139 271.690125 337.693146 265.741669 338.515442 262.661041 C 339.337738 259.580383 340.820129 254.136063 341.809662 250.562546 C 342.799194 246.989014 344.641815 240.233994 345.904419 235.551453 C 347.167023 230.868912 349.067444 223.912262 350.127655 220.092255 C 351.187805 216.272263 352.96936 209.819717 354.086578 205.753296 C 355.203827 201.68689 356.945007 195.287292 357.955902 191.532074 C 358.966736 187.776825 361.109344 179.912842 362.717194 174.056458 C 364.325012 168.200134 366.619904 159.779053 367.816986 155.342926 C 369.014038 150.906799 371.534943 141.631317 373.418945 134.730682 C 375.742889 126.218781 377.103729 121.55423 377.66983 121.063843 C 378.388672 120.441284 380.674316 120.699463 394.105621 120.456299 C 402.681305 120.301086 414.466949 120.050873 420.295868 119.900299 C 430.339508 119.64093 431.446716 119.374481 431.871063 120.167664 C 432.137604 120.665863 431.645111 122.023315 431.432831 123.086548 C 431.236633 124.068878 430.169128 128.300568 429.060455 132.490204 C 427.951874 136.679871 426.323792 142.829926 425.442749 146.157013 C 424.561615 149.484131 423.05072 155.230896 422.085175 158.927643 C 421.119751 162.62442 419.582825 168.472046 418.669922 171.922333 C 417.757111 175.37262 416.333374 180.716156 415.506226 183.796783 C 414.679016 186.877411 413.305969 192.120087 412.454987 195.447174 C 411.604004 198.774292 410.256104 203.916138 409.459686 206.873535 C 408.663269 209.830933 407.356079 214.771164 406.55484 217.851807 C 405.753601 220.932434 404.490479 225.771851 403.747803 228.606018 C 403.005188 231.440186 401.753601 236.178787 400.966644 239.136185 C 400.179626 242.093582 399.072113 246.328094 398.505463 248.546127 C 397.938843 250.76416 396.949799 254.544937 396.307465 256.947876 C 395.665131 259.350769 394.64856 263.181946 394.04834 265.461609 C 393.44809 267.741272 392.461487 271.522095 391.855957 273.863342 C 391.250305 276.20462 390.22998 280.086304 389.58847 282.489319 C 388.94696 284.892365 388.008148 288.421082 387.502289 290.330933 C 386.996368 292.240814 385.713898 295.953339 384.652313 298.580994 C 383.590759 301.208618 381.650421 305.140625 380.340546 307.318787 C 379.03067 309.496918 377.16568 312.287262 376.196136 313.519531 C 375.226593 314.75177 373.340759 317.008362 372.005341 318.53418 C 370.669922 320.059998 368.02182 322.597107 366.120514 324.17215 C 364.219269 325.747253 361.454285 327.849182 359.976044 328.843109 C 358.497772 329.837036 355.574982 331.51416 353.480835 332.570068 C 351.386688 333.625977 348.161499 335.040527 346.313721 335.713531 C 344.465973 336.386597 341.240753 337.353912 339.146637 337.863098 C 337.05249 338.372284 333.251617 339.001282 330.700226 339.260925 C 328.026428 339.532928 316.451263 339.710876 303.375641 339.680969 Z M 196.454071 339.27655 C 146.158142 339.282898 130.370026 339.250092 129.956787 338.836731 C 129.55159 338.431366 129.956787 332.075531 129.956787 313.295471 C 129.956787 294.515411 129.55159 288.159515 129.956787 287.754211 C 130.371399 287.339478 152.252197 287.306091 223.8358 287.306091 C 307.846802 287.306091 317.113892 287.113678 317.645325 287.754211 C 318.132446 288.341278 317.681396 289.218323 317.03595 291.641357 C 316.608124 293.247437 315.663513 296.058716 314.936859 297.888611 C 314.210175 299.718567 312.884094 302.668884 311.990021 304.444885 C 311.095947 306.220825 309.143555 309.490173 307.651428 311.710083 C 306.159271 313.929932 303.11087 317.645508 300.877197 319.966919 C 298.643494 322.28833 295.248444 325.357422 293.332642 326.78714 C 291.41687 328.216858 288.28717 330.265442 286.377747 331.339539 C 284.468323 332.413727 281.385895 333.925598 279.527985 334.69931 C 277.669983 335.473022 274.651672 336.515869 272.820587 337.016693 C 270.989502 337.517578 267.777954 338.229034 265.683807 338.597809 C 262.421112 339.172363 252.515015 339.269501 196.454071 339.27655 Z"/>
    </g>
</svg>
