<?xml version="1.0" encoding="UTF-8"?>
<!-- Generated by Pixelmator Pro 3.6.14 -->
<svg width="554" height="462" viewBox="0 0 554 462" xmlns="http://www.w3.org/2000/svg">
    <g id="g1" opacity="0.3">
        <path id="path1" fill="#fe7d00" fill-rule="evenodd" stroke="none" d="M 505.903687 229.5 C 505.903687 102.750671 403.187042 0 276.479675 0 C 149.772263 0 47.055641 102.750671 47.055641 229.5 C 47.055641 356.249329 149.772263 459 276.479675 459 C 403.187042 459 505.903687 356.249329 505.903687 229.5 Z"/>
        <path id="path2" fill="#ffffff" fill-rule="evenodd" stroke="none" d="M 299.375641 339.680969 C 286.898499 339.652344 276.029266 339.749207 275.570068 339.73291 C 271.472382 339.587585 272.791748 339.556793 272.882416 339.284821 C 272.973022 339.012878 276.918121 337.914886 278.257751 337.492462 C 279.597351 337.070068 282.087646 336.142487 284.304993 335.479919 C 286.522308 334.817413 290.56308 333.180389 293.284424 331.842072 C 296.070831 330.471802 300.302856 327.853699 302.971802 325.849121 C 305.578491 323.891235 309.368958 320.517792 311.39502 318.352539 C 313.421082 316.187286 316.159241 312.792175 317.479797 310.807861 C 318.800385 308.823547 320.691193 305.59729 321.68161 303.638397 C 322.672089 301.679474 324.065918 298.362793 324.779022 296.267944 C 325.492157 294.173096 326.697998 290.442749 327.458649 287.978271 C 328.21933 285.513733 329.781891 280.069397 330.93103 275.879761 C 332.080139 271.690125 333.693146 265.741669 334.515442 262.661041 C 335.337738 259.580383 336.820129 254.136063 337.809662 250.562546 C 338.799194 246.989014 340.641815 240.233994 341.904419 235.551453 C 343.167023 230.868912 345.067444 223.912262 346.127655 220.092255 C 347.187805 216.272263 348.96936 209.819717 350.086578 205.753296 C 351.203827 201.68689 352.945007 195.287292 353.955902 191.532074 C 354.966736 187.776825 357.109344 179.912842 358.717194 174.056458 C 360.325012 168.200134 362.619904 159.779053 363.816986 155.342926 C 365.014038 150.906799 367.534943 141.631317 369.418945 134.730682 C 371.742889 126.218781 373.103729 121.55423 373.66983 121.063843 C 374.388672 120.441284 376.674316 120.699463 390.105621 120.456299 C 398.681305 120.301086 410.466949 120.050873 416.295868 119.900299 C 426.339508 119.64093 427.446716 119.374481 427.871063 120.167664 C 428.137604 120.665863 427.645111 122.023315 427.432831 123.086548 C 427.236633 124.068878 426.169128 128.300568 425.060455 132.490204 C 423.951874 136.679871 422.323792 142.829926 421.442749 146.157013 C 420.561615 149.484131 419.05072 155.230896 418.085175 158.927643 C 417.119751 162.62442 415.582825 168.472046 414.669922 171.922333 C 413.757111 175.37262 412.333374 180.716156 411.506226 183.796783 C 410.679016 186.877411 409.305969 192.120087 408.454987 195.447174 C 407.604004 198.774292 406.256104 203.916138 405.459686 206.873535 C 404.663269 209.830933 403.356079 214.771164 402.55484 217.851807 C 401.753601 220.932434 400.490479 225.771851 399.747803 228.606018 C 399.005188 231.440186 397.753601 236.178787 396.966644 239.136185 C 396.179626 242.093582 395.072113 246.328094 394.505463 248.546127 C 393.938843 250.76416 392.949799 254.544937 392.307465 256.947876 C 391.665131 259.350769 390.64856 263.181946 390.04834 265.461609 C 389.44809 267.741272 388.461487 271.522095 387.855957 273.863342 C 387.250305 276.20462 386.22998 280.086304 385.58847 282.489319 C 384.94696 284.892365 384.008148 288.421082 383.502289 290.330933 C 382.996368 292.240814 381.713898 295.953339 380.652313 298.580994 C 379.590759 301.208618 377.650421 305.140625 376.340546 307.318787 C 375.03067 309.496918 373.16568 312.287262 372.196136 313.519531 C 371.226593 314.75177 369.340759 317.008362 368.005341 318.53418 C 366.669922 320.059998 364.02182 322.597107 362.120514 324.17215 C 360.219269 325.747253 357.454285 327.849182 355.976044 328.843109 C 354.497772 329.837036 351.574982 331.51416 349.480835 332.570068 C 347.386688 333.625977 344.161499 335.040527 342.313721 335.713531 C 340.465973 336.386597 337.240753 337.353912 335.146637 337.863098 C 333.05249 338.372284 329.251617 339.001282 326.700226 339.260925 C 324.026428 339.532928 312.451263 339.710876 299.375641 339.680969 Z M 192.454071 339.27655 C 142.158142 339.282898 126.370033 339.250092 125.956779 338.836731 C 125.551598 338.431366 125.956779 332.075531 125.956779 313.295471 C 125.956779 294.515411 125.551598 288.159515 125.956779 287.754211 C 126.371399 287.339478 148.252197 287.306091 219.8358 287.306091 C 303.846802 287.306091 313.113892 287.113678 313.645325 287.754211 C 314.132446 288.341278 313.681396 289.218323 313.03595 291.641357 C 312.608124 293.247437 311.663513 296.058716 310.936859 297.888611 C 310.210175 299.718567 308.884094 302.668884 307.990021 304.444885 C 307.095947 306.220825 305.143555 309.490173 303.651428 311.710083 C 302.159271 313.929932 299.11087 317.645508 296.877197 319.966919 C 294.643494 322.28833 291.248444 325.357422 289.332642 326.78714 C 287.41687 328.216858 284.28717 330.265442 282.377747 331.339539 C 280.468323 332.413727 277.385895 333.925598 275.527985 334.69931 C 273.669983 335.473022 270.651672 336.515869 268.820587 337.016693 C 266.989502 337.517578 263.777954 338.229034 261.683807 338.597809 C 258.421112 339.172363 248.515015 339.269501 192.454071 339.27655 Z"/>
    </g>
</svg>
