<?xml version="1.0" encoding="UTF-8"?>
<!-- Generated by Pixelmator Pro 3.6.14 -->
<svg width="100" height="20" viewBox="0 0 100 20" xmlns="http://www.w3.org/2000/svg">
    <path id="path1" fill="#000000" fill-rule="evenodd" stroke="none" d="M 29.080969 2.943432 C 42.445724 2.911085 42.968258 2.917036 43.282009 3.009457 C 43.507656 3.075922 43.70956 3.189169 43.889229 3.350046 C 44.03727 3.482601 44.221573 3.717054 44.298801 3.87105 C 44.439209 4.151041 44.439209 4.151041 44.425949 7.257107 C 44.412682 10.363173 44.412682 10.363173 44.276356 10.65973 C 44.184227 10.860146 44.043243 11.032478 43.841473 11.191315 C 43.677269 11.32058 43.409935 11.465677 43.247398 11.513749 C 43.025646 11.579334 42.660671 11.601151 41.785297 11.601151 C 40.875435 11.601151 40.604458 11.618268 40.553898 11.678943 C 40.504471 11.738257 40.519939 11.800716 40.619026 11.941892 C 40.690506 12.043726 41.758186 13.120632 42.991657 14.335012 C 44.817802 16.132902 45.230831 16.567526 45.215515 16.675133 C 45.196697 16.807287 45.196697 16.807287 43.03735 16.822374 C 40.877998 16.837465 40.877998 16.837465 40.573814 16.698774 C 40.323463 16.584629 39.846905 16.139076 37.881115 14.181289 C 36.567432 12.87295 35.42762 11.757328 35.348198 11.702126 C 35.221664 11.614182 35.048679 11.601719 33.950729 11.601455 C 32.721169 11.601155 32.695988 11.60355 32.607754 11.729003 C 32.531044 11.838072 32.517879 12.11907 32.51812 13.641754 C 32.518372 15.198292 32.505436 15.46283 32.417034 15.709396 C 32.361282 15.864904 32.201622 16.118589 32.062237 16.273144 C 31.922852 16.427696 31.701908 16.611103 31.571257 16.680717 C 31.354816 16.79604 31.236118 16.808941 30.235647 16.825893 C 29.631714 16.836126 29.118349 16.82534 29.094839 16.801924 C 29.071325 16.778507 29.05196 15.126319 29.051802 13.130393 C 29.05154 9.817517 29.060345 9.476387 29.152885 9.213806 C 29.214703 9.038402 29.355673 8.824454 29.514187 8.665471 C 29.657148 8.522083 29.896441 8.347749 30.045946 8.278062 C 30.317778 8.15136 30.317778 8.15136 35.57383 8.136084 C 39.805878 8.123783 40.844505 8.106171 40.904961 8.045686 C 40.959255 7.991355 40.978317 7.771497 40.973827 7.251387 C 40.969746 6.779062 40.943981 6.50867 40.898762 6.463614 C 40.846874 6.411922 39.524429 6.387926 35.533062 6.366251 C 30.236217 6.337488 30.236217 6.337488 29.947405 6.170426 C 29.788559 6.07854 29.566154 5.907983 29.453175 5.791413 C 29.316309 5.650203 29.210068 5.456377 29.134821 5.210637 C 29.035845 4.887375 29.025539 4.724528 29.051428 3.892618 L 29.080969 2.943432 Z M 56.292576 16.834249 C 49.297832 16.832453 49.297832 16.832453 49.016212 16.695061 C 48.861317 16.619497 48.635983 16.461781 48.515469 16.344576 C 48.394943 16.227371 48.224079 15.972895 48.135761 15.779068 C 47.978569 15.434095 47.975475 15.406672 47.9893 14.480212 C 47.997814 13.909794 48.028145 13.504113 48.065636 13.45912 C 48.11599 13.398695 49.445412 13.384468 55.04105 13.384468 C 61.87603 13.384468 61.95826 13.385814 62.307747 13.503355 C 62.577332 13.594024 62.724915 13.690048 62.92955 13.907927 C 63.077129 14.065049 63.251247 14.31377 63.316483 14.460639 C 63.416622 14.686105 63.438457 14.87539 63.456772 15.676691 C 63.475555 16.498774 63.465675 16.63978 63.382889 16.730883 C 63.291302 16.831673 62.996124 16.835976 56.292576 16.834249 Z M 67.030907 2.943432 C 68.818443 2.915215 69.093224 2.931583 69.352196 3.006559 C 69.577675 3.071838 69.760979 3.177742 69.94342 3.348125 C 70.120323 3.513338 70.251007 3.706198 70.338249 3.930809 C 70.468666 4.266539 70.468666 4.266539 70.482658 8.74387 C 70.496277 13.101096 70.499664 13.223391 70.60878 13.302836 C 70.703278 13.371635 71.412018 13.384468 75.117134 13.384468 C 78.459427 13.384468 79.529991 13.401017 79.582687 13.453501 C 79.63102 13.501632 79.651985 13.810747 79.651962 14.474594 C 79.651909 15.413567 79.649521 15.431684 79.478134 15.792474 C 79.382568 15.993673 79.216248 16.246056 79.108543 16.353321 C 79.000832 16.460587 78.773636 16.612829 78.603653 16.691637 C 78.294586 16.834927 78.294586 16.834927 73.355896 16.831484 C 69.153191 16.82855 68.375481 16.815273 68.137238 16.742386 C 67.938828 16.681688 67.760162 16.561354 67.523941 16.329329 C 67.315956 16.125032 67.154701 15.904575 67.0951 15.743049 C 67.008049 15.507143 67.000969 14.927986 67.015244 9.213806 L 67.030907 2.943432 Z M 90.021606 16.818054 C 85.403191 16.826925 84.379807 16.814981 84.203629 16.75013 C 84.086044 16.706852 83.896088 16.608 83.781517 16.53046 C 83.666931 16.452917 83.499649 16.289331 83.40976 16.166933 C 83.319885 16.044537 83.204414 15.820523 83.153168 15.66913 C 83.069733 15.422663 83.05999 14.748448 83.05999 9.2233 C 83.05999 4.500672 83.076256 3.036533 83.129303 2.983704 C 83.177582 2.935623 83.486099 2.914669 84.145699 2.914669 C 84.847649 2.914669 85.176071 2.938784 85.414581 3.007837 C 85.650993 3.076284 85.807213 3.171684 86.003365 3.367378 C 86.181488 3.545094 86.31292 3.748627 86.398247 3.978907 C 86.525673 4.322802 86.526199 4.34035 86.54039 8.765119 C 86.551773 12.316632 86.569656 13.221149 86.629684 13.280939 C 86.689163 13.340191 87.401466 13.358974 90.062286 13.371456 C 92.396545 13.382408 93.438736 13.368389 93.48185 13.32546 C 93.524712 13.2828 93.548874 11.8768 93.56002 8.777145 C 93.575836 4.381275 93.578606 4.283937 93.697556 3.962164 C 93.778984 3.741879 93.908592 3.546568 94.091187 3.368965 C 94.256271 3.208393 94.473305 3.066883 94.642647 3.009426 C 94.859734 2.935762 95.144974 2.914669 95.92424 2.914669 C 96.825584 2.914669 96.930527 2.924816 96.965408 3.015341 C 96.986763 3.070711 96.998146 5.898849 96.990715 9.300096 C 96.978653 14.820921 96.967216 15.511349 96.884155 15.737503 C 96.832993 15.87683 96.701027 16.090147 96.590904 16.211538 C 96.480789 16.332932 96.21859 16.516632 96.008255 16.619768 C 95.625816 16.807287 95.625816 16.807287 90.021606 16.818054 Z M 48.027058 11.514861 C 47.999611 8.644601 48.012508 8.283221 48.071751 8.224222 C 48.133137 8.163084 49.405628 8.151814 54.903095 8.163712 L 61.659 8.178331 L 61.674397 9.817833 C 61.688393 11.308135 61.68082 11.46388 61.591152 11.529243 C 61.526741 11.576198 61.325966 11.596293 61.012573 11.587152 C 60.748611 11.579454 57.718884 11.56004 54.27985 11.544008 L 48.027058 11.514861 Z M 63.391872 2.943432 C 63.391872 5.160217 63.391872 5.160217 63.224442 5.478462 C 63.132355 5.653497 62.963398 5.873605 62.848988 5.967595 C 62.73457 6.061584 62.503521 6.189731 62.335541 6.252369 C 62.03738 6.363545 61.865017 6.366251 55.083462 6.366251 C 49.757523 6.366251 48.120636 6.350147 48.067493 6.29722 C 48.019138 6.249068 47.998177 5.939 47.998177 5.271994 C 47.998177 4.528565 48.019714 4.252717 48.094978 4.032302 C 48.160851 3.839401 48.294678 3.646317 48.513756 3.428106 C 48.704884 3.237736 48.941368 3.067753 49.095661 3.009832 C 49.33572 2.919718 49.892143 2.913446 56.373734 2.927843 L 63.391872 2.943432 Z"/>
    <path id="path2" fill="#fe7d00" fill-rule="evenodd" stroke="none" d="M 22.082083 10 C 22.082083 4.477153 17.586555 0 12.041041 0 C 6.495527 0 2 4.477153 2 10 C 2 15.522847 6.495527 20 12.041041 20 C 17.586555 20 22.082083 15.522847 22.082083 10 Z"/>
    <path id="path3" fill="#ffffff" fill-rule="evenodd" stroke="none" d="M 13.189438 14.091736 C 12.653128 14.090511 12.185931 14.094658 12.166194 14.09396 C 11.990061 14.08774 12.046772 14.086422 12.050669 14.074784 C 12.054564 14.063147 12.224137 14.01616 12.281718 13.998083 C 12.3393 13.980007 12.446342 13.940313 12.54165 13.911959 C 12.636958 13.883608 12.810644 13.813554 12.927617 13.756283 C 13.047386 13.697644 13.229293 13.585607 13.344013 13.499823 C 13.456058 13.416038 13.618984 13.271677 13.706071 13.179018 C 13.793159 13.086359 13.910853 12.941071 13.967616 12.856155 C 14.02438 12.77124 14.105653 12.633175 14.148225 12.549348 C 14.190798 12.465519 14.25071 12.323587 14.281363 12.23394 C 14.312015 12.144295 14.363846 11.984659 14.396542 11.879194 C 14.429237 11.773729 14.496401 11.540748 14.545795 11.361457 C 14.595188 11.182167 14.66452 10.927612 14.699866 10.795781 C 14.73521 10.66395 14.798929 10.430968 14.841462 10.278044 C 14.883996 10.12512 14.963199 9.836049 15.017469 9.635666 C 15.07174 9.435284 15.153427 9.137585 15.198998 8.974113 C 15.244567 8.810642 15.321144 8.534514 15.369166 8.360498 C 15.41719 8.186482 15.492032 7.912621 15.535482 7.751922 C 15.578932 7.591222 15.671028 7.254694 15.740138 7.004079 C 15.809248 6.753466 15.90789 6.393097 15.959345 6.203259 C 16.010799 6.013422 16.119156 5.616491 16.200136 5.321189 C 16.300028 4.956935 16.358521 4.757322 16.382854 4.736338 C 16.413752 4.709695 16.511997 4.720743 17.089321 4.710339 C 17.457932 4.703695 17.96452 4.692989 18.215065 4.686545 C 18.646774 4.675446 18.694368 4.664043 18.712606 4.697987 C 18.724064 4.719306 18.702894 4.777396 18.693771 4.822896 C 18.685337 4.864934 18.639452 5.046021 18.591799 5.225311 C 18.544147 5.404602 18.474167 5.667785 18.436296 5.810163 C 18.398422 5.952541 18.333479 6.198466 18.291977 6.356664 C 18.250479 6.514861 18.184418 6.765101 18.145178 6.912752 C 18.10594 7.060402 18.044744 7.28907 18.00919 7.420901 C 17.973635 7.552732 17.914618 7.777084 17.878038 7.919463 C 17.841459 8.061842 17.783524 8.281879 17.74929 8.408437 C 17.715057 8.534995 17.658869 8.746405 17.62443 8.878236 C 17.589989 9.010067 17.535696 9.217163 17.503773 9.338447 C 17.471853 9.45973 17.418056 9.662513 17.38423 9.78907 C 17.350401 9.915627 17.302797 10.096837 17.27844 10.191754 C 17.254086 10.286673 17.211573 10.448465 17.183962 10.551294 C 17.156353 10.654123 17.112658 10.818072 17.086857 10.915628 C 17.061058 11.013184 17.01865 11.174976 16.992622 11.275167 C 16.966589 11.37536 16.922731 11.541471 16.895157 11.644304 C 16.867582 11.747139 16.827229 11.898146 16.805487 11.979876 C 16.783741 12.061605 16.728615 12.220476 16.682985 12.332924 C 16.637356 12.44537 16.553953 12.613634 16.49765 12.706845 C 16.441347 12.800055 16.361183 12.919463 16.31951 12.972196 C 16.277834 13.024928 16.196775 13.121496 16.139376 13.186791 C 16.081974 13.252087 15.968149 13.360658 15.886425 13.42806 C 15.804703 13.495464 15.685854 13.585412 15.622314 13.627946 C 15.558775 13.67048 15.433143 13.74225 15.343129 13.787436 C 15.253117 13.832622 15.114486 13.893156 15.035063 13.921957 C 14.95564 13.95076 14.817009 13.992153 14.726996 14.013943 C 14.636984 14.035734 14.473609 14.06265 14.363941 14.073761 C 14.249013 14.085402 13.751472 14.093017 13.189438 14.091736 Z M 8.593586 14.07443 C 6.431695 14.074702 5.753069 14.073298 5.735306 14.055609 C 5.71789 14.038261 5.735306 13.766273 5.735306 12.962608 C 5.735306 12.158943 5.71789 11.886951 5.735306 11.869607 C 5.753128 11.851859 6.693639 11.850431 9.770545 11.850431 C 13.381624 11.850431 13.779955 11.842196 13.802797 11.869607 C 13.823735 11.894731 13.804348 11.932261 13.776605 12.035953 C 13.758215 12.104682 13.717613 12.224987 13.686378 12.303295 C 13.655143 12.381605 13.598144 12.507858 13.559713 12.58386 C 13.521282 12.65986 13.437363 12.799767 13.373226 12.894764 C 13.309089 12.989758 13.178057 13.148761 13.082046 13.248102 C 12.986033 13.347445 12.840103 13.478782 12.757756 13.539965 C 12.675408 13.601147 12.540884 13.688812 12.45881 13.734777 C 12.376737 13.780746 12.244245 13.845444 12.164384 13.878554 C 12.084521 13.911664 11.954784 13.956291 11.876079 13.977722 C 11.797372 13.999157 11.659328 14.029603 11.569315 14.045384 C 11.429073 14.069971 11.003275 14.074129 8.593586 14.07443 Z"/>
</svg>
