<?xml version="1.0" encoding="UTF-8"?>
<!-- Generated by Pixelmator Pro 3.6.14 -->
<svg width="1150" height="344" viewBox="0 0 1150 344" xmlns="http://www.w3.org/2000/svg">
    <g id="g1" opacity="0.1">
        <g id="relu-new-logo">
            <path id="path1" fill="#000000" fill-rule="evenodd" stroke="none" d="M 11.073284 56.271667 C 233.437393 55.731262 242.131348 55.830658 247.351532 57.374664 C 251.105896 58.485077 254.465225 60.377045 257.454529 63.064728 C 259.917633 65.279236 262.984131 69.196075 264.269073 71.768799 C 266.605133 76.446442 266.605133 76.446442 266.384521 128.337555 C 266.163788 180.228668 266.163788 180.228668 263.895599 185.183075 C 262.362732 188.531281 260.017029 191.410355 256.659973 194.063934 C 253.927917 196.223495 249.47998 198.647537 246.775665 199.450638 C 243.086136 200.546341 237.013672 200.910797 222.449142 200.910797 C 207.31076 200.910797 202.802216 201.196777 201.960968 202.210434 C 201.13858 203.20137 201.395981 204.244827 203.044586 206.603348 C 204.233856 208.304642 221.998016 226.295837 242.520676 246.58374 C 272.904266 276.619965 279.776276 283.880951 279.521393 285.67868 C 279.208313 287.886505 279.208313 287.886505 243.280884 288.13858 C 207.353394 288.390686 207.353394 288.390686 202.292358 286.073639 C 198.126984 284.166718 190.197952 276.723114 157.490952 244.015564 C 135.633774 222.157959 116.669472 203.519958 115.348015 202.597733 C 113.242767 201.12851 110.364639 200.920303 92.096848 200.915894 C 71.639297 200.910873 71.220322 200.950882 69.752258 203.046753 C 68.475975 204.868912 68.256905 209.56337 68.260933 235.001907 C 68.265114 261.006042 68.049881 265.425507 66.579086 269.544708 C 65.651459 272.1427 62.995022 276.380859 60.675907 278.962891 C 58.356792 281.544922 54.680717 284.608978 52.50692 285.771973 C 48.905769 287.698608 46.930862 287.914154 30.284929 288.197357 C 20.236647 288.368317 11.695218 288.18811 11.304046 287.796906 C 10.912834 287.405701 10.590644 259.803619 10.587984 226.458923 C 10.583644 171.112747 10.730133 165.413696 12.269835 161.026917 C 13.298349 158.096542 15.643821 154.522263 18.281216 151.866211 C 20.659809 149.470734 24.641182 146.558228 27.128683 145.394012 C 31.651434 143.277267 31.651434 143.277267 119.10215 143.022064 C 189.51532 142.816574 206.796127 142.522339 207.802002 141.511856 C 208.705338 140.604172 209.022491 136.931152 208.9478 128.241974 C 208.879913 120.351151 208.451233 115.833878 207.698853 115.081177 C 206.835556 114.21756 184.832596 113.816696 118.42382 113.454575 C 30.294434 112.974045 30.294434 112.974045 25.489145 110.183044 C 22.846237 108.647964 19.145838 105.798569 17.266075 103.85112 C 14.988881 101.492004 13.221233 98.25386 11.96927 94.148453 C 10.322497 88.747894 10.151058 86.027313 10.581767 72.12912 L 11.073284 56.271667 Z M 463.822601 288.336945 C 347.44339 288.306915 347.44339 288.306915 342.757751 286.011627 C 340.180634 284.749207 336.431519 282.114319 334.426331 280.156281 C 332.421082 278.198242 329.578186 273.946838 328.108765 270.708679 C 325.493378 264.945435 325.441925 264.487274 325.671936 249.009506 C 325.813568 239.479889 326.318176 232.702423 326.941986 231.950745 C 327.779785 230.941269 349.898834 230.703583 442.999634 230.703583 C 556.720703 230.703583 558.088806 230.726074 563.903564 232.689758 C 568.388977 234.204498 570.844482 235.808731 574.249268 239.448669 C 576.704712 242.073639 579.601624 246.228867 580.687073 248.682495 C 582.35321 252.449219 582.716492 255.611496 583.021179 268.998352 C 583.33374 282.732361 583.169312 285.088074 581.791931 286.610046 C 580.268066 288.293915 575.356873 288.365784 463.822601 288.336945 Z M 642.488037 56.271667 C 672.229187 55.800232 676.801086 56.0737 681.109863 57.326294 C 684.861389 58.41687 687.911194 60.186127 690.946655 63.032623 C 693.890015 65.792725 696.064392 69.014709 697.51593 72.767151 C 699.685791 78.375977 699.685791 78.375977 699.918579 153.17598 C 700.145203 225.969467 700.201538 228.012573 702.017029 229.339813 C 703.589294 230.489197 715.381348 230.703583 777.027466 230.703583 C 832.63678 230.703583 850.449036 230.980057 851.325745 231.856873 C 852.129944 232.66098 852.47876 237.825165 852.478271 248.915649 C 852.477478 264.602478 852.437744 264.905151 849.586182 270.932648 C 847.996155 274.293976 845.228882 278.510376 843.436951 280.302368 C 841.644775 282.094391 837.864685 284.637817 835.036438 285.954407 C 829.894226 288.348267 829.894226 288.348267 747.723816 288.290741 C 677.798767 288.24173 664.859192 288.019928 660.895203 286.802246 C 657.593994 285.788208 654.621399 283.777832 650.691101 279.90155 C 647.230652 276.488495 644.547729 272.80545 643.556091 270.106934 C 642.107666 266.165802 641.989868 256.490204 642.227356 161.026917 L 642.488037 56.271667 Z M 1025.009521 288.066376 C 948.167786 288.2146 931.140625 288.015045 928.209412 286.93161 C 926.253052 286.208588 923.092529 284.557129 921.186218 283.261719 C 919.279785 281.966278 916.496521 279.233337 915.000977 277.188538 C 913.505615 275.143677 911.584412 271.401245 910.73175 268.872009 C 909.343506 264.754456 909.181458 253.490768 909.181458 161.185532 C 909.181458 82.287506 909.452087 57.827057 910.334595 56.944427 C 911.138 56.141205 916.271118 55.791138 927.245544 55.791138 C 938.924622 55.791138 944.388916 56.194 948.357361 57.347656 C 952.290771 58.491119 954.890015 60.08493 958.153625 63.354248 C 961.117188 66.323212 963.303955 69.723541 964.723633 73.570679 C 966.843811 79.315918 966.852539 79.6091 967.088623 153.530975 C 967.278015 212.863922 967.575562 227.975113 968.57428 228.973984 C 969.563965 229.963867 981.415283 230.277679 1025.686401 230.486206 C 1064.523926 230.669174 1081.864014 230.434967 1082.581299 229.717773 C 1083.294434 229.005066 1083.696411 205.515915 1083.881958 153.731903 C 1084.14502 80.292816 1084.191162 78.666656 1086.170288 73.290985 C 1087.525024 69.610779 1089.681519 66.34787 1092.719482 63.380768 C 1095.466309 60.698212 1099.077271 58.334076 1101.894775 57.374176 C 1105.506714 56.143524 1110.252563 55.791138 1123.218018 55.791138 C 1138.214722 55.791138 1139.960693 55.960663 1140.541138 57.472992 C 1140.896362 58.39801 1141.085815 105.645981 1140.962158 162.468506 C 1140.761475 254.701508 1140.571167 266.236084 1139.189209 270.014282 C 1138.338013 272.341919 1136.142212 275.905701 1134.310059 277.933716 C 1132.477905 279.961731 1128.115479 283.030731 1124.615845 284.753754 C 1118.25293 287.886505 1118.25293 287.886505 1025.009521 288.066376 Z M 326.30011 199.469223 C 325.843445 151.517548 326.058044 145.480209 327.043762 144.494553 C 328.065125 143.473145 349.236908 143.284866 440.704285 143.483627 L 553.10968 143.72789 L 553.365906 171.118027 C 553.598755 196.015579 553.472717 198.617493 551.980835 199.709488 C 550.909119 200.493942 547.568665 200.829666 542.354431 200.676956 C 537.962524 200.54834 487.55365 200.223999 430.334656 199.956161 L 326.30011 199.469223 Z M 581.941406 56.271667 C 581.941406 93.306122 581.941406 93.306122 579.155701 98.622833 C 577.623535 101.547028 574.812378 105.224228 572.908813 106.794479 C 571.005127 108.364685 567.16095 110.505554 564.366028 111.552017 C 559.405212 113.409363 556.537415 113.454575 443.705231 113.454575 C 355.091797 113.454575 327.857056 113.185532 326.9729 112.301315 C 326.168335 111.496872 325.81958 106.316757 325.81958 95.173492 C 325.81958 82.753479 326.177948 78.14505 327.430206 74.462738 C 328.526154 71.240051 330.752838 68.014313 334.397858 64.368805 C 337.57785 61.188385 341.512482 58.348602 344.079681 57.380951 C 348.073761 55.875488 357.331604 55.770721 465.172913 56.01123 L 581.941406 56.271667 Z"/>
        </g>
    </g>
</svg>
