<?xml version="1.0" encoding="UTF-8"?>
<!-- Generated by Pixelmator Pro 3.6.14 -->
<svg width="1395" height="143" viewBox="0 0 1395 143" xmlns="http://www.w3.org/2000/svg">
    <path id="path1" fill="#000000" stroke="none" d="M 509.333008 141.130997 L 562.257019 3.920334 L 586.562988 3.920334 L 639.291016 141.130997 L 612.632996 141.130997 L 574.409973 37.046997 L 536.187012 141.130997 L 509.333008 141.130997 Z M 538.539001 109.181 L 540.304016 87.226898 L 608.517029 87.226898 L 610.281006 109.181 L 538.539001 109.181 Z M 684.629028 142.699005 C 675.219971 142.699005 667.117981 140.542999 660.322998 136.231003 C 653.658997 131.917999 648.432007 125.973 644.642029 118.392998 C 640.982971 110.682999 639.153992 101.796997 639.153992 91.735298 C 639.153992 84.286697 640.198975 77.426201 642.289978 71.153702 C 644.380981 64.881203 647.385986 59.523399 651.307007 55.080399 C 655.22699 50.506699 659.997009 46.978401 665.616028 44.495605 C 671.36499 42.012695 677.833984 40.771301 685.020996 40.771301 C 691.163025 40.771301 696.846985 42.012695 702.075012 44.495605 C 707.432007 46.978401 711.679016 50.2453 714.815979 54.296295 L 714.815979 3.1e-05 L 738.729004 3.1e-05 L 738.729004 141.130997 L 714.815979 141.130997 L 714.815979 128.781998 C 711.809998 132.964005 707.627991 136.362 702.270996 138.975006 C 696.913025 141.457993 691.031982 142.699005 684.629028 142.699005 Z M 689.530029 121.921997 C 693.580994 121.921997 697.23999 121.203003 700.505981 119.765999 C 703.77301 118.328003 706.583008 116.303001 708.934998 113.689003 C 711.286987 110.945 713.051025 107.742996 714.228027 104.084 C 715.533997 100.425003 716.187988 96.308998 716.187988 91.735298 C 716.187988 82.587898 713.77002 75.269997 708.934998 69.781601 C 704.099976 64.293098 697.632019 61.548904 689.530029 61.548904 C 685.609009 61.548904 682.015991 62.267601 678.749023 63.705101 C 675.481995 65.142502 672.671997 67.167999 670.320007 69.781601 C 667.968018 72.395103 666.138 75.596703 664.83197 79.386299 C 663.656006 83.045303 663.067017 87.161598 663.067017 91.735298 C 663.067017 100.883003 665.484985 108.200996 670.320007 113.689003 C 675.155029 119.177002 681.557983 121.921997 689.530029 121.921997 Z M 785.090027 141.130997 L 749.02301 42.339401 L 773.328979 42.339401 L 796.458984 110.749001 L 819.197021 42.339401 L 843.698975 42.339401 L 807.632019 141.130997 L 785.090027 141.130997 Z M 891.377014 142.699005 C 881.968018 142.699005 873.866028 140.542999 867.070984 136.231003 C 860.275024 131.917999 854.982971 125.973 851.192993 118.392998 C 847.533997 110.682999 845.705017 101.796997 845.705017 91.735298 C 845.705017 84.286697 846.75 77.426201 848.841003 71.153702 C 850.932007 64.881203 853.937988 59.523399 857.857971 55.080399 C 861.778015 50.506699 866.547974 46.978401 872.166992 44.495605 C 877.916992 42.012695 884.38501 40.771301 891.572998 40.771301 C 897.453003 40.771301 903.072021 41.947403 908.429993 44.2995 C 913.788025 46.520996 918.099976 49.591995 921.367004 53.512299 L 921.367004 42.339401 L 945.281006 42.339401 L 945.281006 141.130997 L 921.367004 141.130997 L 921.367004 129.565994 C 919.406982 132.311005 916.859009 134.662994 913.721985 136.623001 C 910.71698 138.582993 907.31897 140.085999 903.530029 141.130997 C 899.73999 142.177002 895.689026 142.699005 891.377014 142.699005 Z M 896.080994 121.921997 C 900.132019 121.921997 903.791016 121.203003 907.057983 119.765999 C 910.325012 118.328003 913.133972 116.303001 915.486023 113.689003 C 917.838989 110.945 919.603027 107.742996 920.778992 104.084 C 922.085999 100.425003 922.739014 96.308998 922.739014 91.735298 C 922.739014 82.587898 920.322021 75.269997 915.486023 69.781601 C 910.651001 64.293098 904.182983 61.548904 896.080994 61.548904 C 892.161011 61.548904 888.567017 62.267601 885.299988 63.705101 C 882.03302 65.142502 879.223999 67.233398 876.870972 69.9776 C 874.518982 72.591103 872.690002 75.727402 871.382996 79.386299 C 870.20697 83.045303 869.619019 87.161598 869.619019 91.735298 C 869.619019 100.751999 872.036011 108.07 876.870972 113.689003 C 881.705994 119.177002 888.109985 121.921997 896.080994 121.921997 Z M 965.572021 141.130997 L 965.572021 42.339401 L 989.68103 42.339401 L 989.68103 57.628601 C 992.426025 52.270798 996.47699 48.154495 1001.830017 45.279602 C 1007.190002 42.274002 1013.400024 40.771301 1020.460022 40.771301 C 1027.900024 40.771301 1034.369995 42.4701 1039.859985 45.867699 C 1045.349976 49.134598 1049.599976 53.708298 1052.599976 59.588799 C 1055.609985 65.4692 1057.109985 72.264397 1057.109985 79.974403 L 1057.109985 141.130997 L 1033.199951 141.130997 L 1033.199951 85.070801 C 1033.199951 78.275597 1031.300049 72.787102 1027.51001 68.605499 C 1023.719971 64.293098 1018.690002 62.137001 1012.419983 62.137001 C 1007.97998 62.137001 1004.059998 63.247696 1000.659973 65.4692 C 997.260986 67.560097 994.58197 70.500298 992.622009 74.289902 C 990.661987 78.079597 989.68103 82.391899 989.68103 87.226898 L 989.68103 141.130997 L 965.572021 141.130997 Z M 1120.800049 142.699005 C 1110.609985 142.699005 1101.719971 140.412994 1094.150024 135.839005 C 1086.699951 131.264999 1080.949951 125.123001 1076.900024 117.413002 C 1072.849976 109.703003 1070.819946 101.143997 1070.819946 91.735298 C 1070.819946 84.678703 1071.930054 78.079597 1074.150024 71.937698 C 1076.5 65.795898 1079.900024 60.372803 1084.339966 55.668396 C 1088.790039 50.964096 1094.079956 47.305099 1100.219971 44.691605 C 1106.359985 42.078003 1113.219971 40.771301 1120.800049 40.771301 C 1129.170044 40.771301 1136.810059 42.339401 1143.73999 45.475601 C 1150.660034 48.6119 1156.280029 52.989601 1160.589966 58.608704 C 1165.040039 64.097099 1167.589966 70.696297 1168.23999 78.406197 L 1144.130005 78.406197 C 1143.609985 75.139297 1142.22998 72.264397 1140.01001 69.781601 C 1137.920044 67.167999 1135.23999 65.142502 1131.97998 63.705101 C 1128.839966 62.267601 1125.380005 61.548904 1121.589966 61.548904 C 1115.969971 61.548904 1111.199951 62.921005 1107.280029 65.665199 C 1103.48999 68.278801 1100.609985 71.807098 1098.650024 76.250099 C 1096.689941 80.6931 1095.709961 85.854797 1095.709961 91.735298 C 1095.709961 97.4851 1096.689941 102.647003 1098.650024 107.221001 C 1100.73999 111.664001 1103.680054 115.257004 1107.469971 118.000999 C 1111.390015 120.614998 1116.160034 121.921997 1121.780029 121.921997 C 1127.530029 121.921997 1132.430054 120.418999 1136.47998 117.413002 C 1140.540039 114.407997 1143.209961 110.553001 1144.52002 105.848 L 1168.630005 105.848 C 1167.719971 112.904999 1165.040039 119.242996 1160.589966 124.862 C 1156.280029 130.350006 1150.72998 134.727997 1143.930054 137.994995 C 1137.140015 141.130997 1129.430054 142.699005 1120.800049 142.699005 Z M 1226.569946 142.699005 C 1218.599976 142.699005 1211.469971 141.261993 1205.199951 138.386993 C 1198.930054 135.511993 1193.640015 131.656998 1189.319946 126.821999 C 1185.140015 121.856003 1181.939941 116.367996 1179.719971 110.357002 C 1177.5 104.214996 1176.390015 97.877098 1176.390015 91.3433 C 1176.390015 84.809402 1177.369995 78.536903 1179.329956 72.525803 C 1181.420044 66.514603 1184.48999 61.156898 1188.540039 56.452499 C 1192.589966 51.6175 1197.619995 47.827805 1203.630005 45.083603 C 1209.650024 42.208694 1216.699951 40.771301 1224.800049 40.771301 C 1233.040039 40.771301 1240.160034 42.143402 1246.170044 44.887604 C 1252.180054 47.501099 1257.150024 51.160095 1261.069946 55.864502 C 1264.98999 60.438202 1267.859985 65.534599 1269.689941 71.153702 C 1271.650024 76.772797 1272.630005 82.522598 1272.630005 88.403 C 1272.630005 90.101799 1272.569946 91.669998 1272.439941 93.107399 C 1272.439941 94.544899 1272.369995 95.786301 1272.23999 96.831703 L 1190.300049 96.831703 L 1190.300049 80.366402 L 1248.719971 80.366402 C 1248.189941 74.093903 1245.839966 68.997498 1241.660034 65.077202 C 1237.609985 61.026199 1231.98999 59.000702 1224.800049 59.000702 C 1220.75 59.000702 1217.089966 59.719398 1213.829956 61.156898 C 1210.689941 62.4636 1208.01001 64.489098 1205.790039 67.233398 C 1203.699951 69.846901 1202.069946 73.179199 1200.890015 77.230202 C 1199.839966 81.150497 1199.319946 85.724197 1199.319946 90.951202 C 1199.319946 97.354401 1200.430054 102.973999 1202.650024 107.808998 C 1204.880005 112.513 1208.01001 116.171997 1212.060059 118.785004 C 1216.109985 121.399002 1220.949951 122.706001 1226.569946 122.706001 C 1232.839966 122.706001 1237.939941 121.463997 1241.859985 118.981003 C 1245.780029 116.499001 1248.329956 112.904999 1249.5 108.200996 L 1273.02002 108.200996 C 1271.97998 115.125999 1269.300049 121.203003 1264.98999 126.43 C 1260.670044 131.526001 1255.25 135.511993 1248.719971 138.386993 C 1242.180054 141.261993 1234.800049 142.699005 1226.569946 142.699005 Z M 1327.829956 142.699005 C 1318.420044 142.699005 1310.319946 140.542999 1303.52002 136.231003 C 1296.859985 131.917999 1291.630005 125.973 1287.839966 118.392998 C 1284.180054 110.682999 1282.349976 101.796997 1282.349976 91.735298 C 1282.349976 84.286697 1283.400024 77.426201 1285.48999 71.153702 C 1287.579956 64.881203 1290.589966 59.523399 1294.51001 55.080399 C 1298.430054 50.506699 1303.199951 46.978401 1308.810059 44.495605 C 1314.560059 42.012695 1321.030029 40.771301 1328.219971 40.771301 C 1334.359985 40.771301 1340.050049 42.012695 1345.27002 44.495605 C 1350.630005 46.978401 1354.880005 50.2453 1358.01001 54.296295 L 1358.01001 3.1e-05 L 1381.930054 3.1e-05 L 1381.930054 141.130997 L 1358.01001 141.130997 L 1358.01001 128.781998 C 1355.01001 132.964005 1350.829956 136.362 1345.469971 138.975006 C 1340.109985 141.457993 1334.22998 142.699005 1327.829956 142.699005 Z M 1332.72998 121.921997 C 1336.780029 121.921997 1340.439941 121.203003 1343.709961 119.765999 C 1346.969971 118.328003 1349.780029 116.303001 1352.130005 113.689003 C 1354.48999 110.945 1356.25 107.742996 1357.430054 104.084 C 1358.72998 100.425003 1359.390015 96.308998 1359.390015 91.735298 C 1359.390015 82.587898 1356.969971 75.269997 1352.130005 69.781601 C 1347.300049 64.293098 1340.829956 61.548904 1332.72998 61.548904 C 1328.810059 61.548904 1325.209961 62.267601 1321.949951 63.705101 C 1318.680054 65.142502 1315.869995 67.167999 1313.52002 69.781601 C 1311.170044 72.395103 1309.339966 75.596703 1308.030029 79.386299 C 1306.849976 83.045303 1306.27002 87.161598 1306.27002 91.735298 C 1306.27002 100.883003 1308.680054 108.200996 1313.52002 113.689003 C 1318.349976 119.177002 1324.76001 121.921997 1332.72998 121.921997 Z"/>
    <linearGradient id="linearGradient1" x1="494.6" y1="-24.4648" x2="523.499" y2="237.567" gradientUnits="userSpaceOnUse">
        <stop offset="1e-05" stop-color="#f6e4f0" stop-opacity="1"/>
        <stop offset="0.491919" stop-color="#e16766" stop-opacity="1"/>
        <stop offset="1" stop-color="#f756f2" stop-opacity="1"/>
    </linearGradient>
    <path id="path2" fill="url(#linearGradient1)" stroke="none" d="M 509.333008 141.130997 L 562.257019 3.920334 L 586.562988 3.920334 L 639.291016 141.130997 L 612.632996 141.130997 L 574.409973 37.046997 L 536.187012 141.130997 L 509.333008 141.130997 Z M 538.539001 109.181 L 540.304016 87.226898 L 608.517029 87.226898 L 610.281006 109.181 L 538.539001 109.181 Z M 684.629028 142.699005 C 675.219971 142.699005 667.117981 140.542999 660.322998 136.231003 C 653.658997 131.917999 648.432007 125.973 644.642029 118.392998 C 640.982971 110.682999 639.153992 101.796997 639.153992 91.735298 C 639.153992 84.286697 640.198975 77.426201 642.289978 71.153702 C 644.380981 64.881203 647.385986 59.523399 651.307007 55.080399 C 655.22699 50.506699 659.997009 46.978401 665.616028 44.495605 C 671.36499 42.012695 677.833984 40.771301 685.020996 40.771301 C 691.163025 40.771301 696.846985 42.012695 702.075012 44.495605 C 707.432007 46.978401 711.679016 50.2453 714.815979 54.296295 L 714.815979 3.1e-05 L 738.729004 3.1e-05 L 738.729004 141.130997 L 714.815979 141.130997 L 714.815979 128.781998 C 711.809998 132.964005 707.627991 136.362 702.270996 138.975006 C 696.913025 141.457993 691.031982 142.699005 684.629028 142.699005 Z M 689.530029 121.921997 C 693.580994 121.921997 697.23999 121.203003 700.505981 119.765999 C 703.77301 118.328003 706.583008 116.303001 708.934998 113.689003 C 711.286987 110.945 713.051025 107.742996 714.228027 104.084 C 715.533997 100.425003 716.187988 96.308998 716.187988 91.735298 C 716.187988 82.587898 713.77002 75.269997 708.934998 69.781601 C 704.099976 64.293098 697.632019 61.548904 689.530029 61.548904 C 685.609009 61.548904 682.015991 62.267601 678.749023 63.705101 C 675.481995 65.142502 672.671997 67.167999 670.320007 69.781601 C 667.968018 72.395103 666.138 75.596703 664.83197 79.386299 C 663.656006 83.045303 663.067017 87.161598 663.067017 91.735298 C 663.067017 100.883003 665.484985 108.200996 670.320007 113.689003 C 675.155029 119.177002 681.557983 121.921997 689.530029 121.921997 Z M 785.090027 141.130997 L 749.02301 42.339401 L 773.328979 42.339401 L 796.458984 110.749001 L 819.197021 42.339401 L 843.698975 42.339401 L 807.632019 141.130997 L 785.090027 141.130997 Z M 891.377014 142.699005 C 881.968018 142.699005 873.866028 140.542999 867.070984 136.231003 C 860.275024 131.917999 854.982971 125.973 851.192993 118.392998 C 847.533997 110.682999 845.705017 101.796997 845.705017 91.735298 C 845.705017 84.286697 846.75 77.426201 848.841003 71.153702 C 850.932007 64.881203 853.937988 59.523399 857.857971 55.080399 C 861.778015 50.506699 866.547974 46.978401 872.166992 44.495605 C 877.916992 42.012695 884.38501 40.771301 891.572998 40.771301 C 897.453003 40.771301 903.072021 41.947403 908.429993 44.2995 C 913.788025 46.520996 918.099976 49.591995 921.367004 53.512299 L 921.367004 42.339401 L 945.281006 42.339401 L 945.281006 141.130997 L 921.367004 141.130997 L 921.367004 129.565994 C 919.406982 132.311005 916.859009 134.662994 913.721985 136.623001 C 910.71698 138.582993 907.31897 140.085999 903.530029 141.130997 C 899.73999 142.177002 895.689026 142.699005 891.377014 142.699005 Z M 896.080994 121.921997 C 900.132019 121.921997 903.791016 121.203003 907.057983 119.765999 C 910.325012 118.328003 913.133972 116.303001 915.486023 113.689003 C 917.838989 110.945 919.603027 107.742996 920.778992 104.084 C 922.085999 100.425003 922.739014 96.308998 922.739014 91.735298 C 922.739014 82.587898 920.322021 75.269997 915.486023 69.781601 C 910.651001 64.293098 904.182983 61.548904 896.080994 61.548904 C 892.161011 61.548904 888.567017 62.267601 885.299988 63.705101 C 882.03302 65.142502 879.223999 67.233398 876.870972 69.9776 C 874.518982 72.591103 872.690002 75.727402 871.382996 79.386299 C 870.20697 83.045303 869.619019 87.161598 869.619019 91.735298 C 869.619019 100.751999 872.036011 108.07 876.870972 113.689003 C 881.705994 119.177002 888.109985 121.921997 896.080994 121.921997 Z M 965.572021 141.130997 L 965.572021 42.339401 L 989.68103 42.339401 L 989.68103 57.628601 C 992.426025 52.270798 996.47699 48.154495 1001.830017 45.279602 C 1007.190002 42.274002 1013.400024 40.771301 1020.460022 40.771301 C 1027.900024 40.771301 1034.369995 42.4701 1039.859985 45.867699 C 1045.349976 49.134598 1049.599976 53.708298 1052.599976 59.588799 C 1055.609985 65.4692 1057.109985 72.264397 1057.109985 79.974403 L 1057.109985 141.130997 L 1033.199951 141.130997 L 1033.199951 85.070801 C 1033.199951 78.275597 1031.300049 72.787102 1027.51001 68.605499 C 1023.719971 64.293098 1018.690002 62.137001 1012.419983 62.137001 C 1007.97998 62.137001 1004.059998 63.247696 1000.659973 65.4692 C 997.260986 67.560097 994.58197 70.500298 992.622009 74.289902 C 990.661987 78.079597 989.68103 82.391899 989.68103 87.226898 L 989.68103 141.130997 L 965.572021 141.130997 Z M 1120.800049 142.699005 C 1110.609985 142.699005 1101.719971 140.412994 1094.150024 135.839005 C 1086.699951 131.264999 1080.949951 125.123001 1076.900024 117.413002 C 1072.849976 109.703003 1070.819946 101.143997 1070.819946 91.735298 C 1070.819946 84.678703 1071.930054 78.079597 1074.150024 71.937698 C 1076.5 65.795898 1079.900024 60.372803 1084.339966 55.668396 C 1088.790039 50.964096 1094.079956 47.305099 1100.219971 44.691605 C 1106.359985 42.078003 1113.219971 40.771301 1120.800049 40.771301 C 1129.170044 40.771301 1136.810059 42.339401 1143.73999 45.475601 C 1150.660034 48.6119 1156.280029 52.989601 1160.589966 58.608704 C 1165.040039 64.097099 1167.589966 70.696297 1168.23999 78.406197 L 1144.130005 78.406197 C 1143.609985 75.139297 1142.22998 72.264397 1140.01001 69.781601 C 1137.920044 67.167999 1135.23999 65.142502 1131.97998 63.705101 C 1128.839966 62.267601 1125.380005 61.548904 1121.589966 61.548904 C 1115.969971 61.548904 1111.199951 62.921005 1107.280029 65.665199 C 1103.48999 68.278801 1100.609985 71.807098 1098.650024 76.250099 C 1096.689941 80.6931 1095.709961 85.854797 1095.709961 91.735298 C 1095.709961 97.4851 1096.689941 102.647003 1098.650024 107.221001 C 1100.73999 111.664001 1103.680054 115.257004 1107.469971 118.000999 C 1111.390015 120.614998 1116.160034 121.921997 1121.780029 121.921997 C 1127.530029 121.921997 1132.430054 120.418999 1136.47998 117.413002 C 1140.540039 114.407997 1143.209961 110.553001 1144.52002 105.848 L 1168.630005 105.848 C 1167.719971 112.904999 1165.040039 119.242996 1160.589966 124.862 C 1156.280029 130.350006 1150.72998 134.727997 1143.930054 137.994995 C 1137.140015 141.130997 1129.430054 142.699005 1120.800049 142.699005 Z M 1226.569946 142.699005 C 1218.599976 142.699005 1211.469971 141.261993 1205.199951 138.386993 C 1198.930054 135.511993 1193.640015 131.656998 1189.319946 126.821999 C 1185.140015 121.856003 1181.939941 116.367996 1179.719971 110.357002 C 1177.5 104.214996 1176.390015 97.877098 1176.390015 91.3433 C 1176.390015 84.809402 1177.369995 78.536903 1179.329956 72.525803 C 1181.420044 66.514603 1184.48999 61.156898 1188.540039 56.452499 C 1192.589966 51.6175 1197.619995 47.827805 1203.630005 45.083603 C 1209.650024 42.208694 1216.699951 40.771301 1224.800049 40.771301 C 1233.040039 40.771301 1240.160034 42.143402 1246.170044 44.887604 C 1252.180054 47.501099 1257.150024 51.160095 1261.069946 55.864502 C 1264.98999 60.438202 1267.859985 65.534599 1269.689941 71.153702 C 1271.650024 76.772797 1272.630005 82.522598 1272.630005 88.403 C 1272.630005 90.101799 1272.569946 91.669998 1272.439941 93.107399 C 1272.439941 94.544899 1272.369995 95.786301 1272.23999 96.831703 L 1190.300049 96.831703 L 1190.300049 80.366402 L 1248.719971 80.366402 C 1248.189941 74.093903 1245.839966 68.997498 1241.660034 65.077202 C 1237.609985 61.026199 1231.98999 59.000702 1224.800049 59.000702 C 1220.75 59.000702 1217.089966 59.719398 1213.829956 61.156898 C 1210.689941 62.4636 1208.01001 64.489098 1205.790039 67.233398 C 1203.699951 69.846901 1202.069946 73.179199 1200.890015 77.230202 C 1199.839966 81.150497 1199.319946 85.724197 1199.319946 90.951202 C 1199.319946 97.354401 1200.430054 102.973999 1202.650024 107.808998 C 1204.880005 112.513 1208.01001 116.171997 1212.060059 118.785004 C 1216.109985 121.399002 1220.949951 122.706001 1226.569946 122.706001 C 1232.839966 122.706001 1237.939941 121.463997 1241.859985 118.981003 C 1245.780029 116.499001 1248.329956 112.904999 1249.5 108.200996 L 1273.02002 108.200996 C 1271.97998 115.125999 1269.300049 121.203003 1264.98999 126.43 C 1260.670044 131.526001 1255.25 135.511993 1248.719971 138.386993 C 1242.180054 141.261993 1234.800049 142.699005 1226.569946 142.699005 Z M 1327.829956 142.699005 C 1318.420044 142.699005 1310.319946 140.542999 1303.52002 136.231003 C 1296.859985 131.917999 1291.630005 125.973 1287.839966 118.392998 C 1284.180054 110.682999 1282.349976 101.796997 1282.349976 91.735298 C 1282.349976 84.286697 1283.400024 77.426201 1285.48999 71.153702 C 1287.579956 64.881203 1290.589966 59.523399 1294.51001 55.080399 C 1298.430054 50.506699 1303.199951 46.978401 1308.810059 44.495605 C 1314.560059 42.012695 1321.030029 40.771301 1328.219971 40.771301 C 1334.359985 40.771301 1340.050049 42.012695 1345.27002 44.495605 C 1350.630005 46.978401 1354.880005 50.2453 1358.01001 54.296295 L 1358.01001 3.1e-05 L 1381.930054 3.1e-05 L 1381.930054 141.130997 L 1358.01001 141.130997 L 1358.01001 128.781998 C 1355.01001 132.964005 1350.829956 136.362 1345.469971 138.975006 C 1340.109985 141.457993 1334.22998 142.699005 1327.829956 142.699005 Z M 1332.72998 121.921997 C 1336.780029 121.921997 1340.439941 121.203003 1343.709961 119.765999 C 1346.969971 118.328003 1349.780029 116.303001 1352.130005 113.689003 C 1354.48999 110.945 1356.25 107.742996 1357.430054 104.084 C 1358.72998 100.425003 1359.390015 96.308998 1359.390015 91.735298 C 1359.390015 82.587898 1356.969971 75.269997 1352.130005 69.781601 C 1347.300049 64.293098 1340.829956 61.548904 1332.72998 61.548904 C 1328.810059 61.548904 1325.209961 62.267601 1321.949951 63.705101 C 1318.680054 65.142502 1315.869995 67.167999 1313.52002 69.781601 C 1311.170044 72.395103 1309.339966 75.596703 1308.030029 79.386299 C 1306.849976 83.045303 1306.27002 87.161598 1306.27002 91.735298 C 1306.27002 100.883003 1308.680054 108.200996 1313.52002 113.689003 C 1318.349976 119.177002 1324.76001 121.921997 1332.72998 121.921997 Z"/>
    <radialGradient id="radialGradient1" cx="1253.87" cy="-5.57294" r="566.351522" fx="1253.87" fy="-5.57294" gradientUnits="userSpaceOnUse">
        <stop offset="1e-05" stop-color="#ffffff" stop-opacity="0.6"/>
        <stop offset="1" stop-color="#ffffff" stop-opacity="0"/>
    </radialGradient>
    <path id="path3" fill="url(#radialGradient1)" stroke="none" d="M 509.333008 141.130997 L 562.257019 3.920334 L 586.562988 3.920334 L 639.291016 141.130997 L 612.632996 141.130997 L 574.409973 37.046997 L 536.187012 141.130997 L 509.333008 141.130997 Z M 538.539001 109.181 L 540.304016 87.226898 L 608.517029 87.226898 L 610.281006 109.181 L 538.539001 109.181 Z M 684.629028 142.699005 C 675.219971 142.699005 667.117981 140.542999 660.322998 136.231003 C 653.658997 131.917999 648.432007 125.973 644.642029 118.392998 C 640.982971 110.682999 639.153992 101.796997 639.153992 91.735298 C 639.153992 84.286697 640.198975 77.426201 642.289978 71.153702 C 644.380981 64.881203 647.385986 59.523399 651.307007 55.080399 C 655.22699 50.506699 659.997009 46.978401 665.616028 44.495605 C 671.36499 42.012695 677.833984 40.771301 685.020996 40.771301 C 691.163025 40.771301 696.846985 42.012695 702.075012 44.495605 C 707.432007 46.978401 711.679016 50.2453 714.815979 54.296295 L 714.815979 3.1e-05 L 738.729004 3.1e-05 L 738.729004 141.130997 L 714.815979 141.130997 L 714.815979 128.781998 C 711.809998 132.964005 707.627991 136.362 702.270996 138.975006 C 696.913025 141.457993 691.031982 142.699005 684.629028 142.699005 Z M 689.530029 121.921997 C 693.580994 121.921997 697.23999 121.203003 700.505981 119.765999 C 703.77301 118.328003 706.583008 116.303001 708.934998 113.689003 C 711.286987 110.945 713.051025 107.742996 714.228027 104.084 C 715.533997 100.425003 716.187988 96.308998 716.187988 91.735298 C 716.187988 82.587898 713.77002 75.269997 708.934998 69.781601 C 704.099976 64.293098 697.632019 61.548904 689.530029 61.548904 C 685.609009 61.548904 682.015991 62.267601 678.749023 63.705101 C 675.481995 65.142502 672.671997 67.167999 670.320007 69.781601 C 667.968018 72.395103 666.138 75.596703 664.83197 79.386299 C 663.656006 83.045303 663.067017 87.161598 663.067017 91.735298 C 663.067017 100.883003 665.484985 108.200996 670.320007 113.689003 C 675.155029 119.177002 681.557983 121.921997 689.530029 121.921997 Z M 785.090027 141.130997 L 749.02301 42.339401 L 773.328979 42.339401 L 796.458984 110.749001 L 819.197021 42.339401 L 843.698975 42.339401 L 807.632019 141.130997 L 785.090027 141.130997 Z M 891.377014 142.699005 C 881.968018 142.699005 873.866028 140.542999 867.070984 136.231003 C 860.275024 131.917999 854.982971 125.973 851.192993 118.392998 C 847.533997 110.682999 845.705017 101.796997 845.705017 91.735298 C 845.705017 84.286697 846.75 77.426201 848.841003 71.153702 C 850.932007 64.881203 853.937988 59.523399 857.857971 55.080399 C 861.778015 50.506699 866.547974 46.978401 872.166992 44.495605 C 877.916992 42.012695 884.38501 40.771301 891.572998 40.771301 C 897.453003 40.771301 903.072021 41.947403 908.429993 44.2995 C 913.788025 46.520996 918.099976 49.591995 921.367004 53.512299 L 921.367004 42.339401 L 945.281006 42.339401 L 945.281006 141.130997 L 921.367004 141.130997 L 921.367004 129.565994 C 919.406982 132.311005 916.859009 134.662994 913.721985 136.623001 C 910.71698 138.582993 907.31897 140.085999 903.530029 141.130997 C 899.73999 142.177002 895.689026 142.699005 891.377014 142.699005 Z M 896.080994 121.921997 C 900.132019 121.921997 903.791016 121.203003 907.057983 119.765999 C 910.325012 118.328003 913.133972 116.303001 915.486023 113.689003 C 917.838989 110.945 919.603027 107.742996 920.778992 104.084 C 922.085999 100.425003 922.739014 96.308998 922.739014 91.735298 C 922.739014 82.587898 920.322021 75.269997 915.486023 69.781601 C 910.651001 64.293098 904.182983 61.548904 896.080994 61.548904 C 892.161011 61.548904 888.567017 62.267601 885.299988 63.705101 C 882.03302 65.142502 879.223999 67.233398 876.870972 69.9776 C 874.518982 72.591103 872.690002 75.727402 871.382996 79.386299 C 870.20697 83.045303 869.619019 87.161598 869.619019 91.735298 C 869.619019 100.751999 872.036011 108.07 876.870972 113.689003 C 881.705994 119.177002 888.109985 121.921997 896.080994 121.921997 Z M 965.572021 141.130997 L 965.572021 42.339401 L 989.68103 42.339401 L 989.68103 57.628601 C 992.426025 52.270798 996.47699 48.154495 1001.830017 45.279602 C 1007.190002 42.274002 1013.400024 40.771301 1020.460022 40.771301 C 1027.900024 40.771301 1034.369995 42.4701 1039.859985 45.867699 C 1045.349976 49.134598 1049.599976 53.708298 1052.599976 59.588799 C 1055.609985 65.4692 1057.109985 72.264397 1057.109985 79.974403 L 1057.109985 141.130997 L 1033.199951 141.130997 L 1033.199951 85.070801 C 1033.199951 78.275597 1031.300049 72.787102 1027.51001 68.605499 C 1023.719971 64.293098 1018.690002 62.137001 1012.419983 62.137001 C 1007.97998 62.137001 1004.059998 63.247696 1000.659973 65.4692 C 997.260986 67.560097 994.58197 70.500298 992.622009 74.289902 C 990.661987 78.079597 989.68103 82.391899 989.68103 87.226898 L 989.68103 141.130997 L 965.572021 141.130997 Z M 1120.800049 142.699005 C 1110.609985 142.699005 1101.719971 140.412994 1094.150024 135.839005 C 1086.699951 131.264999 1080.949951 125.123001 1076.900024 117.413002 C 1072.849976 109.703003 1070.819946 101.143997 1070.819946 91.735298 C 1070.819946 84.678703 1071.930054 78.079597 1074.150024 71.937698 C 1076.5 65.795898 1079.900024 60.372803 1084.339966 55.668396 C 1088.790039 50.964096 1094.079956 47.305099 1100.219971 44.691605 C 1106.359985 42.078003 1113.219971 40.771301 1120.800049 40.771301 C 1129.170044 40.771301 1136.810059 42.339401 1143.73999 45.475601 C 1150.660034 48.6119 1156.280029 52.989601 1160.589966 58.608704 C 1165.040039 64.097099 1167.589966 70.696297 1168.23999 78.406197 L 1144.130005 78.406197 C 1143.609985 75.139297 1142.22998 72.264397 1140.01001 69.781601 C 1137.920044 67.167999 1135.23999 65.142502 1131.97998 63.705101 C 1128.839966 62.267601 1125.380005 61.548904 1121.589966 61.548904 C 1115.969971 61.548904 1111.199951 62.921005 1107.280029 65.665199 C 1103.48999 68.278801 1100.609985 71.807098 1098.650024 76.250099 C 1096.689941 80.6931 1095.709961 85.854797 1095.709961 91.735298 C 1095.709961 97.4851 1096.689941 102.647003 1098.650024 107.221001 C 1100.73999 111.664001 1103.680054 115.257004 1107.469971 118.000999 C 1111.390015 120.614998 1116.160034 121.921997 1121.780029 121.921997 C 1127.530029 121.921997 1132.430054 120.418999 1136.47998 117.413002 C 1140.540039 114.407997 1143.209961 110.553001 1144.52002 105.848 L 1168.630005 105.848 C 1167.719971 112.904999 1165.040039 119.242996 1160.589966 124.862 C 1156.280029 130.350006 1150.72998 134.727997 1143.930054 137.994995 C 1137.140015 141.130997 1129.430054 142.699005 1120.800049 142.699005 Z M 1226.569946 142.699005 C 1218.599976 142.699005 1211.469971 141.261993 1205.199951 138.386993 C 1198.930054 135.511993 1193.640015 131.656998 1189.319946 126.821999 C 1185.140015 121.856003 1181.939941 116.367996 1179.719971 110.357002 C 1177.5 104.214996 1176.390015 97.877098 1176.390015 91.3433 C 1176.390015 84.809402 1177.369995 78.536903 1179.329956 72.525803 C 1181.420044 66.514603 1184.48999 61.156898 1188.540039 56.452499 C 1192.589966 51.6175 1197.619995 47.827805 1203.630005 45.083603 C 1209.650024 42.208694 1216.699951 40.771301 1224.800049 40.771301 C 1233.040039 40.771301 1240.160034 42.143402 1246.170044 44.887604 C 1252.180054 47.501099 1257.150024 51.160095 1261.069946 55.864502 C 1264.98999 60.438202 1267.859985 65.534599 1269.689941 71.153702 C 1271.650024 76.772797 1272.630005 82.522598 1272.630005 88.403 C 1272.630005 90.101799 1272.569946 91.669998 1272.439941 93.107399 C 1272.439941 94.544899 1272.369995 95.786301 1272.23999 96.831703 L 1190.300049 96.831703 L 1190.300049 80.366402 L 1248.719971 80.366402 C 1248.189941 74.093903 1245.839966 68.997498 1241.660034 65.077202 C 1237.609985 61.026199 1231.98999 59.000702 1224.800049 59.000702 C 1220.75 59.000702 1217.089966 59.719398 1213.829956 61.156898 C 1210.689941 62.4636 1208.01001 64.489098 1205.790039 67.233398 C 1203.699951 69.846901 1202.069946 73.179199 1200.890015 77.230202 C 1199.839966 81.150497 1199.319946 85.724197 1199.319946 90.951202 C 1199.319946 97.354401 1200.430054 102.973999 1202.650024 107.808998 C 1204.880005 112.513 1208.01001 116.171997 1212.060059 118.785004 C 1216.109985 121.399002 1220.949951 122.706001 1226.569946 122.706001 C 1232.839966 122.706001 1237.939941 121.463997 1241.859985 118.981003 C 1245.780029 116.499001 1248.329956 112.904999 1249.5 108.200996 L 1273.02002 108.200996 C 1271.97998 115.125999 1269.300049 121.203003 1264.98999 126.43 C 1260.670044 131.526001 1255.25 135.511993 1248.719971 138.386993 C 1242.180054 141.261993 1234.800049 142.699005 1226.569946 142.699005 Z M 1327.829956 142.699005 C 1318.420044 142.699005 1310.319946 140.542999 1303.52002 136.231003 C 1296.859985 131.917999 1291.630005 125.973 1287.839966 118.392998 C 1284.180054 110.682999 1282.349976 101.796997 1282.349976 91.735298 C 1282.349976 84.286697 1283.400024 77.426201 1285.48999 71.153702 C 1287.579956 64.881203 1290.589966 59.523399 1294.51001 55.080399 C 1298.430054 50.506699 1303.199951 46.978401 1308.810059 44.495605 C 1314.560059 42.012695 1321.030029 40.771301 1328.219971 40.771301 C 1334.359985 40.771301 1340.050049 42.012695 1345.27002 44.495605 C 1350.630005 46.978401 1354.880005 50.2453 1358.01001 54.296295 L 1358.01001 3.1e-05 L 1381.930054 3.1e-05 L 1381.930054 141.130997 L 1358.01001 141.130997 L 1358.01001 128.781998 C 1355.01001 132.964005 1350.829956 136.362 1345.469971 138.975006 C 1340.109985 141.457993 1334.22998 142.699005 1327.829956 142.699005 Z M 1332.72998 121.921997 C 1336.780029 121.921997 1340.439941 121.203003 1343.709961 119.765999 C 1346.969971 118.328003 1349.780029 116.303001 1352.130005 113.689003 C 1354.48999 110.945 1356.25 107.742996 1357.430054 104.084 C 1358.72998 100.425003 1359.390015 96.308998 1359.390015 91.735298 C 1359.390015 82.587898 1356.969971 75.269997 1352.130005 69.781601 C 1347.300049 64.293098 1340.829956 61.548904 1332.72998 61.548904 C 1328.810059 61.548904 1325.209961 62.267601 1321.949951 63.705101 C 1318.680054 65.142502 1315.869995 67.167999 1313.52002 69.781601 C 1311.170044 72.395103 1309.339966 75.596703 1308.030029 79.386299 C 1306.849976 83.045303 1306.27002 87.161598 1306.27002 91.735298 C 1306.27002 100.883003 1308.680054 108.200996 1313.52002 113.689003 C 1318.349976 119.177002 1324.76001 121.921997 1332.72998 121.921997 Z"/>
    <linearGradient id="linearGradient2" x1="457.378" y1="-75.2553" x2="470.81" y2="249.97" gradientUnits="userSpaceOnUse">
        <stop offset="1e-05" stop-color="#f6e4f0" stop-opacity="1"/>
        <stop offset="0.491919" stop-color="#e17f66" stop-opacity="1"/>
        <stop offset="1" stop-color="#ff6200" stop-opacity="1"/>
    </linearGradient>
    <path id="path4" fill="url(#linearGradient2)" stroke="none" d="M 509.333008 141.130997 L 562.257019 3.920334 L 586.562988 3.920334 L 639.291016 141.130997 L 612.632996 141.130997 L 574.409973 37.046997 L 536.187012 141.130997 L 509.333008 141.130997 Z M 538.539001 109.181 L 540.304016 87.226898 L 608.517029 87.226898 L 610.281006 109.181 L 538.539001 109.181 Z M 684.629028 142.699005 C 675.219971 142.699005 667.117981 140.542999 660.322998 136.231003 C 653.658997 131.917999 648.432007 125.973 644.642029 118.392998 C 640.982971 110.682999 639.153992 101.796997 639.153992 91.735298 C 639.153992 84.286697 640.198975 77.426201 642.289978 71.153702 C 644.380981 64.881203 647.385986 59.523399 651.307007 55.080399 C 655.22699 50.506699 659.997009 46.978401 665.616028 44.495605 C 671.36499 42.012695 677.833984 40.771301 685.020996 40.771301 C 691.163025 40.771301 696.846985 42.012695 702.075012 44.495605 C 707.432007 46.978401 711.679016 50.2453 714.815979 54.296295 L 714.815979 3.1e-05 L 738.729004 3.1e-05 L 738.729004 141.130997 L 714.815979 141.130997 L 714.815979 128.781998 C 711.809998 132.964005 707.627991 136.362 702.270996 138.975006 C 696.913025 141.457993 691.031982 142.699005 684.629028 142.699005 Z M 689.530029 121.921997 C 693.580994 121.921997 697.23999 121.203003 700.505981 119.765999 C 703.77301 118.328003 706.583008 116.303001 708.934998 113.689003 C 711.286987 110.945 713.051025 107.742996 714.228027 104.084 C 715.533997 100.425003 716.187988 96.308998 716.187988 91.735298 C 716.187988 82.587898 713.77002 75.269997 708.934998 69.781601 C 704.099976 64.293098 697.632019 61.548904 689.530029 61.548904 C 685.609009 61.548904 682.015991 62.267601 678.749023 63.705101 C 675.481995 65.142502 672.671997 67.167999 670.320007 69.781601 C 667.968018 72.395103 666.138 75.596703 664.83197 79.386299 C 663.656006 83.045303 663.067017 87.161598 663.067017 91.735298 C 663.067017 100.883003 665.484985 108.200996 670.320007 113.689003 C 675.155029 119.177002 681.557983 121.921997 689.530029 121.921997 Z M 785.090027 141.130997 L 749.02301 42.339401 L 773.328979 42.339401 L 796.458984 110.749001 L 819.197021 42.339401 L 843.698975 42.339401 L 807.632019 141.130997 L 785.090027 141.130997 Z M 891.377014 142.699005 C 881.968018 142.699005 873.866028 140.542999 867.070984 136.231003 C 860.275024 131.917999 854.982971 125.973 851.192993 118.392998 C 847.533997 110.682999 845.705017 101.796997 845.705017 91.735298 C 845.705017 84.286697 846.75 77.426201 848.841003 71.153702 C 850.932007 64.881203 853.937988 59.523399 857.857971 55.080399 C 861.778015 50.506699 866.547974 46.978401 872.166992 44.495605 C 877.916992 42.012695 884.38501 40.771301 891.572998 40.771301 C 897.453003 40.771301 903.072021 41.947403 908.429993 44.2995 C 913.788025 46.520996 918.099976 49.591995 921.367004 53.512299 L 921.367004 42.339401 L 945.281006 42.339401 L 945.281006 141.130997 L 921.367004 141.130997 L 921.367004 129.565994 C 919.406982 132.311005 916.859009 134.662994 913.721985 136.623001 C 910.71698 138.582993 907.31897 140.085999 903.530029 141.130997 C 899.73999 142.177002 895.689026 142.699005 891.377014 142.699005 Z M 896.080994 121.921997 C 900.132019 121.921997 903.791016 121.203003 907.057983 119.765999 C 910.325012 118.328003 913.133972 116.303001 915.486023 113.689003 C 917.838989 110.945 919.603027 107.742996 920.778992 104.084 C 922.085999 100.425003 922.739014 96.308998 922.739014 91.735298 C 922.739014 82.587898 920.322021 75.269997 915.486023 69.781601 C 910.651001 64.293098 904.182983 61.548904 896.080994 61.548904 C 892.161011 61.548904 888.567017 62.267601 885.299988 63.705101 C 882.03302 65.142502 879.223999 67.233398 876.870972 69.9776 C 874.518982 72.591103 872.690002 75.727402 871.382996 79.386299 C 870.20697 83.045303 869.619019 87.161598 869.619019 91.735298 C 869.619019 100.751999 872.036011 108.07 876.870972 113.689003 C 881.705994 119.177002 888.109985 121.921997 896.080994 121.921997 Z M 965.572021 141.130997 L 965.572021 42.339401 L 989.68103 42.339401 L 989.68103 57.628601 C 992.426025 52.270798 996.47699 48.154495 1001.830017 45.279602 C 1007.190002 42.274002 1013.400024 40.771301 1020.460022 40.771301 C 1027.900024 40.771301 1034.369995 42.4701 1039.859985 45.867699 C 1045.349976 49.134598 1049.599976 53.708298 1052.599976 59.588799 C 1055.609985 65.4692 1057.109985 72.264397 1057.109985 79.974403 L 1057.109985 141.130997 L 1033.199951 141.130997 L 1033.199951 85.070801 C 1033.199951 78.275597 1031.300049 72.787102 1027.51001 68.605499 C 1023.719971 64.293098 1018.690002 62.137001 1012.419983 62.137001 C 1007.97998 62.137001 1004.059998 63.247696 1000.659973 65.4692 C 997.260986 67.560097 994.58197 70.500298 992.622009 74.289902 C 990.661987 78.079597 989.68103 82.391899 989.68103 87.226898 L 989.68103 141.130997 L 965.572021 141.130997 Z M 1120.800049 142.699005 C 1110.609985 142.699005 1101.719971 140.412994 1094.150024 135.839005 C 1086.699951 131.264999 1080.949951 125.123001 1076.900024 117.413002 C 1072.849976 109.703003 1070.819946 101.143997 1070.819946 91.735298 C 1070.819946 84.678703 1071.930054 78.079597 1074.150024 71.937698 C 1076.5 65.795898 1079.900024 60.372803 1084.339966 55.668396 C 1088.790039 50.964096 1094.079956 47.305099 1100.219971 44.691605 C 1106.359985 42.078003 1113.219971 40.771301 1120.800049 40.771301 C 1129.170044 40.771301 1136.810059 42.339401 1143.73999 45.475601 C 1150.660034 48.6119 1156.280029 52.989601 1160.589966 58.608704 C 1165.040039 64.097099 1167.589966 70.696297 1168.23999 78.406197 L 1144.130005 78.406197 C 1143.609985 75.139297 1142.22998 72.264397 1140.01001 69.781601 C 1137.920044 67.167999 1135.23999 65.142502 1131.97998 63.705101 C 1128.839966 62.267601 1125.380005 61.548904 1121.589966 61.548904 C 1115.969971 61.548904 1111.199951 62.921005 1107.280029 65.665199 C 1103.48999 68.278801 1100.609985 71.807098 1098.650024 76.250099 C 1096.689941 80.6931 1095.709961 85.854797 1095.709961 91.735298 C 1095.709961 97.4851 1096.689941 102.647003 1098.650024 107.221001 C 1100.73999 111.664001 1103.680054 115.257004 1107.469971 118.000999 C 1111.390015 120.614998 1116.160034 121.921997 1121.780029 121.921997 C 1127.530029 121.921997 1132.430054 120.418999 1136.47998 117.413002 C 1140.540039 114.407997 1143.209961 110.553001 1144.52002 105.848 L 1168.630005 105.848 C 1167.719971 112.904999 1165.040039 119.242996 1160.589966 124.862 C 1156.280029 130.350006 1150.72998 134.727997 1143.930054 137.994995 C 1137.140015 141.130997 1129.430054 142.699005 1120.800049 142.699005 Z M 1226.569946 142.699005 C 1218.599976 142.699005 1211.469971 141.261993 1205.199951 138.386993 C 1198.930054 135.511993 1193.640015 131.656998 1189.319946 126.821999 C 1185.140015 121.856003 1181.939941 116.367996 1179.719971 110.357002 C 1177.5 104.214996 1176.390015 97.877098 1176.390015 91.3433 C 1176.390015 84.809402 1177.369995 78.536903 1179.329956 72.525803 C 1181.420044 66.514603 1184.48999 61.156898 1188.540039 56.452499 C 1192.589966 51.6175 1197.619995 47.827805 1203.630005 45.083603 C 1209.650024 42.208694 1216.699951 40.771301 1224.800049 40.771301 C 1233.040039 40.771301 1240.160034 42.143402 1246.170044 44.887604 C 1252.180054 47.501099 1257.150024 51.160095 1261.069946 55.864502 C 1264.98999 60.438202 1267.859985 65.534599 1269.689941 71.153702 C 1271.650024 76.772797 1272.630005 82.522598 1272.630005 88.403 C 1272.630005 90.101799 1272.569946 91.669998 1272.439941 93.107399 C 1272.439941 94.544899 1272.369995 95.786301 1272.23999 96.831703 L 1190.300049 96.831703 L 1190.300049 80.366402 L 1248.719971 80.366402 C 1248.189941 74.093903 1245.839966 68.997498 1241.660034 65.077202 C 1237.609985 61.026199 1231.98999 59.000702 1224.800049 59.000702 C 1220.75 59.000702 1217.089966 59.719398 1213.829956 61.156898 C 1210.689941 62.4636 1208.01001 64.489098 1205.790039 67.233398 C 1203.699951 69.846901 1202.069946 73.179199 1200.890015 77.230202 C 1199.839966 81.150497 1199.319946 85.724197 1199.319946 90.951202 C 1199.319946 97.354401 1200.430054 102.973999 1202.650024 107.808998 C 1204.880005 112.513 1208.01001 116.171997 1212.060059 118.785004 C 1216.109985 121.399002 1220.949951 122.706001 1226.569946 122.706001 C 1232.839966 122.706001 1237.939941 121.463997 1241.859985 118.981003 C 1245.780029 116.499001 1248.329956 112.904999 1249.5 108.200996 L 1273.02002 108.200996 C 1271.97998 115.125999 1269.300049 121.203003 1264.98999 126.43 C 1260.670044 131.526001 1255.25 135.511993 1248.719971 138.386993 C 1242.180054 141.261993 1234.800049 142.699005 1226.569946 142.699005 Z M 1327.829956 142.699005 C 1318.420044 142.699005 1310.319946 140.542999 1303.52002 136.231003 C 1296.859985 131.917999 1291.630005 125.973 1287.839966 118.392998 C 1284.180054 110.682999 1282.349976 101.796997 1282.349976 91.735298 C 1282.349976 84.286697 1283.400024 77.426201 1285.48999 71.153702 C 1287.579956 64.881203 1290.589966 59.523399 1294.51001 55.080399 C 1298.430054 50.506699 1303.199951 46.978401 1308.810059 44.495605 C 1314.560059 42.012695 1321.030029 40.771301 1328.219971 40.771301 C 1334.359985 40.771301 1340.050049 42.012695 1345.27002 44.495605 C 1350.630005 46.978401 1354.880005 50.2453 1358.01001 54.296295 L 1358.01001 3.1e-05 L 1381.930054 3.1e-05 L 1381.930054 141.130997 L 1358.01001 141.130997 L 1358.01001 128.781998 C 1355.01001 132.964005 1350.829956 136.362 1345.469971 138.975006 C 1340.109985 141.457993 1334.22998 142.699005 1327.829956 142.699005 Z M 1332.72998 121.921997 C 1336.780029 121.921997 1340.439941 121.203003 1343.709961 119.765999 C 1346.969971 118.328003 1349.780029 116.303001 1352.130005 113.689003 C 1354.48999 110.945 1356.25 107.742996 1357.430054 104.084 C 1358.72998 100.425003 1359.390015 96.308998 1359.390015 91.735298 C 1359.390015 82.587898 1356.969971 75.269997 1352.130005 69.781601 C 1347.300049 64.293098 1340.829956 61.548904 1332.72998 61.548904 C 1328.810059 61.548904 1325.209961 62.267601 1321.949951 63.705101 C 1318.680054 65.142502 1315.869995 67.167999 1313.52002 69.781601 C 1311.170044 72.395103 1309.339966 75.596703 1308.030029 79.386299 C 1306.849976 83.045303 1306.27002 87.161598 1306.27002 91.735298 C 1306.27002 100.883003 1308.680054 108.200996 1313.52002 113.689003 C 1318.349976 119.177002 1324.76001 121.921997 1332.72998 121.921997 Z"/>
    <radialGradient id="radialGradient2" cx="1253.87" cy="-5.57294" r="566.351522" fx="1253.87" fy="-5.57294" gradientUnits="userSpaceOnUse">
        <stop offset="1e-05" stop-color="#ffffff" stop-opacity="0.6"/>
        <stop offset="1" stop-color="#ffffff" stop-opacity="0"/>
    </radialGradient>
    <path id="path5" fill="url(#radialGradient2)" stroke="none" d="M 509.333008 141.130997 L 562.257019 3.920334 L 586.562988 3.920334 L 639.291016 141.130997 L 612.632996 141.130997 L 574.409973 37.046997 L 536.187012 141.130997 L 509.333008 141.130997 Z M 538.539001 109.181 L 540.304016 87.226898 L 608.517029 87.226898 L 610.281006 109.181 L 538.539001 109.181 Z M 684.629028 142.699005 C 675.219971 142.699005 667.117981 140.542999 660.322998 136.231003 C 653.658997 131.917999 648.432007 125.973 644.642029 118.392998 C 640.982971 110.682999 639.153992 101.796997 639.153992 91.735298 C 639.153992 84.286697 640.198975 77.426201 642.289978 71.153702 C 644.380981 64.881203 647.385986 59.523399 651.307007 55.080399 C 655.22699 50.506699 659.997009 46.978401 665.616028 44.495605 C 671.36499 42.012695 677.833984 40.771301 685.020996 40.771301 C 691.163025 40.771301 696.846985 42.012695 702.075012 44.495605 C 707.432007 46.978401 711.679016 50.2453 714.815979 54.296295 L 714.815979 3.1e-05 L 738.729004 3.1e-05 L 738.729004 141.130997 L 714.815979 141.130997 L 714.815979 128.781998 C 711.809998 132.964005 707.627991 136.362 702.270996 138.975006 C 696.913025 141.457993 691.031982 142.699005 684.629028 142.699005 Z M 689.530029 121.921997 C 693.580994 121.921997 697.23999 121.203003 700.505981 119.765999 C 703.77301 118.328003 706.583008 116.303001 708.934998 113.689003 C 711.286987 110.945 713.051025 107.742996 714.228027 104.084 C 715.533997 100.425003 716.187988 96.308998 716.187988 91.735298 C 716.187988 82.587898 713.77002 75.269997 708.934998 69.781601 C 704.099976 64.293098 697.632019 61.548904 689.530029 61.548904 C 685.609009 61.548904 682.015991 62.267601 678.749023 63.705101 C 675.481995 65.142502 672.671997 67.167999 670.320007 69.781601 C 667.968018 72.395103 666.138 75.596703 664.83197 79.386299 C 663.656006 83.045303 663.067017 87.161598 663.067017 91.735298 C 663.067017 100.883003 665.484985 108.200996 670.320007 113.689003 C 675.155029 119.177002 681.557983 121.921997 689.530029 121.921997 Z M 785.090027 141.130997 L 749.02301 42.339401 L 773.328979 42.339401 L 796.458984 110.749001 L 819.197021 42.339401 L 843.698975 42.339401 L 807.632019 141.130997 L 785.090027 141.130997 Z M 891.377014 142.699005 C 881.968018 142.699005 873.866028 140.542999 867.070984 136.231003 C 860.275024 131.917999 854.982971 125.973 851.192993 118.392998 C 847.533997 110.682999 845.705017 101.796997 845.705017 91.735298 C 845.705017 84.286697 846.75 77.426201 848.841003 71.153702 C 850.932007 64.881203 853.937988 59.523399 857.857971 55.080399 C 861.778015 50.506699 866.547974 46.978401 872.166992 44.495605 C 877.916992 42.012695 884.38501 40.771301 891.572998 40.771301 C 897.453003 40.771301 903.072021 41.947403 908.429993 44.2995 C 913.788025 46.520996 918.099976 49.591995 921.367004 53.512299 L 921.367004 42.339401 L 945.281006 42.339401 L 945.281006 141.130997 L 921.367004 141.130997 L 921.367004 129.565994 C 919.406982 132.311005 916.859009 134.662994 913.721985 136.623001 C 910.71698 138.582993 907.31897 140.085999 903.530029 141.130997 C 899.73999 142.177002 895.689026 142.699005 891.377014 142.699005 Z M 896.080994 121.921997 C 900.132019 121.921997 903.791016 121.203003 907.057983 119.765999 C 910.325012 118.328003 913.133972 116.303001 915.486023 113.689003 C 917.838989 110.945 919.603027 107.742996 920.778992 104.084 C 922.085999 100.425003 922.739014 96.308998 922.739014 91.735298 C 922.739014 82.587898 920.322021 75.269997 915.486023 69.781601 C 910.651001 64.293098 904.182983 61.548904 896.080994 61.548904 C 892.161011 61.548904 888.567017 62.267601 885.299988 63.705101 C 882.03302 65.142502 879.223999 67.233398 876.870972 69.9776 C 874.518982 72.591103 872.690002 75.727402 871.382996 79.386299 C 870.20697 83.045303 869.619019 87.161598 869.619019 91.735298 C 869.619019 100.751999 872.036011 108.07 876.870972 113.689003 C 881.705994 119.177002 888.109985 121.921997 896.080994 121.921997 Z M 965.572021 141.130997 L 965.572021 42.339401 L 989.68103 42.339401 L 989.68103 57.628601 C 992.426025 52.270798 996.47699 48.154495 1001.830017 45.279602 C 1007.190002 42.274002 1013.400024 40.771301 1020.460022 40.771301 C 1027.900024 40.771301 1034.369995 42.4701 1039.859985 45.867699 C 1045.349976 49.134598 1049.599976 53.708298 1052.599976 59.588799 C 1055.609985 65.4692 1057.109985 72.264397 1057.109985 79.974403 L 1057.109985 141.130997 L 1033.199951 141.130997 L 1033.199951 85.070801 C 1033.199951 78.275597 1031.300049 72.787102 1027.51001 68.605499 C 1023.719971 64.293098 1018.690002 62.137001 1012.419983 62.137001 C 1007.97998 62.137001 1004.059998 63.247696 1000.659973 65.4692 C 997.260986 67.560097 994.58197 70.500298 992.622009 74.289902 C 990.661987 78.079597 989.68103 82.391899 989.68103 87.226898 L 989.68103 141.130997 L 965.572021 141.130997 Z M 1120.800049 142.699005 C 1110.609985 142.699005 1101.719971 140.412994 1094.150024 135.839005 C 1086.699951 131.264999 1080.949951 125.123001 1076.900024 117.413002 C 1072.849976 109.703003 1070.819946 101.143997 1070.819946 91.735298 C 1070.819946 84.678703 1071.930054 78.079597 1074.150024 71.937698 C 1076.5 65.795898 1079.900024 60.372803 1084.339966 55.668396 C 1088.790039 50.964096 1094.079956 47.305099 1100.219971 44.691605 C 1106.359985 42.078003 1113.219971 40.771301 1120.800049 40.771301 C 1129.170044 40.771301 1136.810059 42.339401 1143.73999 45.475601 C 1150.660034 48.6119 1156.280029 52.989601 1160.589966 58.608704 C 1165.040039 64.097099 1167.589966 70.696297 1168.23999 78.406197 L 1144.130005 78.406197 C 1143.609985 75.139297 1142.22998 72.264397 1140.01001 69.781601 C 1137.920044 67.167999 1135.23999 65.142502 1131.97998 63.705101 C 1128.839966 62.267601 1125.380005 61.548904 1121.589966 61.548904 C 1115.969971 61.548904 1111.199951 62.921005 1107.280029 65.665199 C 1103.48999 68.278801 1100.609985 71.807098 1098.650024 76.250099 C 1096.689941 80.6931 1095.709961 85.854797 1095.709961 91.735298 C 1095.709961 97.4851 1096.689941 102.647003 1098.650024 107.221001 C 1100.73999 111.664001 1103.680054 115.257004 1107.469971 118.000999 C 1111.390015 120.614998 1116.160034 121.921997 1121.780029 121.921997 C 1127.530029 121.921997 1132.430054 120.418999 1136.47998 117.413002 C 1140.540039 114.407997 1143.209961 110.553001 1144.52002 105.848 L 1168.630005 105.848 C 1167.719971 112.904999 1165.040039 119.242996 1160.589966 124.862 C 1156.280029 130.350006 1150.72998 134.727997 1143.930054 137.994995 C 1137.140015 141.130997 1129.430054 142.699005 1120.800049 142.699005 Z M 1226.569946 142.699005 C 1218.599976 142.699005 1211.469971 141.261993 1205.199951 138.386993 C 1198.930054 135.511993 1193.640015 131.656998 1189.319946 126.821999 C 1185.140015 121.856003 1181.939941 116.367996 1179.719971 110.357002 C 1177.5 104.214996 1176.390015 97.877098 1176.390015 91.3433 C 1176.390015 84.809402 1177.369995 78.536903 1179.329956 72.525803 C 1181.420044 66.514603 1184.48999 61.156898 1188.540039 56.452499 C 1192.589966 51.6175 1197.619995 47.827805 1203.630005 45.083603 C 1209.650024 42.208694 1216.699951 40.771301 1224.800049 40.771301 C 1233.040039 40.771301 1240.160034 42.143402 1246.170044 44.887604 C 1252.180054 47.501099 1257.150024 51.160095 1261.069946 55.864502 C 1264.98999 60.438202 1267.859985 65.534599 1269.689941 71.153702 C 1271.650024 76.772797 1272.630005 82.522598 1272.630005 88.403 C 1272.630005 90.101799 1272.569946 91.669998 1272.439941 93.107399 C 1272.439941 94.544899 1272.369995 95.786301 1272.23999 96.831703 L 1190.300049 96.831703 L 1190.300049 80.366402 L 1248.719971 80.366402 C 1248.189941 74.093903 1245.839966 68.997498 1241.660034 65.077202 C 1237.609985 61.026199 1231.98999 59.000702 1224.800049 59.000702 C 1220.75 59.000702 1217.089966 59.719398 1213.829956 61.156898 C 1210.689941 62.4636 1208.01001 64.489098 1205.790039 67.233398 C 1203.699951 69.846901 1202.069946 73.179199 1200.890015 77.230202 C 1199.839966 81.150497 1199.319946 85.724197 1199.319946 90.951202 C 1199.319946 97.354401 1200.430054 102.973999 1202.650024 107.808998 C 1204.880005 112.513 1208.01001 116.171997 1212.060059 118.785004 C 1216.109985 121.399002 1220.949951 122.706001 1226.569946 122.706001 C 1232.839966 122.706001 1237.939941 121.463997 1241.859985 118.981003 C 1245.780029 116.499001 1248.329956 112.904999 1249.5 108.200996 L 1273.02002 108.200996 C 1271.97998 115.125999 1269.300049 121.203003 1264.98999 126.43 C 1260.670044 131.526001 1255.25 135.511993 1248.719971 138.386993 C 1242.180054 141.261993 1234.800049 142.699005 1226.569946 142.699005 Z M 1327.829956 142.699005 C 1318.420044 142.699005 1310.319946 140.542999 1303.52002 136.231003 C 1296.859985 131.917999 1291.630005 125.973 1287.839966 118.392998 C 1284.180054 110.682999 1282.349976 101.796997 1282.349976 91.735298 C 1282.349976 84.286697 1283.400024 77.426201 1285.48999 71.153702 C 1287.579956 64.881203 1290.589966 59.523399 1294.51001 55.080399 C 1298.430054 50.506699 1303.199951 46.978401 1308.810059 44.495605 C 1314.560059 42.012695 1321.030029 40.771301 1328.219971 40.771301 C 1334.359985 40.771301 1340.050049 42.012695 1345.27002 44.495605 C 1350.630005 46.978401 1354.880005 50.2453 1358.01001 54.296295 L 1358.01001 3.1e-05 L 1381.930054 3.1e-05 L 1381.930054 141.130997 L 1358.01001 141.130997 L 1358.01001 128.781998 C 1355.01001 132.964005 1350.829956 136.362 1345.469971 138.975006 C 1340.109985 141.457993 1334.22998 142.699005 1327.829956 142.699005 Z M 1332.72998 121.921997 C 1336.780029 121.921997 1340.439941 121.203003 1343.709961 119.765999 C 1346.969971 118.328003 1349.780029 116.303001 1352.130005 113.689003 C 1354.48999 110.945 1356.25 107.742996 1357.430054 104.084 C 1358.72998 100.425003 1359.390015 96.308998 1359.390015 91.735298 C 1359.390015 82.587898 1356.969971 75.269997 1352.130005 69.781601 C 1347.300049 64.293098 1340.829956 61.548904 1332.72998 61.548904 C 1328.810059 61.548904 1325.209961 62.267601 1321.949951 63.705101 C 1318.680054 65.142502 1315.869995 67.167999 1313.52002 69.781601 C 1311.170044 72.395103 1309.339966 75.596703 1308.030029 79.386299 C 1306.849976 83.045303 1306.27002 87.161598 1306.27002 91.735298 C 1306.27002 100.883003 1308.680054 108.200996 1313.52002 113.689003 C 1318.349976 119.177002 1324.76001 121.921997 1332.72998 121.921997 Z"/>
    <linearGradient id="linearGradient3" x1="457.378" y1="-75.2553" x2="470.81" y2="249.97" gradientUnits="userSpaceOnUse">
        <stop offset="1e-05" stop-color="#f6e4f0" stop-opacity="1"/>
        <stop offset="0.491919" stop-color="#e19766" stop-opacity="1"/>
        <stop offset="1" stop-color="#ff6200" stop-opacity="1"/>
    </linearGradient>
    <path id="path6" fill="url(#linearGradient3)" stroke="none" d="M 509.333008 141.130997 L 562.257019 3.920334 L 586.562988 3.920334 L 639.291016 141.130997 L 612.632996 141.130997 L 574.409973 37.046997 L 536.187012 141.130997 L 509.333008 141.130997 Z M 538.539001 109.181 L 540.304016 87.226898 L 608.517029 87.226898 L 610.281006 109.181 L 538.539001 109.181 Z M 684.629028 142.699005 C 675.219971 142.699005 667.117981 140.542999 660.322998 136.231003 C 653.658997 131.917999 648.432007 125.973 644.642029 118.392998 C 640.982971 110.682999 639.153992 101.796997 639.153992 91.735298 C 639.153992 84.286697 640.198975 77.426201 642.289978 71.153702 C 644.380981 64.881203 647.385986 59.523399 651.307007 55.080399 C 655.22699 50.506699 659.997009 46.978401 665.616028 44.495605 C 671.36499 42.012695 677.833984 40.771301 685.020996 40.771301 C 691.163025 40.771301 696.846985 42.012695 702.075012 44.495605 C 707.432007 46.978401 711.679016 50.2453 714.815979 54.296295 L 714.815979 3.1e-05 L 738.729004 3.1e-05 L 738.729004 141.130997 L 714.815979 141.130997 L 714.815979 128.781998 C 711.809998 132.964005 707.627991 136.362 702.270996 138.975006 C 696.913025 141.457993 691.031982 142.699005 684.629028 142.699005 Z M 689.530029 121.921997 C 693.580994 121.921997 697.23999 121.203003 700.505981 119.765999 C 703.77301 118.328003 706.583008 116.303001 708.934998 113.689003 C 711.286987 110.945 713.051025 107.742996 714.228027 104.084 C 715.533997 100.425003 716.187988 96.308998 716.187988 91.735298 C 716.187988 82.587898 713.77002 75.269997 708.934998 69.781601 C 704.099976 64.293098 697.632019 61.548904 689.530029 61.548904 C 685.609009 61.548904 682.015991 62.267601 678.749023 63.705101 C 675.481995 65.142502 672.671997 67.167999 670.320007 69.781601 C 667.968018 72.395103 666.138 75.596703 664.83197 79.386299 C 663.656006 83.045303 663.067017 87.161598 663.067017 91.735298 C 663.067017 100.883003 665.484985 108.200996 670.320007 113.689003 C 675.155029 119.177002 681.557983 121.921997 689.530029 121.921997 Z M 785.090027 141.130997 L 749.02301 42.339401 L 773.328979 42.339401 L 796.458984 110.749001 L 819.197021 42.339401 L 843.698975 42.339401 L 807.632019 141.130997 L 785.090027 141.130997 Z M 891.377014 142.699005 C 881.968018 142.699005 873.866028 140.542999 867.070984 136.231003 C 860.275024 131.917999 854.982971 125.973 851.192993 118.392998 C 847.533997 110.682999 845.705017 101.796997 845.705017 91.735298 C 845.705017 84.286697 846.75 77.426201 848.841003 71.153702 C 850.932007 64.881203 853.937988 59.523399 857.857971 55.080399 C 861.778015 50.506699 866.547974 46.978401 872.166992 44.495605 C 877.916992 42.012695 884.38501 40.771301 891.572998 40.771301 C 897.453003 40.771301 903.072021 41.947403 908.429993 44.2995 C 913.788025 46.520996 918.099976 49.591995 921.367004 53.512299 L 921.367004 42.339401 L 945.281006 42.339401 L 945.281006 141.130997 L 921.367004 141.130997 L 921.367004 129.565994 C 919.406982 132.311005 916.859009 134.662994 913.721985 136.623001 C 910.71698 138.582993 907.31897 140.085999 903.530029 141.130997 C 899.73999 142.177002 895.689026 142.699005 891.377014 142.699005 Z M 896.080994 121.921997 C 900.132019 121.921997 903.791016 121.203003 907.057983 119.765999 C 910.325012 118.328003 913.133972 116.303001 915.486023 113.689003 C 917.838989 110.945 919.603027 107.742996 920.778992 104.084 C 922.085999 100.425003 922.739014 96.308998 922.739014 91.735298 C 922.739014 82.587898 920.322021 75.269997 915.486023 69.781601 C 910.651001 64.293098 904.182983 61.548904 896.080994 61.548904 C 892.161011 61.548904 888.567017 62.267601 885.299988 63.705101 C 882.03302 65.142502 879.223999 67.233398 876.870972 69.9776 C 874.518982 72.591103 872.690002 75.727402 871.382996 79.386299 C 870.20697 83.045303 869.619019 87.161598 869.619019 91.735298 C 869.619019 100.751999 872.036011 108.07 876.870972 113.689003 C 881.705994 119.177002 888.109985 121.921997 896.080994 121.921997 Z M 965.572021 141.130997 L 965.572021 42.339401 L 989.68103 42.339401 L 989.68103 57.628601 C 992.426025 52.270798 996.47699 48.154495 1001.830017 45.279602 C 1007.190002 42.274002 1013.400024 40.771301 1020.460022 40.771301 C 1027.900024 40.771301 1034.369995 42.4701 1039.859985 45.867699 C 1045.349976 49.134598 1049.599976 53.708298 1052.599976 59.588799 C 1055.609985 65.4692 1057.109985 72.264397 1057.109985 79.974403 L 1057.109985 141.130997 L 1033.199951 141.130997 L 1033.199951 85.070801 C 1033.199951 78.275597 1031.300049 72.787102 1027.51001 68.605499 C 1023.719971 64.293098 1018.690002 62.137001 1012.419983 62.137001 C 1007.97998 62.137001 1004.059998 63.247696 1000.659973 65.4692 C 997.260986 67.560097 994.58197 70.500298 992.622009 74.289902 C 990.661987 78.079597 989.68103 82.391899 989.68103 87.226898 L 989.68103 141.130997 L 965.572021 141.130997 Z M 1120.800049 142.699005 C 1110.609985 142.699005 1101.719971 140.412994 1094.150024 135.839005 C 1086.699951 131.264999 1080.949951 125.123001 1076.900024 117.413002 C 1072.849976 109.703003 1070.819946 101.143997 1070.819946 91.735298 C 1070.819946 84.678703 1071.930054 78.079597 1074.150024 71.937698 C 1076.5 65.795898 1079.900024 60.372803 1084.339966 55.668396 C 1088.790039 50.964096 1094.079956 47.305099 1100.219971 44.691605 C 1106.359985 42.078003 1113.219971 40.771301 1120.800049 40.771301 C 1129.170044 40.771301 1136.810059 42.339401 1143.73999 45.475601 C 1150.660034 48.6119 1156.280029 52.989601 1160.589966 58.608704 C 1165.040039 64.097099 1167.589966 70.696297 1168.23999 78.406197 L 1144.130005 78.406197 C 1143.609985 75.139297 1142.22998 72.264397 1140.01001 69.781601 C 1137.920044 67.167999 1135.23999 65.142502 1131.97998 63.705101 C 1128.839966 62.267601 1125.380005 61.548904 1121.589966 61.548904 C 1115.969971 61.548904 1111.199951 62.921005 1107.280029 65.665199 C 1103.48999 68.278801 1100.609985 71.807098 1098.650024 76.250099 C 1096.689941 80.6931 1095.709961 85.854797 1095.709961 91.735298 C 1095.709961 97.4851 1096.689941 102.647003 1098.650024 107.221001 C 1100.73999 111.664001 1103.680054 115.257004 1107.469971 118.000999 C 1111.390015 120.614998 1116.160034 121.921997 1121.780029 121.921997 C 1127.530029 121.921997 1132.430054 120.418999 1136.47998 117.413002 C 1140.540039 114.407997 1143.209961 110.553001 1144.52002 105.848 L 1168.630005 105.848 C 1167.719971 112.904999 1165.040039 119.242996 1160.589966 124.862 C 1156.280029 130.350006 1150.72998 134.727997 1143.930054 137.994995 C 1137.140015 141.130997 1129.430054 142.699005 1120.800049 142.699005 Z M 1226.569946 142.699005 C 1218.599976 142.699005 1211.469971 141.261993 1205.199951 138.386993 C 1198.930054 135.511993 1193.640015 131.656998 1189.319946 126.821999 C 1185.140015 121.856003 1181.939941 116.367996 1179.719971 110.357002 C 1177.5 104.214996 1176.390015 97.877098 1176.390015 91.3433 C 1176.390015 84.809402 1177.369995 78.536903 1179.329956 72.525803 C 1181.420044 66.514603 1184.48999 61.156898 1188.540039 56.452499 C 1192.589966 51.6175 1197.619995 47.827805 1203.630005 45.083603 C 1209.650024 42.208694 1216.699951 40.771301 1224.800049 40.771301 C 1233.040039 40.771301 1240.160034 42.143402 1246.170044 44.887604 C 1252.180054 47.501099 1257.150024 51.160095 1261.069946 55.864502 C 1264.98999 60.438202 1267.859985 65.534599 1269.689941 71.153702 C 1271.650024 76.772797 1272.630005 82.522598 1272.630005 88.403 C 1272.630005 90.101799 1272.569946 91.669998 1272.439941 93.107399 C 1272.439941 94.544899 1272.369995 95.786301 1272.23999 96.831703 L 1190.300049 96.831703 L 1190.300049 80.366402 L 1248.719971 80.366402 C 1248.189941 74.093903 1245.839966 68.997498 1241.660034 65.077202 C 1237.609985 61.026199 1231.98999 59.000702 1224.800049 59.000702 C 1220.75 59.000702 1217.089966 59.719398 1213.829956 61.156898 C 1210.689941 62.4636 1208.01001 64.489098 1205.790039 67.233398 C 1203.699951 69.846901 1202.069946 73.179199 1200.890015 77.230202 C 1199.839966 81.150497 1199.319946 85.724197 1199.319946 90.951202 C 1199.319946 97.354401 1200.430054 102.973999 1202.650024 107.808998 C 1204.880005 112.513 1208.01001 116.171997 1212.060059 118.785004 C 1216.109985 121.399002 1220.949951 122.706001 1226.569946 122.706001 C 1232.839966 122.706001 1237.939941 121.463997 1241.859985 118.981003 C 1245.780029 116.499001 1248.329956 112.904999 1249.5 108.200996 L 1273.02002 108.200996 C 1271.97998 115.125999 1269.300049 121.203003 1264.98999 126.43 C 1260.670044 131.526001 1255.25 135.511993 1248.719971 138.386993 C 1242.180054 141.261993 1234.800049 142.699005 1226.569946 142.699005 Z M 1327.829956 142.699005 C 1318.420044 142.699005 1310.319946 140.542999 1303.52002 136.231003 C 1296.859985 131.917999 1291.630005 125.973 1287.839966 118.392998 C 1284.180054 110.682999 1282.349976 101.796997 1282.349976 91.735298 C 1282.349976 84.286697 1283.400024 77.426201 1285.48999 71.153702 C 1287.579956 64.881203 1290.589966 59.523399 1294.51001 55.080399 C 1298.430054 50.506699 1303.199951 46.978401 1308.810059 44.495605 C 1314.560059 42.012695 1321.030029 40.771301 1328.219971 40.771301 C 1334.359985 40.771301 1340.050049 42.012695 1345.27002 44.495605 C 1350.630005 46.978401 1354.880005 50.2453 1358.01001 54.296295 L 1358.01001 3.1e-05 L 1381.930054 3.1e-05 L 1381.930054 141.130997 L 1358.01001 141.130997 L 1358.01001 128.781998 C 1355.01001 132.964005 1350.829956 136.362 1345.469971 138.975006 C 1340.109985 141.457993 1334.22998 142.699005 1327.829956 142.699005 Z M 1332.72998 121.921997 C 1336.780029 121.921997 1340.439941 121.203003 1343.709961 119.765999 C 1346.969971 118.328003 1349.780029 116.303001 1352.130005 113.689003 C 1354.48999 110.945 1356.25 107.742996 1357.430054 104.084 C 1358.72998 100.425003 1359.390015 96.308998 1359.390015 91.735298 C 1359.390015 82.587898 1356.969971 75.269997 1352.130005 69.781601 C 1347.300049 64.293098 1340.829956 61.548904 1332.72998 61.548904 C 1328.810059 61.548904 1325.209961 62.267601 1321.949951 63.705101 C 1318.680054 65.142502 1315.869995 67.167999 1313.52002 69.781601 C 1311.170044 72.395103 1309.339966 75.596703 1308.030029 79.386299 C 1306.849976 83.045303 1306.27002 87.161598 1306.27002 91.735298 C 1306.27002 100.883003 1308.680054 108.200996 1313.52002 113.689003 C 1318.349976 119.177002 1324.76001 121.921997 1332.72998 121.921997 Z"/>
    <radialGradient id="radialGradient3" cx="1253.87" cy="-5.57294" r="566.351522" fx="1253.87" fy="-5.57294" gradientUnits="userSpaceOnUse">
        <stop offset="1e-05" stop-color="#ffffff" stop-opacity="0.6"/>
        <stop offset="1" stop-color="#ffffff" stop-opacity="0"/>
    </radialGradient>
    <path id="path7" fill="url(#radialGradient3)" stroke="none" d="M 509.333008 141.130997 L 562.257019 3.920334 L 586.562988 3.920334 L 639.291016 141.130997 L 612.632996 141.130997 L 574.409973 37.046997 L 536.187012 141.130997 L 509.333008 141.130997 Z M 538.539001 109.181 L 540.304016 87.226898 L 608.517029 87.226898 L 610.281006 109.181 L 538.539001 109.181 Z M 684.629028 142.699005 C 675.219971 142.699005 667.117981 140.542999 660.322998 136.231003 C 653.658997 131.917999 648.432007 125.973 644.642029 118.392998 C 640.982971 110.682999 639.153992 101.796997 639.153992 91.735298 C 639.153992 84.286697 640.198975 77.426201 642.289978 71.153702 C 644.380981 64.881203 647.385986 59.523399 651.307007 55.080399 C 655.22699 50.506699 659.997009 46.978401 665.616028 44.495605 C 671.36499 42.012695 677.833984 40.771301 685.020996 40.771301 C 691.163025 40.771301 696.846985 42.012695 702.075012 44.495605 C 707.432007 46.978401 711.679016 50.2453 714.815979 54.296295 L 714.815979 3.1e-05 L 738.729004 3.1e-05 L 738.729004 141.130997 L 714.815979 141.130997 L 714.815979 128.781998 C 711.809998 132.964005 707.627991 136.362 702.270996 138.975006 C 696.913025 141.457993 691.031982 142.699005 684.629028 142.699005 Z M 689.530029 121.921997 C 693.580994 121.921997 697.23999 121.203003 700.505981 119.765999 C 703.77301 118.328003 706.583008 116.303001 708.934998 113.689003 C 711.286987 110.945 713.051025 107.742996 714.228027 104.084 C 715.533997 100.425003 716.187988 96.308998 716.187988 91.735298 C 716.187988 82.587898 713.77002 75.269997 708.934998 69.781601 C 704.099976 64.293098 697.632019 61.548904 689.530029 61.548904 C 685.609009 61.548904 682.015991 62.267601 678.749023 63.705101 C 675.481995 65.142502 672.671997 67.167999 670.320007 69.781601 C 667.968018 72.395103 666.138 75.596703 664.83197 79.386299 C 663.656006 83.045303 663.067017 87.161598 663.067017 91.735298 C 663.067017 100.883003 665.484985 108.200996 670.320007 113.689003 C 675.155029 119.177002 681.557983 121.921997 689.530029 121.921997 Z M 785.090027 141.130997 L 749.02301 42.339401 L 773.328979 42.339401 L 796.458984 110.749001 L 819.197021 42.339401 L 843.698975 42.339401 L 807.632019 141.130997 L 785.090027 141.130997 Z M 891.377014 142.699005 C 881.968018 142.699005 873.866028 140.542999 867.070984 136.231003 C 860.275024 131.917999 854.982971 125.973 851.192993 118.392998 C 847.533997 110.682999 845.705017 101.796997 845.705017 91.735298 C 845.705017 84.286697 846.75 77.426201 848.841003 71.153702 C 850.932007 64.881203 853.937988 59.523399 857.857971 55.080399 C 861.778015 50.506699 866.547974 46.978401 872.166992 44.495605 C 877.916992 42.012695 884.38501 40.771301 891.572998 40.771301 C 897.453003 40.771301 903.072021 41.947403 908.429993 44.2995 C 913.788025 46.520996 918.099976 49.591995 921.367004 53.512299 L 921.367004 42.339401 L 945.281006 42.339401 L 945.281006 141.130997 L 921.367004 141.130997 L 921.367004 129.565994 C 919.406982 132.311005 916.859009 134.662994 913.721985 136.623001 C 910.71698 138.582993 907.31897 140.085999 903.530029 141.130997 C 899.73999 142.177002 895.689026 142.699005 891.377014 142.699005 Z M 896.080994 121.921997 C 900.132019 121.921997 903.791016 121.203003 907.057983 119.765999 C 910.325012 118.328003 913.133972 116.303001 915.486023 113.689003 C 917.838989 110.945 919.603027 107.742996 920.778992 104.084 C 922.085999 100.425003 922.739014 96.308998 922.739014 91.735298 C 922.739014 82.587898 920.322021 75.269997 915.486023 69.781601 C 910.651001 64.293098 904.182983 61.548904 896.080994 61.548904 C 892.161011 61.548904 888.567017 62.267601 885.299988 63.705101 C 882.03302 65.142502 879.223999 67.233398 876.870972 69.9776 C 874.518982 72.591103 872.690002 75.727402 871.382996 79.386299 C 870.20697 83.045303 869.619019 87.161598 869.619019 91.735298 C 869.619019 100.751999 872.036011 108.07 876.870972 113.689003 C 881.705994 119.177002 888.109985 121.921997 896.080994 121.921997 Z M 965.572021 141.130997 L 965.572021 42.339401 L 989.68103 42.339401 L 989.68103 57.628601 C 992.426025 52.270798 996.47699 48.154495 1001.830017 45.279602 C 1007.190002 42.274002 1013.400024 40.771301 1020.460022 40.771301 C 1027.900024 40.771301 1034.369995 42.4701 1039.859985 45.867699 C 1045.349976 49.134598 1049.599976 53.708298 1052.599976 59.588799 C 1055.609985 65.4692 1057.109985 72.264397 1057.109985 79.974403 L 1057.109985 141.130997 L 1033.199951 141.130997 L 1033.199951 85.070801 C 1033.199951 78.275597 1031.300049 72.787102 1027.51001 68.605499 C 1023.719971 64.293098 1018.690002 62.137001 1012.419983 62.137001 C 1007.97998 62.137001 1004.059998 63.247696 1000.659973 65.4692 C 997.260986 67.560097 994.58197 70.500298 992.622009 74.289902 C 990.661987 78.079597 989.68103 82.391899 989.68103 87.226898 L 989.68103 141.130997 L 965.572021 141.130997 Z M 1120.800049 142.699005 C 1110.609985 142.699005 1101.719971 140.412994 1094.150024 135.839005 C 1086.699951 131.264999 1080.949951 125.123001 1076.900024 117.413002 C 1072.849976 109.703003 1070.819946 101.143997 1070.819946 91.735298 C 1070.819946 84.678703 1071.930054 78.079597 1074.150024 71.937698 C 1076.5 65.795898 1079.900024 60.372803 1084.339966 55.668396 C 1088.790039 50.964096 1094.079956 47.305099 1100.219971 44.691605 C 1106.359985 42.078003 1113.219971 40.771301 1120.800049 40.771301 C 1129.170044 40.771301 1136.810059 42.339401 1143.73999 45.475601 C 1150.660034 48.6119 1156.280029 52.989601 1160.589966 58.608704 C 1165.040039 64.097099 1167.589966 70.696297 1168.23999 78.406197 L 1144.130005 78.406197 C 1143.609985 75.139297 1142.22998 72.264397 1140.01001 69.781601 C 1137.920044 67.167999 1135.23999 65.142502 1131.97998 63.705101 C 1128.839966 62.267601 1125.380005 61.548904 1121.589966 61.548904 C 1115.969971 61.548904 1111.199951 62.921005 1107.280029 65.665199 C 1103.48999 68.278801 1100.609985 71.807098 1098.650024 76.250099 C 1096.689941 80.6931 1095.709961 85.854797 1095.709961 91.735298 C 1095.709961 97.4851 1096.689941 102.647003 1098.650024 107.221001 C 1100.73999 111.664001 1103.680054 115.257004 1107.469971 118.000999 C 1111.390015 120.614998 1116.160034 121.921997 1121.780029 121.921997 C 1127.530029 121.921997 1132.430054 120.418999 1136.47998 117.413002 C 1140.540039 114.407997 1143.209961 110.553001 1144.52002 105.848 L 1168.630005 105.848 C 1167.719971 112.904999 1165.040039 119.242996 1160.589966 124.862 C 1156.280029 130.350006 1150.72998 134.727997 1143.930054 137.994995 C 1137.140015 141.130997 1129.430054 142.699005 1120.800049 142.699005 Z M 1226.569946 142.699005 C 1218.599976 142.699005 1211.469971 141.261993 1205.199951 138.386993 C 1198.930054 135.511993 1193.640015 131.656998 1189.319946 126.821999 C 1185.140015 121.856003 1181.939941 116.367996 1179.719971 110.357002 C 1177.5 104.214996 1176.390015 97.877098 1176.390015 91.3433 C 1176.390015 84.809402 1177.369995 78.536903 1179.329956 72.525803 C 1181.420044 66.514603 1184.48999 61.156898 1188.540039 56.452499 C 1192.589966 51.6175 1197.619995 47.827805 1203.630005 45.083603 C 1209.650024 42.208694 1216.699951 40.771301 1224.800049 40.771301 C 1233.040039 40.771301 1240.160034 42.143402 1246.170044 44.887604 C 1252.180054 47.501099 1257.150024 51.160095 1261.069946 55.864502 C 1264.98999 60.438202 1267.859985 65.534599 1269.689941 71.153702 C 1271.650024 76.772797 1272.630005 82.522598 1272.630005 88.403 C 1272.630005 90.101799 1272.569946 91.669998 1272.439941 93.107399 C 1272.439941 94.544899 1272.369995 95.786301 1272.23999 96.831703 L 1190.300049 96.831703 L 1190.300049 80.366402 L 1248.719971 80.366402 C 1248.189941 74.093903 1245.839966 68.997498 1241.660034 65.077202 C 1237.609985 61.026199 1231.98999 59.000702 1224.800049 59.000702 C 1220.75 59.000702 1217.089966 59.719398 1213.829956 61.156898 C 1210.689941 62.4636 1208.01001 64.489098 1205.790039 67.233398 C 1203.699951 69.846901 1202.069946 73.179199 1200.890015 77.230202 C 1199.839966 81.150497 1199.319946 85.724197 1199.319946 90.951202 C 1199.319946 97.354401 1200.430054 102.973999 1202.650024 107.808998 C 1204.880005 112.513 1208.01001 116.171997 1212.060059 118.785004 C 1216.109985 121.399002 1220.949951 122.706001 1226.569946 122.706001 C 1232.839966 122.706001 1237.939941 121.463997 1241.859985 118.981003 C 1245.780029 116.499001 1248.329956 112.904999 1249.5 108.200996 L 1273.02002 108.200996 C 1271.97998 115.125999 1269.300049 121.203003 1264.98999 126.43 C 1260.670044 131.526001 1255.25 135.511993 1248.719971 138.386993 C 1242.180054 141.261993 1234.800049 142.699005 1226.569946 142.699005 Z M 1327.829956 142.699005 C 1318.420044 142.699005 1310.319946 140.542999 1303.52002 136.231003 C 1296.859985 131.917999 1291.630005 125.973 1287.839966 118.392998 C 1284.180054 110.682999 1282.349976 101.796997 1282.349976 91.735298 C 1282.349976 84.286697 1283.400024 77.426201 1285.48999 71.153702 C 1287.579956 64.881203 1290.589966 59.523399 1294.51001 55.080399 C 1298.430054 50.506699 1303.199951 46.978401 1308.810059 44.495605 C 1314.560059 42.012695 1321.030029 40.771301 1328.219971 40.771301 C 1334.359985 40.771301 1340.050049 42.012695 1345.27002 44.495605 C 1350.630005 46.978401 1354.880005 50.2453 1358.01001 54.296295 L 1358.01001 3.1e-05 L 1381.930054 3.1e-05 L 1381.930054 141.130997 L 1358.01001 141.130997 L 1358.01001 128.781998 C 1355.01001 132.964005 1350.829956 136.362 1345.469971 138.975006 C 1340.109985 141.457993 1334.22998 142.699005 1327.829956 142.699005 Z M 1332.72998 121.921997 C 1336.780029 121.921997 1340.439941 121.203003 1343.709961 119.765999 C 1346.969971 118.328003 1349.780029 116.303001 1352.130005 113.689003 C 1354.48999 110.945 1356.25 107.742996 1357.430054 104.084 C 1358.72998 100.425003 1359.390015 96.308998 1359.390015 91.735298 C 1359.390015 82.587898 1356.969971 75.269997 1352.130005 69.781601 C 1347.300049 64.293098 1340.829956 61.548904 1332.72998 61.548904 C 1328.810059 61.548904 1325.209961 62.267601 1321.949951 63.705101 C 1318.680054 65.142502 1315.869995 67.167999 1313.52002 69.781601 C 1311.170044 72.395103 1309.339966 75.596703 1308.030029 79.386299 C 1306.849976 83.045303 1306.27002 87.161598 1306.27002 91.735298 C 1306.27002 100.883003 1308.680054 108.200996 1313.52002 113.689003 C 1318.349976 119.177002 1324.76001 121.921997 1332.72998 121.921997 Z"/>
    <path id="-" fill="#000000" fill-rule="evenodd" stroke="none" d="M 0.291794 45.696205 C 93.908859 45.469627 97.569092 45.511314 99.766846 46.158699 C 101.34745 46.624275 102.761742 47.417542 104.020279 48.544449 C 105.057274 49.472969 106.348274 51.115257 106.889244 52.193962 C 107.872765 54.155235 107.872765 54.155235 107.779884 75.912521 C 107.686951 97.6698 107.686951 97.6698 106.732018 99.747116 C 106.086678 101.150986 105.099113 102.358139 103.68576 103.470749 C 102.535553 104.376221 100.662933 105.392593 99.524406 105.729324 C 97.971077 106.188736 95.414513 106.34156 89.282722 106.34156 C 82.90934 106.34156 81.011208 106.461456 80.657043 106.886475 C 80.310822 107.301956 80.419174 107.739471 81.113258 108.728363 C 81.613953 109.441696 89.092812 116.985176 97.732994 125.491638 C 110.524727 138.085449 113.4179 141.129883 113.310616 141.883636 C 113.178795 142.809357 113.178795 142.809357 98.053062 142.915039 C 82.927299 143.020752 82.927299 143.020752 80.796555 142.04924 C 79.042908 141.24968 75.70472 138.128693 61.934811 124.414833 C 52.732765 115.250214 44.748638 107.435547 44.192307 107.048859 C 43.305965 106.432838 42.094246 106.345535 34.403358 106.343689 C 25.790564 106.341583 25.614178 106.35836 24.996119 107.237137 C 24.458784 108.001129 24.36657 109.969467 24.368254 120.635513 C 24.370016 131.538712 24.279406 133.391739 23.660172 135.118881 C 23.269642 136.208176 22.151258 137.985184 21.174896 139.067795 C 20.198534 140.150406 18.650877 141.435135 17.735693 141.92276 C 16.219578 142.730576 15.388125 142.820938 8.380053 142.939682 C 4.149638 143.011368 0.553634 142.935806 0.388952 142.77179 C 0.224243 142.607758 0.088594 131.034561 0.087485 117.053551 C 0.085654 93.84761 0.147327 91.458069 0.795554 89.618752 C 1.228569 88.390083 2.216033 86.891434 3.326388 85.777786 C 4.3278 84.773392 6.003987 83.552216 7.05124 83.064072 C 8.955358 82.176559 8.955358 82.176559 45.772804 82.06955 C 75.417336 81.983383 82.692688 81.860016 83.116165 81.436333 C 83.496483 81.055756 83.630005 79.515701 83.598557 75.872452 C 83.569969 72.563927 83.389488 70.669891 83.072739 70.354279 C 82.709282 69.992195 73.445854 69.824104 45.487236 69.672279 C 8.384048 69.470802 8.384048 69.470802 6.360981 68.30056 C 5.248302 67.656921 3.690409 66.462212 2.899011 65.64566 C 1.940298 64.656525 1.196103 63.298813 0.669016 61.577461 C -0.024289 59.313087 -0.096476 58.172379 0.084866 52.345039 L 0.291794 45.696205 Z M 190.902893 142.998215 C 141.906311 142.985641 141.906311 142.985641 139.93364 142.023239 C 138.848618 141.493927 137.270203 140.38916 136.426041 139.568161 C 135.581787 138.747177 134.384918 136.96463 133.766266 135.606918 C 132.665176 133.19046 132.643509 132.998367 132.740341 126.508728 C 132.799988 122.513077 133.012436 119.671371 133.275055 119.356201 C 133.627777 118.932945 142.940079 118.833282 182.136246 118.833282 C 230.013718 118.833282 230.589722 118.842712 233.037796 119.666061 C 234.926178 120.301178 235.959961 120.973808 237.393387 122.499992 C 238.427155 123.600601 239.646805 125.342834 240.10376 126.37162 C 240.805222 127.950958 240.958176 129.276855 241.086456 134.889786 C 241.218033 140.648285 241.148819 141.636002 240.568924 142.274155 C 239.927383 142.980164 237.859726 143.010315 190.902893 142.998215 Z M 266.122467 45.696205 C 278.643738 45.49855 280.568512 45.613213 282.382568 46.138405 C 283.961975 46.595665 285.246002 47.337494 286.523956 48.530998 C 287.763123 49.688271 288.678528 51.039207 289.289642 52.612556 C 290.203186 54.964272 290.203186 54.964272 290.301178 86.32695 C 290.396576 116.848328 290.420319 117.704971 291.184631 118.261475 C 291.846588 118.743393 296.811157 118.833282 322.764648 118.833282 C 346.176636 118.833282 353.67569 118.949211 354.04483 119.316849 C 354.383392 119.653992 354.530243 121.819275 354.53009 126.469376 C 354.529694 133.046661 354.51297 133.173569 353.312439 135.700821 C 352.643036 137.110168 351.477997 138.878052 350.723541 139.629425 C 349.969055 140.380798 348.377594 141.44722 347.18692 141.999252 C 345.021973 143.00296 345.021973 143.00296 310.427582 142.978851 C 280.988586 142.958298 275.540894 142.865295 273.87204 142.354736 C 272.482239 141.929565 271.230743 141.086639 269.57605 139.461365 C 268.119171 138.030319 266.989624 136.486069 266.572113 135.354614 C 265.962341 133.702148 265.91275 129.645279 266.012756 89.618752 L 266.122467 45.696205 Z M 427.167084 142.884781 C 394.816132 142.946915 387.647552 142.863251 386.413452 142.408981 C 385.589813 142.105835 384.259216 141.413391 383.456665 140.870239 C 382.654022 140.327072 381.482239 139.181198 380.8526 138.323822 C 380.223053 137.466461 379.414185 135.897293 379.055237 134.836823 C 378.470764 133.110382 378.402527 128.387665 378.402527 89.685257 C 378.402527 56.604317 378.516479 46.348366 378.888062 45.978302 C 379.226227 45.64151 381.387329 45.494728 386.00766 45.494728 C 390.924683 45.494728 393.225189 45.663651 394.895905 46.147354 C 396.55191 46.626808 397.64621 47.295067 399.020203 48.665855 C 400.267914 49.910713 401.188568 51.336418 401.786255 52.949471 C 402.678864 55.358376 402.682526 55.4813 402.781952 86.4758 C 402.861664 111.35334 402.986938 117.689278 403.40744 118.108093 C 403.824066 118.523132 408.813599 118.654709 427.452026 118.742142 C 443.802979 118.818855 451.103271 118.720657 451.405273 118.419952 C 451.705536 118.121124 451.874786 108.272415 451.95285 86.560043 C 452.063629 55.767975 452.083038 55.086143 452.91626 52.832191 C 453.486633 51.289146 454.394531 49.921036 455.673553 48.676971 C 456.829926 47.5522 458.350189 46.560959 459.536407 46.158485 C 461.057037 45.642487 463.055084 45.494728 468.513672 45.494728 C 474.827393 45.494728 475.562469 45.565811 475.806824 46.199913 C 475.95639 46.587769 476.036133 66.398232 475.9841 90.22319 C 475.899597 128.895309 475.819489 133.731598 475.237671 135.315765 C 474.879272 136.291718 473.954895 137.78595 473.183502 138.636276 C 472.41217 139.486603 470.575531 140.773376 469.102173 141.495819 C 466.423279 142.809357 466.423279 142.809357 427.167084 142.884781 Z M 133.004822 105.737122 C 132.812576 85.631599 132.902908 83.10022 133.317886 82.686935 C 133.747894 82.258682 142.661407 82.179741 181.169907 82.263077 L 228.493484 82.365486 L 228.601334 93.849823 C 228.699371 104.289047 228.646332 105.380005 228.018219 105.83786 C 227.567032 106.166763 226.160645 106.307533 223.965408 106.2435 C 222.116409 106.189575 200.89386 106.053589 176.804214 105.941284 L 133.004822 105.737122 Z M 240.631851 45.696205 C 240.631851 61.224281 240.631851 61.224281 239.459045 63.453522 C 238.813995 64.679604 237.630493 66.221405 236.829071 66.879784 C 236.027603 67.538155 234.409149 68.435799 233.232498 68.874557 C 231.143951 69.65332 229.936584 69.672279 182.433334 69.672279 C 145.126343 69.672279 133.660324 69.559471 133.288071 69.188728 C 132.949356 68.851433 132.802521 66.679482 132.802521 62.007256 C 132.802521 56.799698 132.953384 54.867455 133.480591 53.323494 C 133.942017 51.972267 134.87944 50.619759 136.414032 49.09124 C 137.752838 47.757736 139.409363 46.567047 140.490158 46.161331 C 142.171707 45.530098 146.069321 45.486168 191.47139 45.587013 L 240.631851 45.696205 Z"/>
</svg>
