<?xml version="1.0" encoding="UTF-8"?>
<!-- Generated by Pixelmator Pro 3.6.14 -->
<svg width="985" height="144" viewBox="0 0 985 144" xmlns="http://www.w3.org/2000/svg">
    <path id="path1" fill="#ffffff" stroke="none" opacity="0.5" d="M 522.466003 142.110992 L 522.466003 4.900436 L 575.390015 4.900436 C 583.883972 4.900436 591.333008 6.272552 597.736023 9.016769 C 604.138977 11.630295 609.169983 15.485306 612.828979 20.581696 C 616.619019 25.678101 618.513977 31.754601 618.513977 38.811096 C 618.513977 45.998398 616.815002 51.944199 613.416992 56.648499 C 610.150024 61.352905 606.22998 64.881203 601.656006 67.233398 C 608.320984 69.716202 613.875 73.767197 618.317993 79.386299 C 622.890991 85.005501 625.177979 92.519402 625.177979 101.928001 C 625.177979 110.161003 623.153015 117.348 619.10199 123.489998 C 615.18103 129.501007 609.627991 134.139999 602.440002 137.406998 C 595.383972 140.542999 587.020996 142.110992 577.349976 142.110992 L 522.466003 142.110992 Z M 547.752014 119.765999 L 574.606018 119.765999 C 583.362 119.765999 589.830017 118.132004 594.012024 114.864998 C 598.323975 111.468002 600.47998 106.567001 600.47998 100.164001 C 600.47998 93.891502 598.323975 89.056396 594.012024 85.658798 C 589.830017 82.2612 583.362 80.562401 574.606018 80.562401 L 547.752014 80.562401 L 547.752014 119.765999 Z M 547.752014 58.608704 L 573.625977 58.608704 C 580.552002 58.608704 585.713989 57.171295 589.111023 54.296402 C 592.508972 51.421501 594.208008 47.370499 594.208008 42.143402 C 594.208008 36.916306 592.44397 32.865295 588.914978 29.990402 C 585.518005 27.115501 580.291016 25.678101 573.234009 25.678101 L 547.752014 25.678101 L 547.752014 58.608704 Z M 680.421997 143.679001 C 671.013977 143.679001 662.911987 141.522995 656.117004 137.210999 C 649.320984 132.899002 644.028992 126.953003 640.239014 119.374001 C 636.580017 111.664001 634.750977 102.778 634.750977 92.715401 C 634.750977 85.2668 635.796021 78.406303 637.887024 72.133797 C 639.978027 65.861298 642.984009 60.503502 646.903992 56.060501 C 650.823975 51.486801 655.593994 47.958496 661.213013 45.4757 C 666.963013 42.992798 673.43103 41.751404 680.619019 41.751404 C 686.499023 41.751404 692.117981 42.927505 697.476013 45.279602 C 702.833984 47.501205 707.145996 50.572098 710.413025 54.492401 L 710.413025 43.319504 L 734.327026 43.319504 L 734.327026 142.110992 L 710.413025 142.110992 L 710.413025 130.546005 C 708.453003 133.291 705.905029 135.643005 702.768005 137.602997 C 699.763 139.563004 696.36499 141.065994 692.575012 142.110992 C 688.786011 143.156998 684.734985 143.679001 680.421997 143.679001 Z M 685.127014 122.902 C 689.177979 122.902 692.836975 122.182999 696.104004 120.746002 C 699.370972 119.307999 702.179993 117.282997 704.531982 114.668999 C 706.88501 111.925003 708.648987 108.723 709.825012 105.064003 C 711.132019 101.404999 711.784973 97.289101 711.784973 92.715401 C 711.784973 83.568001 709.367004 76.250099 704.531982 70.761703 C 699.697021 65.273201 693.229004 62.528999 685.127014 62.528999 C 681.20697 62.528999 677.612976 63.247696 674.346008 64.685204 C 671.078979 66.122597 668.27002 68.213501 665.916992 70.957703 C 663.565002 73.571198 661.736023 76.707497 660.429016 80.366402 C 659.252991 84.025398 658.664978 88.141701 658.664978 92.715401 C 658.664978 101.732002 661.08197 109.050003 665.916992 114.668999 C 670.752014 120.157997 677.156006 122.902 685.127014 122.902 Z M 788.919983 143.679001 C 780.817993 143.679001 773.762024 142.307007 767.75 139.563004 C 761.869995 136.819 757.231018 132.899002 753.833008 127.802002 C 750.565979 122.706001 748.671997 116.564003 748.148987 109.376999 L 769.31897 109.376999 C 769.841003 114.211998 771.801025 118.067001 775.198975 120.942001 C 778.72699 123.685997 783.301025 125.057999 788.919983 125.057999 C 792.187012 125.057999 795.062012 124.600998 797.544983 123.685997 C 800.028015 122.639999 801.922974 121.267998 803.229004 119.57 C 804.666992 117.871002 805.38501 115.845001 805.38501 113.492996 C 805.38501 110.357002 804.405029 108.004997 802.445007 106.435997 C 800.484985 104.867996 797.872009 103.692001 794.60498 102.907997 C 791.338013 101.992996 787.744019 101.275002 783.823975 100.751999 C 780.033997 100.098999 776.179016 99.314598 772.258972 98.399902 C 768.468994 97.354401 764.940979 95.8517 761.674011 93.891502 C 758.406982 91.931297 755.794006 89.187103 753.833008 85.658798 C 751.872986 82.1306 750.893005 77.491501 750.893005 71.741699 C 750.893005 65.861298 752.395996 60.699501 755.401978 56.2565 C 758.538025 51.6828 762.784973 48.154495 768.143005 45.6717 C 773.5 43.058105 779.577026 41.751404 786.372009 41.751404 C 794.343018 41.751404 801.203979 43.058105 806.953979 45.6717 C 812.703003 48.154495 817.211975 51.813499 820.479004 56.648499 C 823.745972 61.352905 825.575012 66.9067 825.96698 73.309898 L 804.796997 73.309898 C 804.405029 70.434998 803.359985 68.017403 801.661011 66.057297 C 800.093018 63.966499 798.002014 62.333 795.388977 61.156898 C 792.906006 59.980804 790.096008 59.392799 786.960022 59.392799 C 782.778015 59.392799 779.184998 60.372803 776.179016 62.333 C 773.304016 64.162498 771.867004 66.972 771.867004 70.761703 C 771.867004 73.767197 772.846985 76.0541 774.807007 77.6222 C 776.89801 79.0597 779.577026 80.170403 782.843994 80.954498 C 786.111023 81.607903 789.703979 82.1959 793.625 82.718597 C 797.544983 83.241302 801.400024 83.959999 805.189026 84.874802 C 809.109985 85.789497 812.703003 87.226997 815.969971 89.187103 C 819.237 91.147301 821.851013 93.891502 823.810974 97.4198 C 825.901978 100.947998 826.947021 105.652 826.947021 111.532997 C 826.947021 116.628998 826.031982 121.203003 824.203003 125.253998 C 822.504028 129.173996 819.955994 132.507004 816.557983 135.251007 C 813.291016 137.863998 809.30603 139.955002 804.601013 141.522995 C 800.028015 142.960999 794.801025 143.679001 788.919983 143.679001 Z M 842.005005 142.110992 L 842.005005 43.319504 L 866.11499 43.319504 L 866.11499 142.110992 L 842.005005 142.110992 Z M 853.961975 29.206398 C 849.911011 29.206398 846.382996 27.768898 843.377014 24.893997 C 840.502014 22.019104 839.065002 18.556198 839.065002 14.505203 C 839.065002 10.454193 840.502014 7.05661 843.377014 4.312393 C 846.382996 1.4375 849.911011 4.6e-05 853.961975 4.6e-05 C 858.143982 4.6e-05 861.671997 1.4375 864.546997 4.312393 C 867.421997 7.05661 868.859009 10.454193 868.859009 14.505203 C 868.859009 18.556198 867.421997 22.019104 864.546997 24.893997 C 861.671997 27.768898 858.143982 29.206398 853.961975 29.206398 Z M 930.814026 143.679001 C 920.620972 143.679001 911.734985 141.393005 904.156006 136.819 C 896.70697 132.244995 890.95697 126.102997 886.906982 118.392998 C 882.856018 110.683998 880.830017 102.124001 880.830017 92.715401 C 880.830017 85.658798 881.940979 79.0597 884.161987 72.917801 C 886.513977 66.776001 889.911987 61.352905 894.35498 56.648499 C 898.797974 51.944199 904.091003 48.285202 910.231995 45.6717 C 916.374023 43.058105 923.234985 41.751404 930.814026 41.751404 C 939.177002 41.751404 946.822021 43.319504 953.747986 46.455704 C 960.674011 49.591995 966.29303 53.969696 970.60498 59.588799 C 975.047974 65.077202 977.596008 71.676399 978.25 79.386299 L 954.140015 79.386299 C 953.617004 76.1194 952.244995 73.244499 950.023987 70.761703 C 947.932983 68.148102 945.254028 66.122597 941.987 64.685204 C 938.851013 63.247696 935.388 62.528999 931.598022 62.528999 C 925.979004 62.528999 921.208984 63.9011 917.289001 66.645302 C 913.499023 69.258904 910.624023 72.787201 908.664001 77.230202 C 906.703979 81.673203 905.723999 86.8349 905.723999 92.715401 C 905.723999 98.465202 906.703979 103.626999 908.664001 108.200996 C 910.755005 112.643997 913.695007 116.237 917.484985 118.981003 C 921.405029 121.595001 926.174988 122.902 931.794006 122.902 C 937.544006 122.902 942.44397 121.399002 946.494995 118.392998 C 950.546021 115.388 953.224976 111.532997 954.531982 106.829002 L 978.642029 106.829002 C 977.72699 113.885002 975.047974 120.223 970.60498 125.842003 C 966.29303 131.330002 960.739014 135.707993 953.94397 138.975006 C 947.148987 142.110992 939.439026 143.679001 930.814026 143.679001 Z"/>
    <path id="-" fill="#ffffff" fill-rule="evenodd" stroke="none" d="M 0.291794 46.696205 C 93.908859 46.469627 97.569092 46.511314 99.766846 47.158699 C 101.34745 47.624275 102.761742 48.417542 104.020279 49.544449 C 105.057274 50.472969 106.348274 52.115257 106.889244 53.193962 C 107.872765 55.155235 107.872765 55.155235 107.779884 76.912521 C 107.686951 98.6698 107.686951 98.6698 106.732018 100.747116 C 106.086678 102.150986 105.099113 103.358139 103.68576 104.470749 C 102.535553 105.376221 100.662933 106.392593 99.524406 106.729324 C 97.971077 107.188736 95.414513 107.34156 89.282722 107.34156 C 82.90934 107.34156 81.011208 107.461456 80.657043 107.886475 C 80.310822 108.301956 80.419174 108.739471 81.113258 109.728363 C 81.613953 110.441696 89.092812 117.985176 97.732994 126.491638 C 110.524727 139.085449 113.4179 142.129883 113.310616 142.883636 C 113.178795 143.809357 113.178795 143.809357 98.053062 143.915039 C 82.927299 144.020752 82.927299 144.020752 80.796555 143.04924 C 79.042908 142.24968 75.70472 139.128693 61.934811 125.414833 C 52.732765 116.250214 44.748638 108.435547 44.192307 108.048859 C 43.305965 107.432838 42.094246 107.345535 34.403358 107.343689 C 25.790564 107.341583 25.614178 107.35836 24.996119 108.237137 C 24.458784 109.001129 24.36657 110.969467 24.368254 121.635513 C 24.370016 132.538712 24.279406 134.391739 23.660172 136.118881 C 23.269642 137.208176 22.151258 138.985184 21.174896 140.067795 C 20.198534 141.150406 18.650877 142.435135 17.735693 142.92276 C 16.219578 143.730576 15.388125 143.820938 8.380053 143.939682 C 4.149638 144.011368 0.553634 143.935806 0.388952 143.77179 C 0.224243 143.607758 0.088594 132.034561 0.087485 118.053551 C 0.085654 94.84761 0.147327 92.458069 0.795554 90.618752 C 1.228569 89.390083 2.216033 87.891434 3.326388 86.777786 C 4.3278 85.773392 6.003987 84.552216 7.05124 84.064072 C 8.955358 83.176559 8.955358 83.176559 45.772804 83.06955 C 75.417336 82.983383 82.692688 82.860016 83.116165 82.436333 C 83.496483 82.055756 83.630005 80.515701 83.598557 76.872452 C 83.569969 73.563927 83.389488 71.669891 83.072739 71.354279 C 82.709282 70.992195 73.445854 70.824104 45.487236 70.672279 C 8.384048 70.470802 8.384048 70.470802 6.360981 69.30056 C 5.248302 68.656921 3.690409 67.462212 2.899011 66.64566 C 1.940298 65.656525 1.196103 64.298813 0.669016 62.577461 C -0.024289 60.313087 -0.096476 59.172379 0.084866 53.345039 L 0.291794 46.696205 Z M 190.902893 143.998215 C 141.906311 143.985641 141.906311 143.985641 139.93364 143.023239 C 138.848618 142.493927 137.270203 141.38916 136.426041 140.568161 C 135.581787 139.747177 134.384918 137.96463 133.766266 136.606918 C 132.665176 134.19046 132.643509 133.998367 132.740341 127.508728 C 132.799988 123.513077 133.012436 120.671371 133.275055 120.356201 C 133.627777 119.932945 142.940079 119.833282 182.136246 119.833282 C 230.013718 119.833282 230.589722 119.842712 233.037796 120.666061 C 234.926178 121.301178 235.959961 121.973808 237.393387 123.499992 C 238.427155 124.600601 239.646805 126.342834 240.10376 127.37162 C 240.805222 128.950958 240.958176 130.276855 241.086456 135.889786 C 241.218033 141.648285 241.148819 142.636002 240.568924 143.274155 C 239.927383 143.980164 237.859726 144.010315 190.902893 143.998215 Z M 266.122467 46.696205 C 278.643738 46.49855 280.568512 46.613213 282.382568 47.138405 C 283.961975 47.595665 285.246002 48.337494 286.523956 49.530998 C 287.763123 50.688271 288.678528 52.039207 289.289642 53.612556 C 290.203186 55.964272 290.203186 55.964272 290.301178 87.32695 C 290.396576 117.848328 290.420319 118.704971 291.184631 119.261475 C 291.846588 119.743393 296.811157 119.833282 322.764648 119.833282 C 346.176636 119.833282 353.67569 119.949211 354.04483 120.316849 C 354.383392 120.653992 354.530243 122.819275 354.53009 127.469376 C 354.529694 134.046661 354.51297 134.173569 353.312439 136.700821 C 352.643036 138.110168 351.477997 139.878052 350.723541 140.629425 C 349.969055 141.380798 348.377594 142.44722 347.18692 142.999252 C 345.021973 144.00296 345.021973 144.00296 310.427582 143.978851 C 280.988586 143.958298 275.540894 143.865295 273.87204 143.354736 C 272.482239 142.929565 271.230743 142.086639 269.57605 140.461365 C 268.119171 139.030319 266.989624 137.486069 266.572113 136.354614 C 265.962341 134.702148 265.91275 130.645279 266.012756 90.618752 L 266.122467 46.696205 Z M 427.167084 143.884781 C 394.816132 143.946915 387.647552 143.863251 386.413452 143.408981 C 385.589813 143.105835 384.259216 142.413391 383.456665 141.870239 C 382.654022 141.327072 381.482239 140.181198 380.8526 139.323822 C 380.223053 138.466461 379.414185 136.897293 379.055237 135.836823 C 378.470764 134.110382 378.402527 129.387665 378.402527 90.685257 C 378.402527 57.604317 378.516479 47.348366 378.888062 46.978302 C 379.226227 46.64151 381.387329 46.494728 386.00766 46.494728 C 390.924683 46.494728 393.225189 46.663651 394.895905 47.147354 C 396.55191 47.626808 397.64621 48.295067 399.020203 49.665855 C 400.267914 50.910713 401.188568 52.336418 401.786255 53.949471 C 402.678864 56.358376 402.682526 56.4813 402.781952 87.4758 C 402.861664 112.35334 402.986938 118.689278 403.40744 119.108093 C 403.824066 119.523132 408.813599 119.654709 427.452026 119.742142 C 443.802979 119.818855 451.103271 119.720657 451.405273 119.419952 C 451.705536 119.121124 451.874786 109.272415 451.95285 87.560043 C 452.063629 56.767975 452.083038 56.086143 452.91626 53.832191 C 453.486633 52.289146 454.394531 50.921036 455.673553 49.676971 C 456.829926 48.5522 458.350189 47.560959 459.536407 47.158485 C 461.057037 46.642487 463.055084 46.494728 468.513672 46.494728 C 474.827393 46.494728 475.562469 46.565811 475.806824 47.199913 C 475.95639 47.587769 476.036133 67.398232 475.9841 91.22319 C 475.899597 129.895309 475.819489 134.731598 475.237671 136.315765 C 474.879272 137.291718 473.954895 138.78595 473.183502 139.636276 C 472.41217 140.486603 470.575531 141.773376 469.102173 142.495819 C 466.423279 143.809357 466.423279 143.809357 427.167084 143.884781 Z M 133.004822 106.737122 C 132.812576 86.631599 132.902908 84.10022 133.317886 83.686935 C 133.747894 83.258682 142.661407 83.179741 181.169907 83.263077 L 228.493484 83.365486 L 228.601334 94.849823 C 228.699371 105.289047 228.646332 106.380005 228.018219 106.83786 C 227.567032 107.166763 226.160645 107.307533 223.965408 107.2435 C 222.116409 107.189575 200.89386 107.053589 176.804214 106.941284 L 133.004822 106.737122 Z M 240.631851 46.696205 C 240.631851 62.224281 240.631851 62.224281 239.459045 64.453522 C 238.813995 65.679604 237.630493 67.221405 236.829071 67.879784 C 236.027603 68.538155 234.409149 69.435799 233.232498 69.874557 C 231.143951 70.65332 229.936584 70.672279 182.433334 70.672279 C 145.126343 70.672279 133.660324 70.559471 133.288071 70.188728 C 132.949356 69.851433 132.802521 67.679482 132.802521 63.007256 C 132.802521 57.799698 132.953384 55.867455 133.480591 54.323494 C 133.942017 52.972267 134.87944 51.619759 136.414032 50.09124 C 137.752838 48.757736 139.409363 47.567047 140.490158 47.161331 C 142.171707 46.530098 146.069321 46.486168 191.47139 46.587013 L 240.631851 46.696205 Z"/>
</svg>
