<?xml version="1.0" encoding="UTF-8"?>
<!-- Generated by Pixelmator Pro 3.6.14 -->
<svg width="708" height="142" viewBox="0 0 708 142" xmlns="http://www.w3.org/2000/svg">
    <path id="path1" fill="#000000" fill-rule="evenodd" stroke="none" d="M 109.084412 134.568848 C 101.314575 134.551865 94.546028 134.609344 94.260086 134.599686 C 91.708359 134.513443 92.529961 134.495163 92.586411 134.333786 C 92.64283 134.172409 95.099548 133.520905 95.933762 133.270233 C 96.767975 133.019592 98.318748 132.469177 99.699532 132.076035 C 101.080322 131.682907 103.596611 130.711517 105.29126 129.917389 C 107.026428 129.104309 109.661812 127.550766 111.323837 126.361275 C 112.94709 125.199501 115.307503 123.197762 116.569183 121.912941 C 117.830864 120.62812 119.53598 118.613525 120.35833 117.436073 C 121.180695 116.258621 122.358147 114.344193 122.974915 113.181831 C 123.591698 112.01944 124.459679 110.051392 124.903755 108.808334 C 125.347832 107.565292 126.09874 105.351768 126.572426 103.889374 C 127.046112 102.426979 128.01915 99.196411 128.734756 96.710342 C 129.450333 94.224281 130.454788 90.69458 130.966858 88.866592 C 131.478928 87.038597 132.402054 83.808029 133.01825 81.687561 C 133.63446 79.567093 134.781906 75.558777 135.568161 72.780243 C 136.354416 70.001701 137.537857 65.873749 138.19809 63.607033 C 138.858261 61.340309 139.967682 57.51149 140.663406 55.098549 C 141.359131 52.685616 142.443436 48.888214 143.072937 46.65992 C 143.702393 44.431633 145.036652 39.765274 146.037888 36.290199 C 147.039124 32.81517 148.468216 27.81823 149.213669 25.185913 C 149.959106 22.553596 151.528931 17.04969 152.702164 12.954987 C 154.149323 7.904175 154.99675 5.136307 155.349274 4.845337 C 155.796921 4.475906 157.220261 4.629089 165.584274 4.484818 C 170.924561 4.392715 178.263794 4.244247 181.8936 4.154892 C 188.148026 4.000977 188.837524 3.84288 189.101761 4.313538 C 189.267746 4.609177 188.96106 5.414658 188.828873 6.045563 C 188.706696 6.628464 188.041916 9.13945 187.351532 11.625519 C 186.661194 14.111588 185.647354 17.760933 185.098694 19.735168 C 184.549988 21.709412 183.609131 25.119446 183.007858 27.313034 C 182.406647 29.50663 181.44957 32.976509 180.881088 35.023849 C 180.312653 37.071182 179.426056 40.241943 178.910965 42.069939 C 178.395844 43.897934 177.540833 47.008827 177.010895 48.983078 C 176.480957 50.957329 175.641586 54.008408 175.14563 55.763275 C 174.649673 57.518143 173.835663 60.449593 173.336716 62.27758 C 172.837753 64.105576 172.051193 66.977203 171.588699 68.658943 C 171.126251 70.340691 170.346848 73.152489 169.856796 74.907364 C 169.366714 76.662224 168.677032 79.174911 168.324173 80.491058 C 167.971329 81.807198 167.355408 84.050644 166.955414 85.476486 C 166.555405 86.902344 165.922363 89.175674 165.548584 90.528404 C 165.17482 91.881126 164.56044 94.124573 164.18335 95.51384 C 163.806198 96.903107 163.170807 99.206444 162.771317 100.632355 C 162.371841 102.058258 161.787201 104.152145 161.472214 105.285431 C 161.157166 106.418701 160.358536 108.621651 159.697479 110.180862 C 159.036392 111.740051 157.828094 114.073235 157.012405 115.365723 C 156.196716 116.658173 155.035339 118.313911 154.43158 119.045113 C 153.82782 119.776306 152.653458 121.115334 151.821869 122.020729 C 150.990265 122.926125 149.341217 124.431595 148.157227 125.366196 C 146.973282 126.300842 145.25145 127.548073 144.330917 128.137848 C 143.41037 128.727646 141.590256 129.722809 140.286194 130.349365 C 138.982117 130.975922 136.973694 131.815292 135.823044 132.214661 C 134.672394 132.614044 132.663986 133.188019 131.359909 133.490158 C 130.055847 133.792297 127.688942 134.165527 126.100121 134.319611 C 124.435089 134.481018 117.226929 134.586594 109.084412 134.568848 Z M 42.501652 134.328888 C 11.181101 134.332657 1.349444 134.313187 1.092103 134.067902 C 0.839785 133.827362 1.092103 130.055923 1.092103 118.91217 C 1.092103 107.768417 0.839785 103.996941 1.092103 103.756432 C 1.350295 103.510338 14.976021 103.49054 59.552944 103.49054 C 111.868729 103.49054 117.63958 103.376358 117.970505 103.756432 C 118.273842 104.104797 117.992973 104.625214 117.591042 106.063004 C 117.324623 107.016022 116.736397 108.684189 116.28389 109.77002 C 115.831345 110.855873 115.005577 112.606529 114.448807 113.660385 C 113.892044 114.714203 112.676247 116.654175 111.747063 117.97142 C 110.817863 119.288635 108.919533 121.493393 107.528564 122.870888 C 106.137581 124.248367 104.023399 126.069519 102.830391 126.917885 C 101.637375 127.766251 99.688431 128.981842 98.49939 129.619202 C 97.310341 130.256607 95.390854 131.153717 94.233871 131.612839 C 93.076851 132.07193 91.197281 132.690735 90.057014 132.987915 C 88.916748 133.285126 86.916832 133.707306 85.612762 133.926117 C 83.581001 134.267059 77.412209 134.324707 42.501652 134.328888 Z M 232.278305 44.228233 C 325.898041 44.012199 329.55835 44.051949 331.756195 44.669182 C 333.336823 45.113068 334.75116 45.869392 336.009735 46.94381 C 337.046753 47.829079 338.337799 49.394882 338.878784 50.423347 C 339.862335 52.293266 339.862335 52.293266 339.76944 73.037186 C 339.676514 93.781097 339.676514 93.781097 338.721558 95.761665 C 338.076202 97.100143 337.088593 98.251068 335.675201 99.311859 C 334.524963 100.175156 332.652283 101.144196 331.513733 101.465248 C 329.960358 101.903259 327.403717 102.048965 321.271759 102.048965 C 314.898193 102.048965 313 102.163277 312.645844 102.568497 C 312.299622 102.96463 312.407959 103.38176 313.102051 104.3246 C 313.602783 105.004707 321.081848 112.196846 329.72226 120.307106 C 342.514374 132.314346 345.407623 135.21698 345.300323 135.935638 C 345.168518 136.818237 345.168518 136.818237 330.042358 136.918991 C 314.916168 137.019775 314.916168 137.019775 312.78537 136.093536 C 311.031647 135.331207 307.69339 132.355576 293.923065 119.280457 C 284.720764 110.542694 276.73642 103.091995 276.180054 102.72332 C 275.293701 102.135994 274.08194 102.05275 266.390839 102.050995 C 257.777802 102.048988 257.60141 102.064987 256.983337 102.902824 C 256.445984 103.631241 256.35376 105.507889 256.355438 115.67717 C 256.357208 126.072533 256.266602 127.839249 255.647354 129.485947 C 255.256805 130.524521 254.138397 132.21875 253.162003 133.250946 C 252.185623 134.283127 250.637909 135.508011 249.722702 135.972931 C 248.206543 136.743118 247.375076 136.829285 240.366806 136.94249 C 236.136261 137.010834 232.540161 136.938797 232.375473 136.78241 C 232.210754 136.626022 232.075104 125.591858 232.07399 112.262032 C 232.072159 90.136932 232.133835 87.858688 232.782089 86.105042 C 233.215118 84.933594 234.202606 83.504745 235.312988 82.44297 C 236.314438 81.485352 237.990662 80.32106 239.037949 79.855652 C 240.942123 79.009468 240.942123 79.009468 277.76062 78.907448 C 307.405975 78.825302 314.681549 78.707672 315.105011 78.303726 C 315.485352 77.940872 315.618896 76.472549 315.587433 72.998985 C 315.558838 69.844559 315.378357 68.038734 315.061615 67.737823 C 314.69812 67.392609 305.434448 67.232346 277.475037 67.087585 C 240.370789 66.895493 240.370789 66.895493 238.347672 65.779762 C 237.234955 65.166107 235.677017 64.027039 234.885605 63.24852 C 233.926865 62.305458 233.182648 61.010979 232.655548 59.369804 C 231.962219 57.210892 231.89003 56.123306 232.071381 50.56739 L 232.278305 44.228233 Z M 422.894806 136.998306 C 373.896851 136.986298 373.896851 136.986298 371.924103 136.068726 C 370.839081 135.564072 369.26062 134.510757 368.416412 133.728012 C 367.572144 132.945251 366.375244 131.245728 365.756561 129.951248 C 364.655457 127.647346 364.633759 127.464195 364.730621 121.276825 C 364.790253 117.46727 365.002716 114.757927 365.26535 114.457443 C 365.618073 114.053894 374.930634 113.958878 414.12793 113.958878 C 462.006744 113.958878 462.582764 113.967865 465.030914 114.752869 C 466.919342 115.358398 467.953156 115.999695 469.386627 117.454803 C 470.42041 118.50415 471.640106 120.165237 472.097076 121.146103 C 472.798553 122.651878 472.951508 123.916023 473.079803 129.267532 C 473.211365 134.757828 473.142181 135.699539 472.562256 136.307968 C 471.920685 136.981094 469.852966 137.009827 422.894806 136.998306 Z M 498.116516 44.228233 C 510.638153 44.03978 512.562988 44.149101 514.377075 44.649826 C 515.956543 45.085793 517.240601 45.793076 518.518555 46.930984 C 519.757813 48.034363 520.673218 49.322372 521.284363 50.822449 C 522.197937 53.064621 522.197937 53.064621 522.295959 82.966553 C 522.391296 112.066376 522.415039 112.883118 523.179382 113.413696 C 523.84137 113.873169 528.806091 113.958878 554.760315 113.958878 C 578.172974 113.958878 585.672241 114.069397 586.041382 114.419914 C 586.379944 114.741356 586.526794 116.805786 586.526611 121.239304 C 586.526245 127.510246 586.509521 127.631241 585.30896 130.040787 C 584.639526 131.384506 583.474487 133.070038 582.719971 133.786407 C 581.965454 134.502792 580.373962 135.519547 579.183228 136.045868 C 577.01825 137.002823 577.01825 137.002823 542.422852 136.979828 C 512.983032 136.960236 507.535217 136.871567 505.866333 136.384796 C 504.476471 135.979416 503.224915 135.175766 501.57019 133.626175 C 500.113281 132.26178 498.983673 130.789459 498.566193 129.710693 C 497.95639 128.135193 497.906799 124.267288 498.006805 86.105042 L 498.116516 44.228233 Z M 659.16571 136.890137 C 626.813843 136.949387 619.64502 136.869614 618.41095 136.436508 C 617.587219 136.147476 616.256592 135.487289 615.454041 134.969437 C 614.651367 134.451569 613.479553 133.359055 612.849915 132.541626 C 612.220337 131.724197 611.411438 130.228119 611.05249 129.217041 C 610.468018 127.570999 610.39978 123.068245 610.39978 86.168442 C 610.39978 54.628281 610.513733 44.850014 610.885315 44.497185 C 611.223511 44.176079 613.384644 44.03614 618.005127 44.03614 C 622.922241 44.03614 625.222839 44.197189 626.893616 44.658363 C 628.549683 45.115486 629.643982 45.752617 631.018005 47.059563 C 632.265747 48.246437 633.186462 49.605736 633.78418 51.143669 C 634.676758 53.440376 634.680481 53.557571 634.779846 83.108467 C 634.859619 106.827316 634.984863 112.868149 635.405396 113.267456 C 635.822021 113.66317 640.811707 113.78862 659.450623 113.871979 C 675.802063 113.945114 683.1026 113.851494 683.404602 113.564789 C 683.704834 113.279884 683.874084 103.889885 683.952148 83.188789 C 684.062988 53.830894 684.082336 53.180824 684.915588 51.031853 C 685.486023 49.560669 686.393921 48.256287 687.672974 47.07016 C 688.829407 45.99778 690.349731 45.052704 691.53595 44.668976 C 693.056641 44.17701 695.054749 44.03614 700.513489 44.03614 C 706.827332 44.03614 707.5625 44.103905 707.806824 44.708473 C 707.956421 45.07827 708.036133 63.966042 707.98407 86.68132 C 707.899597 123.552254 707.819458 128.163284 707.23761 129.67366 C 706.879272 130.604156 705.954834 132.028809 705.183411 132.839508 C 704.412048 133.650238 702.575378 134.87709 701.10199 135.565887 C 698.423035 136.818237 698.423035 136.818237 659.16571 136.890137 Z M 364.995117 101.472672 C 364.802856 82.303589 364.893188 79.890106 365.308167 79.496078 C 365.73819 79.087769 374.651947 79.012505 413.16156 79.091965 L 460.48645 79.189598 L 460.594299 90.139038 C 460.692352 100.092049 460.639313 101.132187 460.0112 101.568726 C 459.559998 101.882309 458.153564 102.016525 455.958252 101.955467 C 454.109222 101.90406 432.886047 101.774399 408.795746 101.667328 L 364.995117 101.472672 Z M 472.625183 44.228233 C 472.625183 59.033073 472.625183 59.033073 471.452332 61.158478 C 470.807281 62.327454 469.623718 63.79744 468.822296 64.425156 C 468.020782 65.052872 466.402313 65.908699 465.225616 66.327026 C 463.136993 67.069511 461.929596 67.087585 414.425018 67.087585 C 377.116974 67.087585 365.650635 66.980042 365.278351 66.626564 C 364.939636 66.304977 364.792786 64.234184 364.792786 59.779572 C 364.792786 54.814568 364.943665 52.972313 365.470886 51.500267 C 365.932312 50.211975 366.869781 48.922455 368.404419 47.465134 C 369.743256 46.193741 371.399811 45.05851 372.480652 44.671684 C 374.162262 44.069855 378.059967 44.027969 423.463318 44.124123 L 472.625183 44.228233 Z"/>
</svg>
