<?xml version="1.0" encoding="UTF-8"?>
<!-- Generated by Pixelmator Pro 3.6.14 -->
<svg width="393" height="462" viewBox="0 0 393 462" xmlns="http://www.w3.org/2000/svg">
    <g id="g1" opacity="0.3">
        <path id="path1" fill="none" stroke="#ffffff" d="M 225.780304 376.276947 C 209.552704 376.239349 195.416321 376.366669 194.819122 376.345245 C 189.489731 376.154236 191.205688 376.11377 191.323578 375.756317 C 191.441422 375.398865 196.572372 373.955811 198.314667 373.400574 C 200.056946 372.845428 203.295792 371.626282 206.179611 370.755463 C 209.063461 369.884735 214.318817 367.733154 217.858154 365.974182 C 221.482132 364.173218 226.986221 360.732208 230.457428 358.097534 C 233.847656 355.524261 238.777466 351.090485 241.412537 348.244659 C 244.047592 345.398834 247.608795 340.936584 249.326309 338.328583 C 251.043854 335.720581 253.503006 331.480225 254.791138 328.90564 C 256.079315 326.330994 257.892151 321.971832 258.819611 319.218506 C 259.74707 316.46521 261.315369 311.562378 262.304688 308.323242 C 263.294006 305.084076 265.326233 297.928528 266.82077 292.421997 C 268.315308 286.915466 270.413147 279.097321 271.482635 275.048401 C 272.552124 270.999451 274.480072 263.843872 275.767029 259.147156 C 277.054016 254.450394 279.4505 245.572144 281.092621 239.417816 C 282.734741 233.263458 285.206421 224.120224 286.585327 219.099548 C 287.964111 214.078842 290.281189 205.598175 291.734253 200.253601 C 293.187317 194.909058 295.451874 186.497955 296.766632 181.562408 C 298.081268 176.626831 300.86795 166.291046 302.959045 158.593903 C 305.050171 150.896851 308.034882 139.828857 309.591797 133.998383 C 311.148682 128.167908 314.427307 115.97699 316.877625 106.907379 C 319.900116 95.720062 321.669983 89.589355 322.40625 88.944855 C 323.341187 88.126587 326.313873 88.465881 343.78244 88.146332 C 354.935852 87.942322 370.264099 87.613495 377.845093 87.415558 C 390.907715 87.074646 392.347717 86.724457 392.899597 87.766968 C 393.246277 88.421783 392.605743 90.205902 392.329651 91.603333 C 392.074524 92.894409 390.686096 98.456146 389.244171 103.962677 C 387.802368 109.469208 385.684937 117.552368 384.539032 121.925201 C 383.393036 126.298096 381.42804 133.851166 380.172241 138.709869 C 378.916595 143.568573 376.917694 151.254211 375.730408 155.789001 C 374.543213 160.323761 372.691528 167.346863 371.615753 171.395782 C 370.539886 175.444733 368.75415 182.335205 367.647369 186.708099 C 366.540558 191.080963 364.787506 197.838989 363.751709 201.725952 C 362.715881 205.612885 361.015778 212.105927 359.973694 216.154861 C 358.93161 220.203796 357.288818 226.564331 356.322906 230.289307 C 355.357056 234.014297 353.729248 240.242325 352.70578 244.129288 C 351.68219 248.016235 350.241791 253.581726 349.504791 256.496948 C 348.767883 259.41214 347.481506 264.381287 346.646118 267.539459 C 345.810669 270.697662 344.488556 275.733002 343.707916 278.729248 C 342.927277 281.725464 341.644104 286.694611 340.856537 289.771759 C 340.068848 292.848938 338.741821 297.950745 337.907471 301.10907 C 337.07312 304.267395 335.852112 308.905273 335.194244 311.415436 C 334.536255 313.925598 332.868256 318.805023 331.48761 322.258606 C 330.106934 325.712158 327.583344 330.880066 325.87973 333.742859 C 324.176147 336.60556 321.75058 340.272949 320.489594 341.892548 C 319.228607 343.512115 316.77594 346.477997 315.039124 348.483398 C 313.302307 350.488831 309.858185 353.823364 307.385376 355.893494 C 304.912659 357.963684 301.316528 360.726257 299.393982 362.032593 C 297.471405 363.338928 293.670013 365.543182 290.946411 366.931 C 288.222809 368.318787 284.028137 370.177979 281.624969 371.062531 C 279.221771 371.947144 275.027161 373.218475 272.303528 373.887695 C 269.579926 374.556946 264.636566 375.383636 261.318268 375.724915 C 257.84079 376.082397 242.78627 376.316284 225.780304 376.276947 Z M 86.719643 375.745453 C 21.305471 375.753784 0.771678 375.710663 0.234212 375.167389 C -0.292765 374.634583 0.234212 366.281006 0.234212 341.598083 C 0.234212 316.915131 -0.292765 308.561462 0.234212 308.028748 C 0.773456 307.483673 29.231308 307.439819 122.331924 307.439819 C 231.595459 307.439819 243.648087 307.18689 244.339249 308.028748 C 244.972778 308.800354 244.386169 309.953064 243.546722 313.137726 C 242.990295 315.248596 241.761749 318.943542 240.816681 321.348602 C 239.871536 323.753723 238.146881 327.631348 236.984039 329.965576 C 235.821228 332.299744 233.281982 336.596741 231.341339 339.514374 C 229.400665 342.431946 225.435944 347.315369 222.530853 350.366455 C 219.625732 353.417542 215.21019 357.451294 212.718536 359.330414 C 210.226883 361.209503 206.156433 363.901978 203.673065 365.313721 C 201.189697 366.725525 197.180786 368.712616 194.764374 369.729523 C 192.347885 370.746399 188.422333 372.117035 186.040848 372.775269 C 183.659363 373.433594 179.482452 374.368652 176.75885 374.853363 C 172.515457 375.608521 159.631699 375.736206 86.719643 375.745453 Z"/>
    </g>
</svg>
