<?xml version="1.0" encoding="UTF-8"?>
<!-- Generated by Pixelmator Pro 3.6.14 -->
<svg width="393" height="462" viewBox="0 0 393 462" xmlns="http://www.w3.org/2000/svg">
    <path id="path1" fill="none" stroke="#000000" d="M 225.780304 375.276947 C 209.552704 375.239349 195.416321 375.366669 194.819122 375.345245 C 189.489731 375.154236 191.205688 375.11377 191.323578 374.756317 C 191.441422 374.398865 196.572372 372.955811 198.314667 372.400574 C 200.056946 371.845428 203.295792 370.626282 206.179611 369.755463 C 209.063461 368.884735 214.318817 366.733154 217.858154 364.974182 C 221.482132 363.173218 226.986221 359.732208 230.457428 357.097534 C 233.847656 354.524261 238.777466 350.090485 241.412537 347.244659 C 244.047592 344.398834 247.608795 339.936584 249.326309 337.328583 C 251.043854 334.720581 253.503006 330.480225 254.791138 327.90564 C 256.079315 325.330994 257.892151 320.971832 258.819611 318.218506 C 259.74707 315.46521 261.315369 310.562378 262.304688 307.323242 C 263.294006 304.084076 265.326233 296.928528 266.82077 291.421997 C 268.315308 285.915466 270.413147 278.097321 271.482635 274.048401 C 272.552124 269.999451 274.480072 262.843872 275.767029 258.147156 C 277.054016 253.450394 279.4505 244.572144 281.092621 238.417816 C 282.734741 232.263458 285.206421 223.120224 286.585327 218.099548 C 287.964111 213.078842 290.281189 204.598175 291.734253 199.253601 C 293.187317 193.909058 295.451874 185.497955 296.766632 180.562408 C 298.081268 175.626831 300.86795 165.291046 302.959045 157.593903 C 305.050171 149.896851 308.034882 138.828857 309.591797 132.998383 C 311.148682 127.167908 314.427307 114.97699 316.877625 105.907379 C 319.900116 94.720062 321.669983 88.589355 322.40625 87.944855 C 323.341187 87.126587 326.313873 87.465881 343.78244 87.146332 C 354.935852 86.942322 370.264099 86.613495 377.845093 86.415558 C 390.907715 86.074646 392.347717 85.724457 392.899597 86.766968 C 393.246277 87.421783 392.605743 89.205902 392.329651 90.603333 C 392.074524 91.894409 390.686096 97.456146 389.244171 102.962677 C 387.802368 108.469208 385.684937 116.552368 384.539032 120.925201 C 383.393036 125.298096 381.42804 132.851166 380.172241 137.709869 C 378.916595 142.568573 376.917694 150.254211 375.730408 154.789001 C 374.543213 159.323761 372.691528 166.346863 371.615753 170.395782 C 370.539886 174.444733 368.75415 181.335205 367.647369 185.708099 C 366.540558 190.080963 364.787506 196.838989 363.751709 200.725952 C 362.715881 204.612885 361.015778 211.105927 359.973694 215.154861 C 358.93161 219.203796 357.288818 225.564331 356.322906 229.289307 C 355.357056 233.014297 353.729248 239.242325 352.70578 243.129288 C 351.68219 247.016235 350.241791 252.581726 349.504791 255.496933 C 348.767883 258.41214 347.481506 263.381287 346.646118 266.539459 C 345.810669 269.697662 344.488556 274.733002 343.707916 277.729248 C 342.927277 280.725464 341.644104 285.694611 340.856537 288.771759 C 340.068848 291.848938 338.741821 296.950745 337.907471 300.10907 C 337.07312 303.267395 335.852112 307.905273 335.194244 310.415436 C 334.536255 312.925598 332.868256 317.805023 331.48761 321.258606 C 330.106934 324.712158 327.583344 329.880066 325.87973 332.742859 C 324.176147 335.60556 321.75058 339.272949 320.489594 340.892548 C 319.228607 342.512115 316.77594 345.477997 315.039124 347.483398 C 313.302307 349.488831 309.858185 352.823364 307.385376 354.893494 C 304.912659 356.963684 301.316528 359.726257 299.393982 361.032593 C 297.471405 362.338928 293.670013 364.543182 290.946411 365.931 C 288.222809 367.318787 284.028137 369.177979 281.624969 370.062531 C 279.221771 370.947144 275.027161 372.218475 272.303528 372.887695 C 269.579926 373.556946 264.636566 374.383636 261.318268 374.724915 C 257.84079 375.082397 242.78627 375.316284 225.780304 375.276947 Z M 86.719643 374.745453 C 21.305471 374.753784 0.771678 374.710663 0.234212 374.167389 C -0.292765 373.634583 0.234212 365.281006 0.234212 340.598083 C 0.234212 315.915131 -0.292765 307.561462 0.234212 307.028748 C 0.773456 306.483673 29.231308 306.439819 122.331924 306.439819 C 231.595459 306.439819 243.648087 306.18689 244.339249 307.028748 C 244.972778 307.800354 244.386169 308.953064 243.546722 312.137726 C 242.990295 314.248596 241.761749 317.943542 240.816681 320.348602 C 239.871536 322.753723 238.146881 326.631348 236.984039 328.965576 C 235.821228 331.299744 233.281982 335.596741 231.341339 338.514374 C 229.400665 341.431946 225.435944 346.315369 222.530853 349.366455 C 219.625732 352.417542 215.21019 356.451294 212.718536 358.330414 C 210.226883 360.209503 206.156433 362.901978 203.673065 364.313721 C 201.189697 365.725525 197.180786 367.712616 194.764374 368.729523 C 192.347885 369.746399 188.422333 371.117035 186.040848 371.775269 C 183.659363 372.433594 179.482452 373.368652 176.75885 373.853363 C 172.515457 374.608521 159.631699 374.736206 86.719643 374.745453 Z"/>
</svg>
