<?xml version="1.0" encoding="UTF-8"?>
<!-- Generated by Pixelmator Pro 3.6.14 -->
<svg width="35" height="30" viewBox="0 0 35 30" xmlns="http://www.w3.org/2000/svg">
    <path id="path1" fill="#ffffff" fill-rule="evenodd" stroke="none" d="M 20.10766 27.756124 C 18.662455 27.752775 17.40349 27.764114 17.350304 27.762207 C 16.875677 27.745195 17.028496 27.74159 17.038996 27.709757 C 17.04949 27.677923 17.506445 27.549406 17.661612 27.499958 C 17.816776 27.450518 18.105225 27.341944 18.362053 27.264389 C 18.618883 27.186842 19.086918 26.995226 19.402126 26.838575 C 19.724871 26.678185 20.215057 26.371733 20.524199 26.137093 C 20.826128 25.907919 21.265169 25.513054 21.499844 25.259609 C 21.734518 25.006165 22.051674 24.608765 22.204634 24.376499 C 22.357595 24.144234 22.576605 23.766592 22.691322 23.537304 C 22.806046 23.308008 22.967493 22.91979 23.050093 22.674583 C 23.13269 22.42938 23.272362 21.992739 23.360468 21.704266 C 23.448574 21.415791 23.629562 20.778526 23.762665 20.288124 C 23.895765 19.79772 24.082596 19.10145 24.177843 18.740856 C 24.273088 18.380266 24.444792 17.743 24.559406 17.324717 C 24.674023 16.906429 24.887449 16.115746 25.033693 15.567651 C 25.179939 15.019553 25.400063 14.205271 25.522865 13.758137 C 25.64566 13.310999 25.852015 12.555723 25.981422 12.079744 C 26.110828 11.603767 26.31251 10.854687 26.429598 10.415134 C 26.546679 9.97558 26.794855 9.05509 26.981087 8.369593 C 27.167318 7.684105 27.433132 6.698406 27.571789 6.179152 C 27.710442 5.659899 28.002434 4.574194 28.220654 3.766468 C 28.489832 2.770142 28.647453 2.22415 28.713026 2.166752 C 28.796288 2.093876 29.061031 2.124096 30.616756 2.095636 C 31.610062 2.077467 32.975174 2.048182 33.650326 2.030556 C 34.813663 2.000193 34.94191 1.969007 34.991058 2.06185 C 35.021935 2.120167 34.96489 2.279057 34.9403 2.403511 C 34.917576 2.518494 34.793926 3.013813 34.665512 3.504217 C 34.537106 3.994619 34.34853 4.714493 34.246479 5.103933 C 34.144417 5.493374 33.969418 6.16604 33.857578 6.598749 C 33.745754 7.03146 33.567734 7.715931 33.461994 8.119791 C 33.356266 8.523651 33.191357 9.149117 33.095551 9.50971 C 32.999737 9.870302 32.840702 10.483959 32.74213 10.873402 C 32.643562 11.262844 32.487438 11.864702 32.395191 12.210869 C 32.30294 12.557035 32.151531 13.135296 32.058727 13.495886 C 31.965919 13.856478 31.819616 14.422938 31.733591 14.75468 C 31.647575 15.086422 31.502605 15.641081 31.411455 15.987248 C 31.320297 16.333414 31.192017 16.829067 31.126381 17.088692 C 31.060753 17.348316 30.94619 17.790859 30.871792 18.072124 C 30.79739 18.353388 30.679642 18.801828 30.610119 19.068668 C 30.540596 19.335508 30.426319 19.778053 30.35618 20.052099 C 30.28603 20.326149 30.167847 20.780506 30.09354 21.061783 C 30.019236 21.34306 29.910494 21.7561 29.851904 21.979652 C 29.793304 22.203203 29.644756 22.637758 29.521799 22.94533 C 29.398836 23.252895 29.174089 23.713142 29.022369 23.968098 C 28.870649 24.223049 28.654631 24.549662 28.54233 24.693899 C 28.430029 24.838135 28.211597 25.102272 28.056919 25.280872 C 27.902241 25.459471 27.595512 25.756441 27.375288 25.940804 C 27.155071 26.12517 26.834806 26.371201 26.663586 26.487541 C 26.492363 26.603882 26.153816 26.80019 25.911257 26.923786 C 25.668697 27.04738 25.295128 27.212957 25.081104 27.291735 C 24.867081 27.370518 24.493513 27.483742 24.25095 27.543343 C 24.00839 27.602943 23.568144 27.676567 23.272619 27.706959 C 22.962919 27.738798 21.622187 27.759626 20.10766 27.756124 Z M 7.723123 27.70879 C 1.897434 27.709534 0.068724 27.705692 0.020859 27.657307 C -0.026073 27.609858 0.020859 26.8659 0.020859 24.667675 C 0.020859 22.469448 -0.026073 21.725483 0.020859 21.678041 C 0.068883 21.629496 2.603297 21.625591 10.894701 21.625591 C 20.625549 21.625591 21.69894 21.603065 21.760492 21.678041 C 21.816914 21.746759 21.764671 21.849419 21.689911 22.133038 C 21.640356 22.32103 21.530945 22.650095 21.446777 22.864286 C 21.362604 23.078484 21.209009 23.423819 21.10545 23.631702 C 21.00189 23.839581 20.775749 24.222261 20.602919 24.482101 C 20.430086 24.741938 20.076992 25.176849 19.81827 25.448574 C 19.559544 25.720299 19.166302 26.07954 18.944399 26.246889 C 18.722496 26.41424 18.359987 26.654026 18.138823 26.779755 C 17.917658 26.905487 17.560629 27.082455 17.345428 27.173019 C 17.130219 27.263582 16.780615 27.385647 16.568523 27.444269 C 16.356432 27.502897 15.984443 27.586174 15.741882 27.629341 C 15.363972 27.696592 14.216563 27.707964 7.723123 27.70879 Z"/>
</svg>
